<svg width="32" height="32" viewBox="0 0 32 32" fill="none" xmlns="http://www.w3.org/2000/svg">
<circle cx="16" cy="16" r="16" fill="#2D3646"/>
<g clip-path="url(#clip0_1040_2616)">
<path d="M8.26316 12.3099H11.5848V22.9941H8.26316V12.3099ZM9.92398 7C10.9883 7 11.848 7.86154 11.848 8.92234C11.848 9.98315 10.9883 10.8505 9.92398 10.8505C8.85965 10.8505 8 9.98901 8 8.92234C8 7.85568 8.85965 7 9.92398 7Z" fill="white"/>
<path d="M13.6611 12.3099H16.8424V13.7692H16.8834C17.3278 12.9253 18.4097 12.0403 20.0237 12.0403C23.3804 12.0403 24.0003 14.2498 24.0003 17.1333V22.9941H20.6904V17.7956C20.6904 16.5531 20.667 14.959 18.9652 14.959C17.2635 14.959 16.9769 16.307 16.9769 17.7018V22.9883H13.667V12.3099H13.6611Z" fill="white"/>
</g>
<defs>
<clipPath id="clip0_1040_2616">
<rect width="16" height="16" fill="white" transform="translate(8 7)"/>
</clipPath>
</defs>
</svg>
