<svg width="32" height="32" viewBox="0 0 32 32" fill="none" xmlns="http://www.w3.org/2000/svg">
<circle cx="16" cy="16" r="16" fill="#2D3646"/>
<g clip-path="url(#clip0_1040_2621)">
<path d="M7.10209 15.5338C7.10209 15.5338 15.0655 12.2367 17.8278 11.0773C18.8884 10.6123 22.4776 9.12681 22.4776 9.12681C22.4776 9.12681 24.1314 8.47464 23.9936 10.0568C23.9456 10.7089 23.5801 12.9795 23.2086 15.4372C22.6574 18.9155 22.0581 22.7198 22.0581 22.7198C22.0581 22.7198 21.9683 23.7886 21.1833 23.9698C20.3984 24.157 19.1101 23.3237 18.8824 23.1365C18.6966 22.9976 15.431 20.9082 14.2326 19.8877C13.909 19.6099 13.5435 19.0543 14.2805 18.4022C15.9343 16.8744 17.9177 14.9722 19.1101 13.7645C19.6613 13.2089 20.2126 11.9106 17.9117 13.4867C14.646 15.7572 11.4223 17.8949 11.4223 17.8949C11.4223 17.8949 10.6853 18.3599 9.30715 17.9432C7.92899 17.5266 6.31714 16.971 6.31714 16.971C6.31714 16.971 5.21461 16.2766 7.10209 15.5338Z" fill="white"/>
</g>
<defs>
<clipPath id="clip0_1040_2621">
<rect width="18" height="15" fill="white" transform="translate(6 9)"/>
</clipPath>
</defs>
</svg>
