<svg width="32" height="32" viewBox="0 0 32 32" fill="none" xmlns="http://www.w3.org/2000/svg">
<circle cx="16" cy="16" r="16" fill="#2D3646"/>
<g clip-path="url(#clip0_1040_2625)">
<path d="M7 25L8.29605 20.1834C7.56579 18.8644 7.17763 17.3879 7.17763 15.8917C7.17763 10.9898 11.1711 7 16.0855 7C21 7 25 10.9898 25 15.8917C25 20.7937 21 24.7834 16.0855 24.7834C14.6118 24.7834 13.1513 24.4094 11.8487 23.7073L7 25.0066L7 25ZM12.0921 21.8961L12.3947 22.0798C13.5132 22.7492 14.7895 23.097 16.0855 23.097C20.0724 23.097 23.3158 19.8618 23.3158 15.8852C23.3158 11.9085 20.0724 8.67991 16.0855 8.67991C12.0987 8.67991 8.86184 11.9151 8.86184 15.8917C8.86184 17.2042 9.23026 18.4969 9.92105 19.6322L10.1053 19.9406L9.38158 22.6311L12.0921 21.9092V21.8961Z" fill="white"/>
<path fill-rule="evenodd" clip-rule="evenodd" d="M19.4014 17.1254C19.033 16.9089 18.5593 16.6595 18.1251 16.8367C17.7961 16.9745 17.579 17.4929 17.3685 17.7554C17.2566 17.8932 17.1251 17.9129 16.9606 17.8472C15.7172 17.3551 14.7632 16.5217 14.079 15.3799C13.9606 15.2027 13.9803 15.0649 14.1251 14.9008C14.3356 14.658 14.5922 14.3824 14.6514 14.0543C14.7106 13.7262 14.5527 13.339 14.4145 13.0503C14.2435 12.6763 14.0461 12.1447 13.6711 11.9347C13.329 11.7379 12.8751 11.8494 12.5659 12.0988C12.033 12.5319 11.7764 13.2078 11.7895 13.8706C11.7895 14.0609 11.8159 14.2512 11.8619 14.4349C11.9672 14.8746 12.1711 15.288 12.4014 15.6817C12.5724 15.977 12.7632 16.2658 12.9672 16.5414C13.6316 17.4404 14.4606 18.2279 15.4211 18.8119C15.9014 19.1072 16.4145 19.3631 16.9474 19.5403C17.5461 19.7371 18.079 19.9406 18.7303 19.8225C19.408 19.6912 20.079 19.2778 20.3422 18.6216C20.4211 18.4313 20.4606 18.2147 20.4145 18.0113C20.3224 17.5913 19.7501 17.342 19.408 17.1385L19.4014 17.1254Z" fill="white"/>
</g>
<defs>
<clipPath id="clip0_1040_2625">
<rect width="18" height="18" fill="white" transform="translate(7 7)"/>
</clipPath>
</defs>
</svg>
