<svg width="170" height="174" viewBox="0 0 170 174" fill="none" xmlns="http://www.w3.org/2000/svg">
<g clip-path="url(#clip0_811_476)">
<path d="M165.021 98.4932C159.635 112.99 148.63 128.682 133.139 133.329C109.738 140.352 106.943 159.308 65.0291 157.547C58.4948 157.275 52.4543 156.349 46.9041 154.878C43.9223 154.087 41.0795 153.132 38.3831 152.029C13.8992 142.061 1.12684 120.126 0.0658232 97.1769C-1.33545 66.9918 19.6251 52.6015 33.2463 44.1784C46.8675 35.7552 63.284 3.11048 104.503 4.51128C110.788 4.7282 117.055 5.5922 123.132 7.24669C137.002 11.0189 151.099 19.3612 159.291 31.5565C159.906 32.472 160.491 33.4096 161.055 34.3655C172.02 53.0574 172.363 78.7276 165.021 98.4932Z" fill="#FFD336"/>
<path opacity="0.7" d="M165.021 98.4932C159.635 112.99 148.63 128.682 133.139 133.329C109.738 140.352 106.943 159.308 65.0291 157.547C58.4948 157.275 52.4543 156.349 46.9041 154.878C43.9223 154.087 41.0795 153.132 38.3831 152.029C13.8992 142.061 1.12684 120.126 0.0658232 97.1769C-1.33545 66.9918 19.6251 52.6015 33.2463 44.1784C46.8675 35.7552 63.284 3.11048 104.503 4.51128C110.788 4.7282 117.055 5.5922 123.132 7.24669C137.002 11.0189 151.099 19.3612 159.291 31.5565C159.906 32.472 160.491 33.4096 161.055 34.3655C172.02 53.0574 172.363 78.7276 165.021 98.4932Z" fill="white"/>
<g opacity="0.3">
<path d="M168.003 36.7001H139.923V76.2054H168.003V36.7001Z" stroke="black" stroke-miterlimit="10"/>
<path d="M167.048 38.042H140.878V74.8597H167.048V38.042Z" stroke="black" stroke-miterlimit="10"/>
<path d="M160.169 47.7189H147.752V65.1865H160.169V47.7189Z" stroke="black" stroke-miterlimit="10"/>
</g>
<g opacity="0.3">
<path d="M136.099 36.9501H120.941V58.2745H136.099V36.9501Z" stroke="black" stroke-miterlimit="10"/>
<path d="M135.583 37.6743H121.457V57.5465H135.583V37.6743Z" stroke="black" stroke-miterlimit="10"/>
<path d="M131.87 42.8988H125.167V52.3294H131.87V42.8988Z" stroke="black" stroke-miterlimit="10"/>
</g>
<path d="M140.259 156.146V127.66" stroke="#A7B1BD" stroke-width="4" stroke-miterlimit="10"/>
<path d="M136.732 156.724V117.38" stroke="#A7B1BD" stroke-width="4" stroke-miterlimit="10"/>
<path d="M144.729 156.915V143.098" stroke="#A7B1BD" stroke-width="4" stroke-miterlimit="10"/>
<path d="M135.36 121.259C135.36 121.259 134.654 119.954 132.294 117.112C129.934 114.266 120.144 106.563 120.144 106.563C120.144 106.563 125.686 109.527 127.457 111.067C129.228 112.608 131.584 114.505 131.584 114.505C131.584 114.505 124.98 107.273 124.271 106.799C123.564 106.324 130.995 112.49 130.995 112.49C130.995 112.49 128.163 106.799 126.747 104.905C125.332 103.008 122.62 98.5042 122.62 98.5042C122.62 98.5042 130.289 108.817 130.64 109.409C130.995 110.001 132.528 112.611 132.528 112.611L129.813 105.501L133.117 111.31C133.117 111.31 128.398 101.471 128.163 100.997C127.929 100.523 131.467 105.618 131.467 105.618L128.401 96.3718L135.477 110.953L135.005 105.262L136.304 111.189L136.659 96.6071L137.486 111.067C137.486 111.067 138.784 101.821 139.019 99.9234C139.253 98.0263 139.374 96.0115 139.374 96.0115C139.374 96.0115 139.139 108.578 139.139 108.931C139.139 109.284 138.905 112.13 138.905 112.13C138.905 112.13 140.676 106.795 141.148 105.372C141.62 103.949 142.092 99.0888 142.326 98.3792C142.56 97.6696 141.148 109.284 141.027 109.758C140.91 110.233 140.555 111.299 140.2 112.012C139.845 112.722 142.794 107.744 143.855 105.611C144.916 103.479 146.921 99.4454 146.921 99.4454C146.921 99.4454 145.151 105.372 144.679 106.438C144.207 107.505 141.141 113.196 141.141 113.196C141.141 113.196 145.74 107.744 147.748 106.321C149.753 104.898 153.412 102.173 153.412 102.173C153.412 102.173 147.514 108.575 146.336 109.758C145.158 110.942 141.737 115.093 141.737 115.093C141.737 115.093 147.635 111.299 147.99 110.946C148.345 110.589 152.589 107.865 152.589 107.865C152.589 107.865 144.027 114.663 143.625 115.097C140.204 118.77 139.026 120.549 138.316 121.263C137.61 121.972 136.428 122.329 135.367 121.263L135.36 121.259Z" fill="#FFD336"/>
<path d="M139.432 131.653C139.432 131.653 138.931 130.73 137.262 128.719C135.594 126.708 128.668 121.255 128.668 121.255C128.668 121.255 132.59 123.351 133.841 124.443C135.093 125.535 136.761 126.873 136.761 126.873C136.761 126.873 132.089 121.759 131.588 121.424C131.086 121.09 136.344 125.45 136.344 125.45C136.344 125.45 134.343 121.424 133.34 120.082C132.338 118.74 130.42 115.556 130.42 115.556C130.42 115.556 135.843 122.851 136.095 123.27C136.344 123.689 137.43 125.535 137.43 125.535L135.51 120.505L137.848 124.612C137.848 124.612 134.511 117.652 134.343 117.318C134.174 116.983 136.68 120.586 136.68 120.586L134.511 114.045L139.516 124.358L139.183 120.332L140.101 124.524L140.35 114.211L140.935 124.439C140.935 124.439 141.854 117.898 142.018 116.556C142.187 115.214 142.267 113.788 142.267 113.788C142.267 113.788 142.099 122.674 142.099 122.928C142.099 123.182 141.931 125.193 141.931 125.193L143.515 120.413C143.848 119.406 144.181 115.968 144.349 115.468C144.517 114.964 143.515 123.182 143.431 123.516C143.347 123.851 143.098 124.605 142.845 125.108C142.597 125.612 144.682 122.09 145.432 120.582C146.182 119.075 147.602 116.222 147.602 116.222C147.602 116.222 146.35 120.413 146.017 121.171C145.684 121.924 143.515 125.95 143.515 125.95C143.515 125.95 146.767 122.093 148.187 121.086C149.607 120.079 152.193 118.152 152.193 118.152C152.193 118.152 148.022 122.678 147.188 123.52C146.354 124.358 143.936 127.292 143.936 127.292C143.936 127.292 148.106 124.608 148.359 124.358C148.611 124.108 151.611 122.178 151.611 122.178C151.611 122.178 145.556 126.987 145.271 127.292C142.853 129.892 142.018 131.149 141.517 131.653C141.016 132.156 140.182 132.406 139.432 131.653Z" fill="#FFD336"/>
<path d="M143.68 143.624C143.68 143.624 143.179 142.701 141.51 140.69C139.842 138.679 132.916 133.226 132.916 133.226C132.916 133.226 136.838 135.322 138.089 136.414C139.341 137.502 141.009 138.844 141.009 138.844C141.009 138.844 136.337 133.73 135.836 133.395C135.334 133.061 140.592 137.421 140.592 137.421C140.592 137.421 138.591 133.395 137.588 132.053C136.586 130.711 134.669 127.527 134.669 127.527C134.669 127.527 140.091 134.822 140.343 135.241C140.592 135.66 141.679 137.506 141.679 137.506L139.758 132.476L142.096 136.583C142.096 136.583 138.759 129.623 138.591 129.289C138.422 128.954 140.928 132.557 140.928 132.557L138.759 126.016L143.764 136.329L143.431 132.303L144.349 136.495L144.598 126.182L145.184 136.41C145.184 136.41 146.102 129.87 146.266 128.528C146.435 127.186 146.515 125.759 146.515 125.759C146.515 125.759 146.347 134.645 146.347 134.899C146.347 135.153 146.179 137.164 146.179 137.164C146.179 137.164 147.43 133.392 147.763 132.384C148.096 131.377 148.429 127.939 148.597 127.436C148.765 126.932 147.763 135.149 147.679 135.484C147.595 135.818 147.346 136.572 147.093 137.076C146.845 137.579 148.93 134.057 149.68 132.55L151.85 128.189C151.85 128.189 150.598 132.381 150.265 133.138C149.932 133.892 147.763 137.918 147.763 137.918C147.763 137.918 151.015 134.061 152.435 133.053C153.855 132.046 156.441 130.12 156.441 130.12C156.441 130.12 152.27 134.645 151.436 135.487C150.602 136.326 148.184 139.26 148.184 139.26C148.184 139.26 152.355 136.576 152.607 136.326C152.856 136.076 155.86 134.145 155.86 134.145C155.86 134.145 149.804 138.954 149.519 139.26C147.101 141.859 146.266 143.116 145.765 143.62C145.264 144.124 144.43 144.374 143.68 143.62V143.624Z" fill="#FFD336"/>
<path d="M147.964 173.816C148.6 171.522 148.959 168.912 148.959 166.136C148.959 165.647 148.948 165.161 148.926 164.683C148.871 163.433 148.739 162.224 148.542 161.069C148.469 160.632 148.384 160.198 148.293 159.779C148.216 159.43 148.132 159.084 148.044 158.746C147.623 157.146 147.071 155.698 146.409 154.448H134.174C133.516 155.698 132.963 157.15 132.539 158.746C132.447 159.084 132.367 159.426 132.29 159.779C132.198 160.198 132.114 160.632 132.041 161.069C131.847 162.224 131.715 163.433 131.657 164.683C131.635 165.161 131.624 165.647 131.624 166.136C131.624 168.912 131.986 171.522 132.619 173.816H147.96H147.964Z" fill="white" stroke="#424A5D" stroke-miterlimit="10"/>
<path d="M148.044 158.746H132.543C132.451 159.084 132.371 159.426 132.294 159.779H148.293C148.216 159.43 148.132 159.084 148.044 158.746ZM148.542 161.069H132.041C131.847 162.224 131.716 163.433 131.657 164.683H148.922C148.868 163.433 148.736 162.224 148.538 161.069H148.542Z" fill="#424A5D" stroke="#424A5D" stroke-miterlimit="10"/>
<path d="M10.1597 3.85681H111.589V110.552H8.07422V5.95249C8.07422 4.79435 9.01084 3.85681 10.1597 3.85681Z" fill="#424A5D" stroke="#424A5D" stroke-miterlimit="10"/>
<path d="M13.2984 0.183838H114.117C115.229 0.183838 116.129 1.08829 116.129 2.20598V107.402H11.2861V2.20598C11.2861 1.08829 12.1862 0.183838 13.2984 0.183838Z" fill="white" stroke="#424A5D" stroke-miterlimit="10"/>
<path d="M13.2984 0.183838H36.4175C37.5298 0.183838 38.4298 1.08829 38.4298 2.20598V107.402H11.2861V2.20598C11.2861 1.08829 12.1862 0.183838 13.2984 0.183838Z" fill="#E2E8ED"/>
<path d="M13.2984 0.183838H114.117C115.229 0.183838 116.129 1.08829 116.129 2.20598V11.8204H11.2861V2.20598C11.2861 1.08829 12.1862 0.183838 13.2984 0.183838Z" fill="#FFD336" stroke="#424A5D" stroke-miterlimit="10"/>
<path d="M13.2984 0.183838H114.117C115.229 0.183838 116.129 1.08829 116.129 2.20598V7.69151H11.2861V2.20598C11.2861 1.08829 12.1862 0.183838 13.2984 0.183838Z" fill="#424A5D" stroke="#424A5D" stroke-miterlimit="10"/>
<path d="M102.036 4.16563C102.036 3.27956 101.323 2.56262 100.441 2.56262C99.5591 2.56262 98.8457 3.27956 98.8457 4.16563C98.8457 5.0517 99.5591 5.76864 100.441 5.76864C101.323 5.76864 102.036 5.0517 102.036 4.16563Z" fill="white" stroke="#424A5D" stroke-miterlimit="10"/>
<path d="M108.153 4.16563C108.153 3.27956 107.44 2.56262 106.558 2.56262C105.676 2.56262 104.963 3.27956 104.963 4.16563C104.963 5.0517 105.676 5.76864 106.558 5.76864C107.44 5.76864 108.153 5.0517 108.153 4.16563Z" fill="white" stroke="#424A5D" stroke-miterlimit="10"/>
<path d="M114.274 4.16563C114.274 3.27956 113.561 2.56262 112.679 2.56262C111.797 2.56262 111.084 3.27956 111.084 4.16563C111.084 5.0517 111.797 5.76864 112.679 5.76864C113.561 5.76864 114.274 5.0517 114.274 4.16563Z" fill="white" stroke="#424A5D" stroke-miterlimit="10"/>
<path d="M46.3984 11.5703V9.06653" stroke="#424A5D" stroke-miterlimit="10"/>
<path d="M61.8379 11.5703V9.06653" stroke="#424A5D" stroke-miterlimit="10"/>
<path d="M77.2773 11.5703V9.06653" stroke="#424A5D" stroke-miterlimit="10"/>
<path d="M92.7207 11.5703V9.06653" stroke="#424A5D" stroke-miterlimit="10"/>
<path d="M108.16 11.5703V9.06653" stroke="#424A5D" stroke-miterlimit="10"/>
<path d="M110.151 21.5083H43.9072V87.5773H110.151V21.5083Z" fill="white" stroke="#424A5D" stroke-width="0.6" stroke-miterlimit="10"/>
<path d="M81.0029 38.1414H89.9228" stroke="#424A5D" stroke-width="0.6" stroke-miterlimit="10"/>
<path d="M81.0029 44.7299H89.9228" stroke="#424A5D" stroke-width="0.6" stroke-miterlimit="10"/>
<path d="M81.0029 51.3147H89.9228" stroke="#424A5D" stroke-width="0.6" stroke-miterlimit="10"/>
<path d="M63.8867 65.8153H68.2369" stroke="#424A5D" stroke-width="0.6" stroke-miterlimit="10"/>
<path d="M53.7266 65.8153H62.8952" stroke="#424A5D" stroke-width="0.6" stroke-miterlimit="10"/>
<path d="M49.3877 65.8153H52.4866" stroke="#424A5D" stroke-width="0.6" stroke-miterlimit="10"/>
<path d="M56.8223 67.8412H68.2373" stroke="#424A5D" stroke-width="0.6" stroke-miterlimit="10"/>
<path d="M49.3877 67.8412H55.8306" stroke="#424A5D" stroke-width="0.6" stroke-miterlimit="10"/>
<path d="M63.5176 69.8633H68.2373" stroke="#424A5D" stroke-width="0.6" stroke-miterlimit="10"/>
<path d="M54.7188 69.8633H62.2776" stroke="#424A5D" stroke-width="0.6" stroke-miterlimit="10"/>
<path d="M49.3877 69.8633H53.6025" stroke="#424A5D" stroke-width="0.6" stroke-miterlimit="10"/>
<path d="M49.3877 71.8854H68.2372" stroke="#424A5D" stroke-width="0.6" stroke-miterlimit="10"/>
<path d="M57.1953 73.9076H68.2372" stroke="#424A5D" stroke-width="0.6" stroke-miterlimit="10"/>
<path d="M49.3877 73.9076H55.8306" stroke="#424A5D" stroke-width="0.6" stroke-miterlimit="10"/>
<path d="M65.0029 75.9333H68.2372" stroke="#424A5D" stroke-width="0.6" stroke-miterlimit="10"/>
<path d="M49.3877 75.9333H64.0114" stroke="#424A5D" stroke-width="0.6" stroke-miterlimit="10"/>
<path d="M65.5 77.9556H68.2367" stroke="#424A5D" stroke-width="0.6" stroke-miterlimit="10"/>
<path d="M54.3447 77.9556H64.7536" stroke="#424A5D" stroke-width="0.6" stroke-miterlimit="10"/>
<path d="M49.3877 77.9556H53.6025" stroke="#424A5D" stroke-width="0.6" stroke-miterlimit="10"/>
<path d="M65.9941 79.9777H68.2369" stroke="#424A5D" stroke-width="0.6" stroke-miterlimit="10"/>
<path d="M58.5596 79.9777H64.633" stroke="#424A5D" stroke-width="0.6" stroke-miterlimit="10"/>
<path d="M49.3877 79.9777H57.6929" stroke="#424A5D" stroke-width="0.6" stroke-miterlimit="10"/>
<path d="M103.203 36.3251H106.478" stroke="#424A5D" stroke-width="0.6" stroke-miterlimit="10"/>
<path d="M95.5498 36.3251H102.457" stroke="#424A5D" stroke-width="0.6" stroke-miterlimit="10"/>
<path d="M92.2822 36.3251H94.6165" stroke="#424A5D" stroke-width="0.6" stroke-miterlimit="10"/>
<path d="M97.8838 38.7075H106.478" stroke="#424A5D" stroke-width="0.6" stroke-miterlimit="10"/>
<path d="M92.2822 38.7075H97.1336" stroke="#424A5D" stroke-width="0.6" stroke-miterlimit="10"/>
<path d="M102.922 41.09H106.478" stroke="#424A5D" stroke-width="0.6" stroke-miterlimit="10"/>
<path d="M96.2959 41.09H101.989" stroke="#424A5D" stroke-width="0.6" stroke-miterlimit="10"/>
<path d="M92.2822 41.09H95.4543" stroke="#424A5D" stroke-width="0.6" stroke-miterlimit="10"/>
<path d="M92.2822 43.4724H106.478" stroke="#424A5D" stroke-width="0.6" stroke-miterlimit="10"/>
<path d="M98.1621 45.8512H106.478" stroke="#424A5D" stroke-width="0.6" stroke-miterlimit="10"/>
<path d="M92.2822 45.8512H97.1336" stroke="#424A5D" stroke-width="0.6" stroke-miterlimit="10"/>
<path d="M104.041 48.2336H106.478" stroke="#424A5D" stroke-width="0.6" stroke-miterlimit="10"/>
<path d="M92.2822 48.2336H103.295" stroke="#424A5D" stroke-width="0.6" stroke-miterlimit="10"/>
<path d="M104.414 50.6161H106.478" stroke="#424A5D" stroke-width="0.6" stroke-miterlimit="10"/>
<path d="M96.0137 50.6161H103.854" stroke="#424A5D" stroke-width="0.6" stroke-miterlimit="10"/>
<path d="M92.2822 50.6161H95.4543" stroke="#424A5D" stroke-width="0.6" stroke-miterlimit="10"/>
<path d="M104.787 52.9985H106.477" stroke="#424A5D" stroke-width="0.6" stroke-miterlimit="10"/>
<path d="M99.1895 52.9985H103.763" stroke="#424A5D" stroke-width="0.6" stroke-miterlimit="10"/>
<path d="M92.2822 52.9985H98.5349" stroke="#424A5D" stroke-width="0.6" stroke-miterlimit="10"/>
<path d="M58.9701 55.4729C57.2213 55.4729 55.4908 55.0244 53.9688 54.1751L55.3334 51.7044C56.4384 52.3221 57.6969 52.6456 58.9701 52.6456C63.1154 52.6456 66.4851 49.2558 66.4851 45.0938C66.4851 43.7041 66.1082 42.3474 65.3911 41.1672L67.7912 39.6965C68.7754 41.3179 69.2986 43.1857 69.2986 45.0938C69.2986 50.8183 64.6667 55.4729 58.9701 55.4729Z" fill="#FFD336" stroke="#424A5D" stroke-width="0.6" stroke-miterlimit="10"/>
<path d="M53.9686 54.1788C50.6831 52.3478 48.6416 48.8698 48.6416 45.0975C48.6416 40.1782 52.1173 35.9023 56.9102 34.9243L57.47 37.6928C53.9869 38.4024 51.4551 41.5165 51.4551 45.0939C51.4551 47.8403 52.9405 50.3735 55.3333 51.7044L53.9686 54.1751V54.1788Z" fill="#424A5D" stroke="#424A5D" stroke-width="0.6" stroke-miterlimit="10"/>
<path d="M65.3909 41.1672C64.0116 38.895 61.6115 37.542 58.97 37.542C58.4651 37.542 57.9602 37.5935 57.4699 37.6928L56.9102 34.9243C57.5834 34.7882 58.2785 34.7184 58.97 34.7184C62.5994 34.7184 65.8995 36.5788 67.791 39.7002L65.3909 41.1709V41.1672Z" fill="#A7B1BD" stroke="#424A5D" stroke-width="0.6" stroke-miterlimit="10"/>
<path d="M79.1802 36.4943H76.085V39.6047H79.1802V36.4943Z" fill="#FFD336" stroke="#424A5D" stroke-width="0.6" stroke-miterlimit="10"/>
<path d="M79.1802 43.1747H76.085V46.2851H79.1802V43.1747Z" fill="#424A5D" stroke="#424A5D" stroke-width="0.6" stroke-miterlimit="10"/>
<path d="M79.1802 49.8514H76.085V52.9619H79.1802V49.8514Z" fill="#A7B1BD" stroke="#424A5D" stroke-width="0.6" stroke-miterlimit="10"/>
<path d="M79.7694 68.2089H75.1924V80.5292H79.7694V68.2089Z" fill="#424A5D"/>
<path d="M85.8094 62.6902H81.2324V80.5292H85.8094V62.6902Z" fill="#FFD336" stroke="#424A5D" stroke-width="0.6" stroke-miterlimit="10"/>
<path d="M91.8465 70.9663H87.2695V80.5292H91.8465V70.9663Z" fill="#424A5D"/>
<path d="M97.8875 65.2639H93.3105V80.5293H97.8875V65.2639Z" fill="#FFD336" stroke="#424A5D" stroke-width="0.6" stroke-miterlimit="10"/>
<path d="M103.928 60.3004H99.3506V80.5292H103.928V60.3004Z" fill="#424A5D"/>
<path d="M90.9755 26.2659H67.5674V28.5196H90.9755V26.2659Z" fill="#424A5D"/>
<path d="M35.4405 18.6957H14.2715V41.4687H35.4405V18.6957Z" fill="white" stroke="#424A5D" stroke-width="0.6" stroke-miterlimit="10"/>
<path d="M24.8557 33.9499C23.8606 33.9499 22.88 33.6963 22.0166 33.2146L22.7922 31.8101C23.4215 32.1594 24.135 32.3433 24.8594 32.3433C27.2119 32.3433 29.1291 30.4204 29.1291 28.0526C29.1291 27.2622 28.9132 26.4937 28.5071 25.8209L29.8718 24.9863C30.4315 25.9092 30.7279 26.968 30.7279 28.0526C30.7279 31.3028 28.0973 33.9463 24.863 33.9463L24.8557 33.9499Z" fill="#FFD336"/>
<path d="M22.0169 33.211C20.151 32.1705 18.9912 30.1962 18.9912 28.0527C18.9912 25.2585 20.9669 22.8282 23.6853 22.2767L24.0036 23.8503C22.0242 24.2548 20.59 26.0195 20.59 28.0527C20.59 29.6116 21.4352 31.0492 22.7926 31.8065L22.0169 33.211Z" fill="#424A5D"/>
<path d="M28.504 25.8247C27.7211 24.5342 26.3564 23.7657 24.8563 23.7657C24.5673 23.7657 24.2819 23.7952 24.0039 23.8503L23.6855 22.2767C24.0697 22.1995 24.4612 22.1591 24.8563 22.1591C26.9198 22.1591 28.793 23.2179 29.865 24.9864L28.5004 25.821L28.504 25.8247Z" fill="#A7B1BD"/>
<path d="M28.6787 35.9979H31.9532" stroke="#424A5D" stroke-width="0.6" stroke-miterlimit="10"/>
<path d="M21.0254 35.9979H27.933" stroke="#424A5D" stroke-width="0.6" stroke-miterlimit="10"/>
<path d="M17.7578 35.9979H20.092" stroke="#424A5D" stroke-width="0.6" stroke-miterlimit="10"/>
<path d="M23.3594 37.1193H31.9536" stroke="#424A5D" stroke-width="0.6" stroke-miterlimit="10"/>
<path d="M17.7578 37.1193H22.6129" stroke="#424A5D" stroke-width="0.6" stroke-miterlimit="10"/>
<path d="M28.4004 38.2444H31.953" stroke="#424A5D" stroke-width="0.6" stroke-miterlimit="10"/>
<path d="M21.7715 38.2444H27.4644" stroke="#424A5D" stroke-width="0.6" stroke-miterlimit="10"/>
<path d="M17.7578 38.2444H20.9335" stroke="#424A5D" stroke-width="0.6" stroke-miterlimit="10"/>
<path d="M35.4405 49.5388H14.2715V72.3118H35.4405V49.5388Z" fill="white" stroke="#424A5D" stroke-width="0.6" stroke-miterlimit="10"/>
<path d="M29.0889 52.0463H33.0439" stroke="#424A5D" stroke-width="0.6" stroke-miterlimit="10"/>
<path d="M19.8438 52.0463H24.0512" stroke="#424A5D" stroke-width="0.6" stroke-miterlimit="10"/>
<path d="M15.8994 52.0463H18.7166" stroke="#424A5D" stroke-width="0.6" stroke-miterlimit="10"/>
<path d="M22.6602 54.4287H23.9809" stroke="#424A5D" stroke-width="0.6" stroke-miterlimit="10"/>
<path d="M15.8994 54.4287H21.7606" stroke="#424A5D" stroke-width="0.6" stroke-miterlimit="10"/>
<path d="M20.7471 56.8112H23.9813" stroke="#424A5D" stroke-width="0.6" stroke-miterlimit="10"/>
<path d="M15.8994 56.8112H19.73" stroke="#424A5D" stroke-width="0.6" stroke-miterlimit="10"/>
<path d="M15.8994 59.1936H23.9814" stroke="#424A5D" stroke-width="0.6" stroke-miterlimit="10"/>
<path d="M23.001 61.576H33.044" stroke="#424A5D" stroke-width="0.6" stroke-miterlimit="10"/>
<path d="M15.8994 61.576H21.7606" stroke="#424A5D" stroke-width="0.6" stroke-miterlimit="10"/>
<path d="M30.1025 63.9585H33.0441" stroke="#424A5D" stroke-width="0.6" stroke-miterlimit="10"/>
<path d="M15.8994 63.9585H29.2023" stroke="#424A5D" stroke-width="0.6" stroke-miterlimit="10"/>
<path d="M30.5527 66.3373H33.0443" stroke="#424A5D" stroke-width="0.6" stroke-miterlimit="10"/>
<path d="M20.4072 66.3373H29.8795" stroke="#424A5D" stroke-width="0.6" stroke-miterlimit="10"/>
<path d="M15.8994 66.3373H19.73" stroke="#424A5D" stroke-width="0.6" stroke-miterlimit="10"/>
<path d="M31.0059 68.7197H33.0437" stroke="#424A5D" stroke-width="0.6" stroke-miterlimit="10"/>
<path d="M24.2412 68.7197H29.7658" stroke="#424A5D" stroke-width="0.6" stroke-miterlimit="10"/>
<path d="M15.8994 68.7197H23.4509" stroke="#424A5D" stroke-width="0.6" stroke-miterlimit="10"/>
<path d="M33.0479 52.0647H24.75V60.4033H33.0479V52.0647Z" stroke="#424A5D" stroke-width="0.6" stroke-miterlimit="10"/>
<path d="M24.75 60.3996L27.9257 56.8516L29.5136 57.9179L31.8112 55.256L32.8686 55.7891" stroke="#424A5D" stroke-width="0.6" stroke-miterlimit="10"/>
<path d="M27.22 55.6126C27.903 55.6126 28.4567 55.0562 28.4567 54.3699C28.4567 53.6836 27.903 53.1272 27.22 53.1272C26.5371 53.1272 25.9834 53.6836 25.9834 54.3699C25.9834 55.0562 26.5371 55.6126 27.22 55.6126Z" stroke="#424A5D" stroke-width="0.6" stroke-miterlimit="10"/>
<path d="M35.4405 78.8821H14.2715V101.655H35.4405V78.8821Z" fill="white" stroke="#424A5D" stroke-width="0.6" stroke-miterlimit="10"/>
<path d="M23.5244 91.9194H31.8406" stroke="#424A5D" stroke-width="0.6" stroke-miterlimit="10"/>
<path d="M17.6445 91.9194H22.4959" stroke="#424A5D" stroke-width="0.6" stroke-miterlimit="10"/>
<path d="M29.4033 94.3019H31.84" stroke="#424A5D" stroke-width="0.6" stroke-miterlimit="10"/>
<path d="M17.6445 94.3019H28.6571" stroke="#424A5D" stroke-width="0.6" stroke-miterlimit="10"/>
<path d="M29.7764 96.6843H31.8399" stroke="#424A5D" stroke-width="0.6" stroke-miterlimit="10"/>
<path d="M21.376 96.6843H29.2165" stroke="#424A5D" stroke-width="0.6" stroke-miterlimit="10"/>
<path d="M17.6445 96.6843H20.8166" stroke="#424A5D" stroke-width="0.6" stroke-miterlimit="10"/>
<path d="M30.1494 99.0668H31.8397" stroke="#424A5D" stroke-width="0.6" stroke-miterlimit="10"/>
<path d="M24.5488 99.0668H29.1222" stroke="#424A5D" stroke-width="0.6" stroke-miterlimit="10"/>
<path d="M17.6445 99.0668H23.8972" stroke="#424A5D" stroke-width="0.6" stroke-miterlimit="10"/>
<path d="M19.9937 84.9889H17.751V90.445H19.9937V84.9889Z" fill="#424A5D"/>
<path d="M22.9537 82.5476H20.7109V90.445H22.9537V82.5476Z" fill="#FFD336" stroke="#424A5D" stroke-width="0.6" stroke-miterlimit="10"/>
<path d="M25.9137 86.2133H23.6709V90.4487H25.9137V86.2133Z" fill="#424A5D"/>
<path d="M28.8697 83.6874H26.627V90.445H28.8697V83.6874Z" fill="#FFD336" stroke="#424A5D" stroke-width="0.6" stroke-miterlimit="10"/>
<path d="M31.8297 81.4888H29.5869V90.445H31.8297V81.4888Z" fill="#424A5D"/>
<path d="M91.5074 173.816V131.108C91.5074 129.542 90.2744 128.274 88.7524 128.274H41.3836C39.8616 128.274 38.625 129.542 38.625 131.108V173.816H91.5074Z" fill="#E2E8ED" stroke="#424A5D" stroke-width="0.6" stroke-miterlimit="10"/>
<path d="M96.7835 173.816V131.108C96.7835 129.542 95.5505 128.274 94.0249 128.274H46.6561C45.1341 128.274 43.8975 129.542 43.8975 131.108V173.816H96.7798H96.7835Z" fill="#E2E8ED" stroke="#424A5D" stroke-width="0.6" stroke-miterlimit="10"/>
<path d="M123.261 173.816V153.117C123.261 151.911 122.31 150.937 121.139 150.937H94.3798C93.2091 150.937 92.2578 151.915 92.2578 153.117V173.816H123.258H123.261Z" fill="#E2E8ED" stroke="#424A5D" stroke-width="0.6" stroke-miterlimit="10"/>
<path d="M123.262 173.816V153.187C123.262 151.944 122.344 150.937 121.206 150.937H110.383C109.249 150.937 108.327 151.944 108.327 153.187V173.816H123.258H123.262Z" fill="#E2E8ED" stroke="#424A5D" stroke-width="0.6" stroke-miterlimit="10"/>
<path d="M118.076 173.816C113.32 170.765 102 163.36 99.6695 160.628C96.7023 157.15 96.084 156.032 93.7351 156.157C91.3862 156.282 67.4037 159.635 67.4037 159.635C67.4037 159.635 65.7975 161.625 65.4243 164.106C65.117 166.172 67.6305 171.937 68.483 173.816H118.076Z" fill="#424A5D" stroke="#424A5D" stroke-width="0.6" stroke-miterlimit="10"/>
<path d="M76.9198 109.692C77.2893 109.711 84.3359 110.438 87.1824 111.681C90.0252 112.924 96.0839 114.538 98.0633 115.409C100.043 116.281 101.155 117.273 101.4 119.88C101.649 122.49 103.998 132.178 104.367 133.792C104.737 135.406 105.355 142.241 104.616 144.352C103.873 146.462 95.0961 146.712 95.0961 146.712C95.0961 146.712 94.9717 150.065 95.4656 151.929C95.9595 153.793 97.1962 156.775 93.1167 157.521C89.0373 158.268 68.0219 162.738 66.5365 161.746C65.0548 160.753 65.6694 153.051 65.6694 151.187C65.6694 149.322 63.8145 145.473 63.8145 145.473C63.8145 145.473 60.7229 146.219 58.6228 147.212C56.5227 148.205 53.8007 147.708 50.3396 146.591C46.8785 145.473 46.6297 142.241 45.6419 140.256C44.654 138.271 48.9786 135.41 49.8457 133.921C50.7128 132.432 56.6435 118.766 56.8923 117.273C57.1411 115.784 60.4778 115.409 64.9267 114.042C64.9267 114.042 74.571 109.571 76.9198 109.692Z" fill="#FFD336" stroke="#424A5D" stroke-width="0.6" stroke-miterlimit="10"/>
<path d="M71.9873 157.518C75.2106 153.966 83.0731 145.705 88.766 143.024" stroke="#424A5D" stroke-width="0.6" stroke-miterlimit="10"/>
<path d="M70.5205 159.168C70.5205 159.168 70.8352 158.801 71.3986 158.176" stroke="#424A5D" stroke-width="0.6" stroke-miterlimit="10"/>
<path d="M77.3369 149.863C77.6662 149.613 77.9918 149.37 78.3174 149.139" stroke="#424A5D" stroke-width="0.6" stroke-miterlimit="10"/>
<path d="M71.1426 155.407C71.1426 155.407 73.3085 153.187 75.8513 151.054" stroke="#424A5D" stroke-width="0.6" stroke-miterlimit="10"/>
<path d="M59.2744 126.48C60.383 130.631 61.9196 136.245 62.5197 137.73C63.5075 140.164 64.1331 144.308 64.1331 144.308" fill="white"/>
<path d="M59.2744 126.48C60.383 130.631 61.9196 136.245 62.5197 137.73C63.5075 140.164 64.1331 144.308 64.1331 144.308" stroke="#424A5D" stroke-width="0.6" stroke-miterlimit="10"/>
<path d="M58.0371 121.777C58.0371 121.777 58.392 123.156 58.9115 125.112L58.0371 121.777Z" fill="white"/>
<path d="M58.0371 121.777C58.0371 121.777 58.392 123.156 58.9115 125.112" stroke="#424A5D" stroke-width="0.6" stroke-miterlimit="10"/>
<path d="M57.3641 131.344C56.7714 130.917 56.1787 130.675 55.6152 130.524" stroke="#424A5D" stroke-width="0.6" stroke-miterlimit="10"/>
<path d="M54.6094 133.329C55.9594 133.62 57.5912 134.208 58.4839 135.388C60.1888 137.642 60.8145 138.723 60.8145 138.723C60.8145 138.723 60.9938 137.009 59.7388 134.395C59.3217 133.528 58.8754 132.851 58.418 132.318" stroke="#424A5D" stroke-width="0.6" stroke-miterlimit="10"/>
<path d="M52.3848 133.046C52.3848 133.046 52.7323 133.053 53.2702 133.112" stroke="#424A5D" stroke-width="0.6" stroke-miterlimit="10"/>
<path d="M50.2334 135.296C50.2334 135.296 53.4603 133.763 56.5995 135.024" stroke="#424A5D" stroke-width="0.6" stroke-miterlimit="10"/>
<path d="M97.2252 125.274L94.4482 145.032" stroke="#424A5D" stroke-width="0.6" stroke-miterlimit="10"/>
<path d="M97.7668 121.417L97.4668 123.542" stroke="#424A5D" stroke-width="0.6" stroke-miterlimit="10"/>
<path d="M101.78 133.708C102.856 133.112 103.595 132.954 103.595 132.954" stroke="#424A5D" stroke-width="0.6" stroke-miterlimit="10"/>
<path d="M94.9863 142.69C94.9863 142.69 95.2571 140.616 97.9462 137.101C98.9816 135.748 100.057 134.822 100.99 134.197" stroke="#424A5D" stroke-width="0.6" stroke-miterlimit="10"/>
<path d="M95.3447 142.87C95.3447 142.87 98.3046 138.995 101.711 138.635" stroke="#424A5D" stroke-width="0.6" stroke-miterlimit="10"/>
<path d="M75.4383 108.699C75.4383 108.699 73.3382 108.824 72.8406 109.942C72.3467 111.06 72.3467 120.626 72.3467 120.626C72.3467 120.626 79.5177 117.895 80.5055 117.895C81.4933 117.895 89.1583 120.876 89.1583 120.876C89.1583 120.876 88.1704 113.92 86.4399 111.185C84.7093 108.453 81.7421 108.574 80.7543 108.574C79.7665 108.574 75.4383 108.699 75.4383 108.699Z" fill="white" stroke="#424A5D" stroke-width="0.6" stroke-miterlimit="10"/>
<path d="M73.583 107.828L74.0769 110.439C74.0769 110.439 80.3808 122.612 81.1235 121.744C81.8662 120.873 85.5725 110.935 85.5725 110.935L85.8213 107.457C85.8213 107.457 82.8541 109.446 81.1235 109.446C79.393 109.446 74.0769 106.589 74.0769 106.589L73.583 107.832V107.828Z" fill="white" stroke="#424A5D" stroke-width="0.6" stroke-miterlimit="10"/>
<path d="M85.8213 107.457C85.8213 107.457 82.8541 109.446 81.1235 109.446C79.393 109.446 74.0769 106.589 74.0769 106.589L73.583 107.832L74.0769 110.442C74.0769 110.442 75.5002 113.189 77.0734 115.979C77.3075 115.887 77.549 115.777 77.7941 115.637C84.6871 111.758 85.8213 107.457 85.8213 107.457Z" fill="#424A5D" stroke="#424A5D" stroke-width="0.6" stroke-miterlimit="10"/>
<path d="M70.8208 98.3277C70.8208 98.3277 69.3976 95.4709 68.4024 97.8975C67.4073 100.328 71.6733 103.615 71.6733 103.615L70.8208 98.3277Z" fill="white" stroke="#424A5D" stroke-width="0.6" stroke-miterlimit="10"/>
<path d="M87.537 97.688C87.537 97.688 88.8834 94.8937 89.5968 97.4674C90.3103 100.041 87.4053 103.328 87.4053 103.328L87.537 97.688Z" fill="white" stroke="#424A5D" stroke-width="0.6" stroke-miterlimit="10"/>
<path d="M70.5351 97.6107C70.5351 97.6107 71.5303 105.185 72.101 106.471C72.5876 107.567 77.0439 111.431 78.3464 112.545C78.5769 112.744 78.8659 112.85 79.1696 112.85C79.894 112.85 81.244 112.828 81.6538 112.725C82.2209 112.582 86.0405 109.045 86.893 107.045C87.7455 105.045 87.4601 93.4671 87.4601 93.4671C87.4601 93.4671 87.032 85.8933 86.1796 84.8933C85.3271 83.8932 74.6584 83.8932 71.9583 85.3234C69.2546 86.7536 69.2546 89.1839 69.6826 90.6104C70.1107 92.0406 70.5351 97.6144 70.5351 97.6144V97.6107Z" fill="white" stroke="#424A5D" stroke-width="0.6" stroke-miterlimit="10"/>
<path d="M82.6709 82.4741C78.1415 81.7571 76.4146 83.0734 73.8096 84.7389C73.034 84.897 72.3937 85.0882 71.9583 85.3198C69.2546 86.75 69.2546 89.1802 69.6826 90.6068C70.1107 92.037 70.5351 97.6107 70.5351 97.6107L71.5303 97.7541C71.5303 97.7541 71.673 94.4672 71.8156 94.0371C71.9583 93.6069 73.6633 91.6068 73.806 90.6068C73.9486 89.6067 73.6633 86.7463 73.6633 86.7463C73.6633 86.7463 75.2292 91.7502 81.2001 93.4635C82.766 93.9121 84.2405 94.1069 85.5722 94.1106C85.6527 94.9305 85.7918 95.7063 86.0369 95.8938L86.604 96.3239C86.604 96.3239 86.4613 98.324 86.8894 98.7542C87.0503 98.9159 87.2735 99.0189 87.4967 99.0557C87.515 96.8828 87.4857 94.8937 87.4674 93.9856C90.1639 93.5995 89.7614 92.5958 89.8492 91.3825C89.9919 89.3825 88.0711 83.327 82.6672 82.4704L82.6709 82.4741Z" fill="#424A5D" stroke="#424A5D" stroke-width="0.6" stroke-miterlimit="10"/>
<path d="M77.6328 103.596C77.6328 103.596 78.2255 104.593 79.217 104.857C80.2085 105.122 81.2622 105.188 82.3854 103.464" stroke="#424A5D" stroke-width="0.6" stroke-miterlimit="10"/>
<path d="M76.0488 106.049C76.0488 106.049 77.3038 107.574 80.0112 107.442C82.7186 107.31 83.7101 106.181 83.7101 106.181" stroke="#424A5D" stroke-width="0.6" stroke-miterlimit="10"/>
<path d="M74.2637 100.144C74.2637 100.144 75.8479 101.074 77.6955 100.409" stroke="#424A5D" stroke-width="0.6" stroke-miterlimit="10"/>
<path d="M81.9912 100.409C81.9912 100.409 83.7071 101.273 86.0194 100.343" stroke="#424A5D" stroke-width="0.6" stroke-miterlimit="10"/>
<path d="M73.8027 97.9564C73.8027 97.9564 74.8601 96.3644 77.6992 97.3608" stroke="#424A5D" stroke-width="0.6" stroke-miterlimit="10"/>
<path d="M82.0566 97.688C82.0566 97.688 83.9701 96.3607 85.8214 97.9527" stroke="#424A5D" stroke-width="0.6" stroke-miterlimit="10"/>
<path d="M77.6328 101.273C77.6328 101.273 76.3779 102.269 75.7852 102.468" stroke="#424A5D" stroke-width="0.6" stroke-miterlimit="10"/>
<path d="M81.8594 101.074C81.8594 101.074 83.246 102.534 84.1717 102.865" stroke="#424A5D" stroke-width="0.6" stroke-miterlimit="10"/>
<path d="M93.9104 144.399C93.9104 144.399 95.7031 143.046 98.5752 141.245C101.444 139.443 104.224 139.984 105.75 141.697C107.276 143.41 107.455 148.186 105.121 150.26C102.79 152.334 99.6508 151.793 97.6752 151.253C95.7031 150.712 93.2811 148.639 93.1018 148.19C92.9226 147.738 93.9104 144.403 93.9104 144.403V144.399Z" fill="#FFD336" stroke="#424A5D" stroke-width="0.6" stroke-miterlimit="10"/>
<path d="M95.0781 143.41C95.0781 143.41 95.9744 142.33 97.2294 142.238C98.4843 142.146 100.727 143.319 101.265 146.205C101.803 149.091 100.548 151.433 99.0221 152.154C97.4964 152.874 95.0744 152.426 94.5366 151.613C93.9988 150.801 93.4609 149.271 93.4609 149.271L95.0744 143.414L95.0781 143.41Z" fill="white" stroke="#424A5D" stroke-width="0.6" stroke-miterlimit="10"/>
<path d="M93.3729 140.344C93.3729 140.344 88.441 136.289 87.9032 136.109C87.3654 135.929 83.597 137.101 83.597 137.101L84.5848 140.796C84.5848 140.796 84.1348 141.157 82.7006 139.896C81.2664 138.635 80.37 136.921 79.8322 137.462C79.2944 138.002 79.0236 139.083 80.2822 140.436C81.5371 141.789 83.2421 143.591 84.1384 144.852C85.0348 146.113 87.6361 146.745 87.6361 146.745C87.6361 146.745 88.2654 147.918 90.6838 149.087C93.1022 150.256 96.8706 150.981 96.8706 150.981C96.8706 150.981 99.4719 148.098 98.4841 145.572C97.4962 143.05 95.0778 143.411 95.0778 143.411L93.9107 143.138L93.3729 140.344Z" fill="white" stroke="#424A5D" stroke-width="0.6" stroke-miterlimit="10"/>
<path d="M86.7069 135.311C86.7069 135.311 83.769 132.921 83.0117 133.028C82.2543 133.138 80.5567 133.965 79.8945 134.436C79.2286 134.903 79.825 135.811 80.6262 135.782C81.4274 135.752 82.4994 135.469 82.4994 135.469L82.9714 135.208L85.1008 138.557" fill="white"/>
<path d="M86.7069 135.311C86.7069 135.311 83.769 132.921 83.0117 133.028C82.2543 133.138 80.5567 133.965 79.8945 134.436C79.2286 134.903 79.825 135.811 80.6262 135.782C81.4274 135.752 82.4994 135.469 82.4994 135.469L82.9714 135.208L85.1008 138.557" stroke="#424A5D" stroke-width="0.6" stroke-miterlimit="10"/>
<path d="M82.9678 135.208L84.1129 134.682" stroke="#424A5D" stroke-width="0.6" stroke-miterlimit="10"/>
<path d="M90.0692 135.134C90.0692 135.134 87.1313 132.745 86.374 132.851C85.6166 132.962 83.919 133.789 83.2568 134.259C82.5909 134.726 83.1873 135.634 83.9885 135.605C84.7898 135.576 85.8617 135.293 85.8617 135.293L86.3337 135.031L88.4631 138.381" fill="white"/>
<path d="M90.0692 135.134C90.0692 135.134 87.1313 132.745 86.374 132.851C85.6166 132.962 83.919 133.789 83.2568 134.259C82.5909 134.726 83.1873 135.634 83.9885 135.605C84.7898 135.576 85.8617 135.293 85.8617 135.293L86.3337 135.031L88.4631 138.381" stroke="#424A5D" stroke-width="0.6" stroke-miterlimit="10"/>
<path d="M86.334 135.035L87.4791 134.506" stroke="#424A5D" stroke-width="0.6" stroke-miterlimit="10"/>
<path d="M92.7432 137.55C92.7432 137.55 91.309 134.035 90.5919 133.763C89.8748 133.491 87.9906 133.403 87.182 133.491C86.3734 133.583 86.4649 134.664 87.182 135.024C87.8991 135.384 88.9748 135.657 88.9748 135.657H89.5126L89.7833 139.624" fill="white"/>
<path d="M92.7432 137.55C92.7432 137.55 91.309 134.035 90.5919 133.763C89.8748 133.491 87.9906 133.403 87.182 133.491C86.3734 133.583 86.4649 134.664 87.182 135.024C87.8991 135.384 88.9748 135.657 88.9748 135.657H89.5126L89.7833 139.624" stroke="#424A5D" stroke-width="0.6" stroke-miterlimit="10"/>
<path d="M89.5166 135.656L90.7715 135.748" stroke="#424A5D" stroke-width="0.6" stroke-miterlimit="10"/>
<path d="M93.5523 143.859C93.5523 143.859 94.3608 139.532 94.1816 139.083C94.0023 138.635 92.4766 136.649 92.0303 136.649C91.5839 136.649 90.6839 137.55 91.0424 138.451C91.401 139.351 92.1181 139.443 92.1181 139.443V141.966L91.3095 143.046" fill="white"/>
<path d="M93.5523 143.859C93.5523 143.859 94.3608 139.532 94.1816 139.083C94.0023 138.635 92.4766 136.649 92.0303 136.649C91.5839 136.649 90.6839 137.55 91.0424 138.451C91.401 139.351 92.1181 139.443 92.1181 139.443V141.966L91.3095 143.046" stroke="#424A5D" stroke-width="0.6" stroke-miterlimit="10"/>
<path d="M84.5919 148.885H68.5158L67.623 129.487H85.4847L84.5919 148.885Z" fill="#424A5D" stroke="#424A5D" stroke-width="0.6" stroke-miterlimit="10"/>
<path d="M60.2323 140.377C60.2323 140.377 53.9284 135.781 53.3101 135.531C52.6918 135.281 49.2307 136.774 47.2513 138.263C45.272 139.752 45.3964 141.245 46.1391 143.109C46.8818 144.973 49.849 147.333 50.9612 148.201C52.0735 149.072 57.3895 148.572 57.3895 148.572L60.2323 140.373V140.377Z" fill="#FFD336" stroke="#424A5D" stroke-width="0.6" stroke-miterlimit="10"/>
<path d="M61.4686 140.999C61.4686 140.999 60.1076 139.01 59.4893 138.888C58.871 138.763 57.016 140.131 56.0282 141.374C55.0403 142.616 54.0488 145.969 54.0488 147.708C54.0488 149.447 57.016 149.944 57.5099 149.944C58.0038 149.944 58.7466 148.455 59.61 147.955C60.4771 147.458 61.4649 140.999 61.4649 140.999H61.4686Z" fill="white" stroke="#424A5D" stroke-width="0.6" stroke-miterlimit="10"/>
<path d="M80.0073 147.194C80.0073 147.194 82.25 147.194 82.7878 146.833C83.3257 146.473 85.0306 143.951 85.2977 143.41C85.5648 142.87 84.4891 142.87 83.8635 144.043C83.2342 145.216 80.8158 146.116 80.1865 146.477C79.5572 146.837 78.123 147.109 78.123 147.109L80.0073 147.201V147.194Z" fill="white" stroke="#424A5D" stroke-width="0.6" stroke-miterlimit="10"/>
<path d="M60.2325 140.377L69.2584 141.37C69.2584 141.37 70.7401 137.145 71.3585 137.02C71.9768 136.895 74.6952 135.653 75.1891 135.281C75.683 134.91 76.5501 134.41 76.0562 135.778C75.5623 137.145 72.8402 138.509 72.8402 138.509C72.8402 138.509 75.3135 140.124 76.0562 140.249C76.7989 140.374 81.9906 139.256 81.9906 139.256C81.9906 139.256 85.8212 137.767 86.1944 138.013C86.5639 138.263 85.576 139.256 85.576 139.256C85.576 139.256 86.3188 138.76 86.5639 139.381C86.8127 140.002 85.9456 141.245 85.9456 141.245C85.9456 141.245 86.3151 141.495 86.07 142.488C85.8212 143.48 82.4845 146.216 81.7418 146.712C80.9991 147.208 77.044 147.333 74.4464 147.333C71.8487 147.333 68.7608 146.837 68.7608 146.837C68.7608 146.837 58.3775 148.576 57.8799 148.576C57.3824 148.576 54.9128 143.484 60.2288 140.377H60.2325Z" fill="white" stroke="#424A5D" stroke-width="0.6" stroke-miterlimit="10"/>
<path d="M85.5763 139.26C85.5763 139.26 80.7541 142.988 80.1358 142.988C79.5175 142.988 75.8076 143.98 75.8076 143.98" fill="white"/>
<path d="M85.5763 139.26C85.5763 139.26 80.7541 142.988 80.1358 142.988C79.5175 142.988 75.8076 143.98 75.8076 143.98" stroke="#424A5D" stroke-width="0.6" stroke-miterlimit="10"/>
<path d="M85.9459 141.249C85.9459 141.249 82.1153 144.602 81.7421 144.852C81.3726 145.102 77.7871 145.723 77.7871 145.723" fill="white"/>
<path d="M85.9459 141.249C85.9459 141.249 82.1153 144.602 81.7421 144.852C81.3726 145.102 77.7871 145.723 77.7871 145.723" stroke="#424A5D" stroke-width="0.6" stroke-miterlimit="10"/>
<path d="M120.085 173.816C116.759 168.334 106.603 152.558 100.163 153.176C92.3741 153.922 67.5244 164.11 67.5244 164.11L112.607 173.82H120.085V173.816Z" fill="#424A5D" stroke="#424A5D" stroke-width="0.6" stroke-miterlimit="10"/>
<path d="M64.7992 173.816V153.117C64.7992 151.911 63.8516 150.937 62.6771 150.937H46.7802C45.6095 150.937 44.6582 151.915 44.6582 153.117V173.816H64.7955H64.7992Z" fill="#E2E8ED" stroke="#424A5D" stroke-width="0.6" stroke-miterlimit="10"/>
<path d="M69.9942 173.816V153.187C69.9942 151.944 69.0759 150.937 67.9381 150.937H57.1157C55.9816 150.937 55.0596 151.944 55.0596 153.187V173.816H69.9906H69.9942Z" fill="#E2E8ED" stroke="#424A5D" stroke-width="0.6" stroke-miterlimit="10"/>
<path d="M15.0514 173.816H5.59375" stroke="#424A5D" stroke-miterlimit="10"/>
<path d="M169.985 173.816H19.1494" stroke="#424A5D" stroke-miterlimit="10"/>
</g>
<defs>
<clipPath id="clip0_811_476">
<rect width="170" height="174" fill="white"/>
</clipPath>
</defs>
</svg>
