<svg width="106" height="154" viewBox="0 0 106 154" fill="none" xmlns="http://www.w3.org/2000/svg">
<path d="M55.3019 106.337C51.3164 101.219 43.4916 97.7334 34.4953 97.7334C25.499 97.7334 17.6742 101.219 13.6887 106.337H11.0212L10.9165 113.381C10.9061 113.622 10.8643 113.852 10.8643 114.093C10.8643 123.126 21.4402 130.452 34.4953 130.452C47.5504 130.452 58.1264 123.126 58.1264 114.093V106.337H55.3019Z" fill="#FFD336"/>
<path d="M34.4953 130.442C47.5464 130.442 58.1264 123.117 58.1264 114.082C58.1264 105.047 47.5464 97.7229 34.4953 97.7229C21.4442 97.7229 10.8643 105.047 10.8643 114.082C10.8643 123.117 21.4442 130.442 34.4953 130.442Z" fill="white"/>
<path d="M55.3019 106.337C51.3164 101.219 43.4916 97.7334 34.4953 97.7334C25.499 97.7334 17.6742 101.219 13.6887 106.337H11.0212L10.9165 113.381C10.9061 113.622 10.8643 113.852 10.8643 114.093C10.8643 123.126 21.4402 130.452 34.4953 130.452C47.5504 130.452 58.1264 123.126 58.1264 114.093V106.337H55.3019Z" stroke="#424A5D" stroke-width="0.75" stroke-linejoin="round"/>
<path d="M34.4953 130.442C47.5464 130.442 58.1264 123.117 58.1264 114.082C58.1264 105.047 47.5464 97.7229 34.4953 97.7229C21.4442 97.7229 10.8643 105.047 10.8643 114.082C10.8643 123.117 21.4442 130.442 34.4953 130.442Z" stroke="#424A5D" stroke-width="0.75" stroke-linejoin="round"/>
<path d="M34.4953 122.696C47.5464 122.696 58.1264 115.372 58.1264 106.337C58.1264 97.3019 47.5464 89.9775 34.4953 89.9775C21.4442 89.9775 10.8643 97.3019 10.8643 106.337C10.8643 115.372 21.4442 122.696 34.4953 122.696Z" fill="white"/>
<path d="M34.4953 122.696C47.5464 122.696 58.1264 115.372 58.1264 106.337C58.1264 97.3019 47.5464 89.9775 34.4953 89.9775C21.4442 89.9775 10.8643 97.3019 10.8643 106.337C10.8643 115.372 21.4442 122.696 34.4953 122.696Z" stroke="#424A5D" stroke-width="0.75" stroke-linejoin="round"/>
<path d="M34.6211 130.41C34.6211 130.222 34.6211 130.033 34.642 129.845V122.759" stroke="#424A5D" stroke-width="0.75" stroke-linejoin="round"/>
<path d="M39.7578 129.887V122.33" stroke="#424A5D" stroke-width="0.75" stroke-linejoin="round"/>
<path d="M44.6426 128.798V121.241" stroke="#424A5D" stroke-width="0.75" stroke-linejoin="round"/>
<path d="M49.1299 126.977V119.378" stroke="#424A5D" stroke-width="0.75" stroke-linejoin="round"/>
<path d="M52.9697 124.423V116.783" stroke="#424A5D" stroke-width="0.75" stroke-linejoin="round"/>
<path d="M56.4531 120.122V112.523" stroke="#424A5D" stroke-width="0.75" stroke-linejoin="round"/>
<path d="M29.3906 129.887V122.33" stroke="#424A5D" stroke-width="0.75" stroke-linejoin="round"/>
<path d="M24.5166 128.798V121.241" stroke="#424A5D" stroke-width="0.75" stroke-linejoin="round"/>
<path d="M20.0176 126.977V119.378" stroke="#424A5D" stroke-width="0.75" stroke-linejoin="round"/>
<path d="M16.1895 124.423V116.783" stroke="#424A5D" stroke-width="0.75" stroke-linejoin="round"/>
<path d="M12.6953 120.122V112.523" stroke="#424A5D" stroke-width="0.75" stroke-linejoin="round"/>
<path d="M34.4951 118.981C44.5824 118.981 52.7598 113.32 52.7598 106.337C52.7598 99.3539 44.5824 93.6931 34.4951 93.6931C24.4078 93.6931 16.2305 99.3539 16.2305 106.337C16.2305 113.32 24.4078 118.981 34.4951 118.981Z" fill="white"/>
<path d="M34.4951 118.981C44.5824 118.981 52.7598 113.32 52.7598 106.337C52.7598 99.3539 44.5824 93.6931 34.4951 93.6931C24.4078 93.6931 16.2305 99.3539 16.2305 106.337C16.2305 113.32 24.4078 118.981 34.4951 118.981Z" stroke="#424A5D" stroke-width="0.75" stroke-linejoin="round"/>
<path d="M35.7923 101.679L31.0326 103.637L30.1957 103.176C29.3066 102.684 28.6684 102.381 28.2814 102.276C27.8943 102.171 27.5282 102.192 27.1621 102.339C26.8692 102.454 26.775 102.611 26.8692 102.81C26.9633 103.009 27.2458 103.228 27.7165 103.49C28.5115 103.93 29.2124 104.181 29.8296 104.233C30.4363 104.285 31.9113 104.275 34.2441 104.202C36.2316 104.128 37.6438 104.128 38.5016 104.17C39.349 104.223 40.3114 104.39 41.3679 104.683C42.4244 104.976 43.5124 105.437 44.6421 106.065C46.4414 107.059 47.4457 108.012 47.6549 108.922C47.8641 109.833 47.2783 110.681 45.887 111.487L47.7909 112.544L45.6045 113.444L43.6379 112.355C42.2361 112.805 40.6043 112.973 38.7527 112.868C36.9011 112.753 34.8508 112.073 32.5912 110.827L31.6079 110.283L36.3676 108.326L37.602 109.016C38.9619 109.77 39.8511 110.22 40.28 110.356C40.7089 110.503 41.1064 110.492 41.483 110.335C41.8072 110.199 41.9328 110.042 41.8595 109.843C41.7863 109.655 41.5248 109.435 41.075 109.184C39.9452 108.556 39.056 108.137 38.4179 107.928C37.7798 107.719 36.7442 107.635 35.2902 107.677C32.8737 107.739 31.1686 107.75 30.1957 107.719C29.2229 107.677 28.1245 107.509 26.9215 107.216C25.7185 106.913 24.5887 106.473 23.5531 105.897C22.0467 105.06 21.2621 104.233 21.2098 103.427C21.1575 102.621 21.8375 101.826 23.2392 101.051L21.6283 100.151L23.8146 99.251L25.4256 100.151C27.0889 99.6592 28.7103 99.4917 30.2898 99.6592C31.8694 99.8266 33.3967 100.329 34.8926 101.156C35.1019 101.271 35.4052 101.449 35.7923 101.7V101.679Z" fill="white"/>
<path d="M35.7923 101.679L31.0326 103.637L30.1957 103.176C29.3066 102.684 28.6684 102.381 28.2814 102.276C27.8943 102.171 27.5282 102.192 27.1621 102.339C26.8692 102.454 26.775 102.611 26.8692 102.81C26.9633 103.009 27.2458 103.228 27.7165 103.49C28.5115 103.93 29.2124 104.181 29.8296 104.233C30.4363 104.285 31.9113 104.275 34.2441 104.202C36.2316 104.128 37.6438 104.128 38.5016 104.17C39.349 104.223 40.3114 104.39 41.3679 104.683C42.4244 104.976 43.5124 105.437 44.6421 106.065C46.4414 107.059 47.4457 108.012 47.6549 108.922C47.8641 109.833 47.2783 110.681 45.887 111.487L47.7909 112.544L45.6045 113.444L43.6379 112.355C42.2361 112.805 40.6043 112.973 38.7527 112.868C36.9011 112.753 34.8508 112.073 32.5912 110.827L31.6079 110.283L36.3676 108.326L37.602 109.016C38.9619 109.77 39.8511 110.22 40.28 110.356C40.7089 110.503 41.1064 110.492 41.483 110.335C41.8072 110.199 41.9328 110.042 41.8595 109.843C41.7863 109.655 41.5248 109.435 41.075 109.184C39.9452 108.556 39.056 108.137 38.4179 107.928C37.7798 107.719 36.7442 107.635 35.2902 107.677C32.8737 107.739 31.1686 107.75 30.1957 107.719C29.2229 107.677 28.1245 107.509 26.9215 107.216C25.7185 106.913 24.5887 106.473 23.5531 105.897C22.0467 105.06 21.2621 104.233 21.2098 103.427C21.1575 102.621 21.8375 101.826 23.2392 101.051L21.6283 100.151L23.8146 99.251L25.4256 100.151C27.0889 99.6592 28.7103 99.4917 30.2898 99.6592C31.8694 99.8266 33.3967 100.329 34.8926 101.156C35.1019 101.271 35.4052 101.449 35.7923 101.7V101.679Z" stroke="#424A5D" stroke-width="0.75" stroke-linejoin="round"/>
<path d="M55.3019 92.9081C51.3164 87.7899 43.4916 84.3044 34.4953 84.3044C25.499 84.3044 17.6742 87.7899 13.6887 92.9081H11.0212L10.9165 99.9521C10.9061 100.193 10.8643 100.423 10.8643 100.664C10.8643 109.697 21.4402 117.023 34.4953 117.023C47.5504 117.023 58.1264 109.697 58.1264 100.664V92.9081H55.3019Z" fill="#FFD336"/>
<path d="M34.4953 117.023C47.5464 117.023 58.1264 109.699 58.1264 100.664C58.1264 91.6288 47.5464 84.3044 34.4953 84.3044C21.4442 84.3044 10.8643 91.6288 10.8643 100.664C10.8643 109.699 21.4442 117.023 34.4953 117.023Z" fill="white"/>
<path d="M55.3019 92.9081C51.3164 87.7899 43.4916 84.3044 34.4953 84.3044C25.499 84.3044 17.6742 87.7899 13.6887 92.9081H11.0212L10.9165 99.9521C10.9061 100.193 10.8643 100.423 10.8643 100.664C10.8643 109.697 21.4402 117.023 34.4953 117.023C47.5504 117.023 58.1264 109.697 58.1264 100.664V92.9081H55.3019Z" stroke="#424A5D" stroke-width="0.75" stroke-linejoin="round"/>
<path d="M34.4953 117.023C47.5464 117.023 58.1264 109.699 58.1264 100.664C58.1264 91.6288 47.5464 84.3044 34.4953 84.3044C21.4442 84.3044 10.8643 91.6288 10.8643 100.664C10.8643 109.699 21.4442 117.023 34.4953 117.023Z" stroke="#424A5D" stroke-width="0.75" stroke-linejoin="round"/>
<path d="M34.4953 109.267C47.5464 109.267 58.1264 101.943 58.1264 92.908C58.1264 83.873 47.5464 76.5486 34.4953 76.5486C21.4442 76.5486 10.8643 83.873 10.8643 92.908C10.8643 101.943 21.4442 109.267 34.4953 109.267Z" fill="white"/>
<path d="M34.4953 109.267C47.5464 109.267 58.1264 101.943 58.1264 92.908C58.1264 83.873 47.5464 76.5486 34.4953 76.5486C21.4442 76.5486 10.8643 83.873 10.8643 92.908C10.8643 101.943 21.4442 109.267 34.4953 109.267Z" stroke="#424A5D" stroke-width="0.75" stroke-linejoin="round"/>
<path d="M34.6211 116.992C34.6211 116.803 34.6211 116.615 34.642 116.427V109.341" stroke="#424A5D" stroke-width="0.75" stroke-linejoin="round"/>
<path d="M39.7578 116.458V108.901" stroke="#424A5D" stroke-width="0.75" stroke-linejoin="round"/>
<path d="M44.6426 115.369V107.812" stroke="#424A5D" stroke-width="0.75" stroke-linejoin="round"/>
<path d="M49.1299 113.548V105.96" stroke="#424A5D" stroke-width="0.75" stroke-linejoin="round"/>
<path d="M52.9697 110.994V103.354" stroke="#424A5D" stroke-width="0.75" stroke-linejoin="round"/>
<path d="M56.4531 106.693V99.0938" stroke="#424A5D" stroke-width="0.75" stroke-linejoin="round"/>
<path d="M29.3906 116.458V108.901" stroke="#424A5D" stroke-width="0.75" stroke-linejoin="round"/>
<path d="M24.5166 115.369V107.812" stroke="#424A5D" stroke-width="0.75" stroke-linejoin="round"/>
<path d="M20.0176 113.548V105.96" stroke="#424A5D" stroke-width="0.75" stroke-linejoin="round"/>
<path d="M16.1895 110.994V103.354" stroke="#424A5D" stroke-width="0.75" stroke-linejoin="round"/>
<path d="M12.6953 106.693V99.0938" stroke="#424A5D" stroke-width="0.75" stroke-linejoin="round"/>
<path d="M34.4951 105.552C44.5824 105.552 52.7598 99.8909 52.7598 92.9079C52.7598 85.925 44.5824 80.2642 34.4951 80.2642C24.4078 80.2642 16.2305 85.925 16.2305 92.9079C16.2305 99.8909 24.4078 105.552 34.4951 105.552Z" fill="white"/>
<path d="M34.4951 105.552C44.5824 105.552 52.7598 99.8909 52.7598 92.9079C52.7598 85.925 44.5824 80.2642 34.4951 80.2642C24.4078 80.2642 16.2305 85.925 16.2305 92.9079C16.2305 99.8909 24.4078 105.552 34.4951 105.552Z" stroke="#424A5D" stroke-width="0.75" stroke-linejoin="round"/>
<path d="M35.7923 88.2503L31.0326 90.2076L30.1957 89.747C29.3066 89.2551 28.6684 88.9516 28.2814 88.8469C27.8943 88.7422 27.5282 88.7632 27.1621 88.9097C26.8692 89.0248 26.775 89.1818 26.8692 89.3807C26.9633 89.5796 27.2458 89.7994 27.7165 90.061C28.5115 90.5006 29.2124 90.7518 29.8296 90.8042C30.4363 90.8565 31.9113 90.846 34.2441 90.7728C36.2316 90.6995 37.6438 90.6995 38.5016 90.7414C39.349 90.7937 40.3114 90.9612 41.3679 91.2542C42.4244 91.5473 43.5124 92.0078 44.6421 92.6358C46.4414 93.6302 47.4457 94.5826 47.6549 95.4933C47.8641 96.4039 47.2783 97.2517 45.887 98.0576L47.7909 99.1147L45.6045 100.015L43.6379 98.9263C42.2361 99.3764 40.6043 99.5439 38.7527 99.4392C36.9011 99.3241 34.8508 98.6437 32.5912 97.3982L31.6079 96.8539L36.3676 94.8966L37.602 95.5874C38.9619 96.341 39.8511 96.7911 40.28 96.9272C40.7089 97.0737 41.1064 97.0633 41.483 96.9063C41.8072 96.7702 41.9328 96.6132 41.8595 96.4143C41.7863 96.2259 41.5248 96.0061 41.075 95.7549C39.9452 95.1269 39.056 94.7082 38.4179 94.4989C37.7798 94.2896 36.7442 94.2058 35.2902 94.2477C32.8737 94.3105 31.1686 94.321 30.1957 94.2896C29.2229 94.2477 28.1245 94.0802 26.9215 93.7872C25.7185 93.4836 24.5887 93.044 23.5531 92.4684C22.0467 91.631 21.2621 90.8042 21.2098 89.9982C21.1575 89.1923 21.8375 88.3968 23.2392 87.6223L21.6283 86.7222L23.8146 85.822L25.4256 86.7222C27.0889 86.2302 28.7103 86.0628 30.2898 86.2302C31.8694 86.3977 33.3967 86.9001 34.8926 87.727C35.1019 87.8421 35.4052 88.02 35.7923 88.2712V88.2503Z" fill="white"/>
<path d="M35.7923 88.2503L31.0326 90.2076L30.1957 89.747C29.3066 89.2551 28.6684 88.9516 28.2814 88.8469C27.8943 88.7422 27.5282 88.7632 27.1621 88.9097C26.8692 89.0248 26.775 89.1818 26.8692 89.3807C26.9633 89.5796 27.2458 89.7994 27.7165 90.061C28.5115 90.5006 29.2124 90.7518 29.8296 90.8042C30.4363 90.8565 31.9113 90.846 34.2441 90.7728C36.2316 90.6995 37.6438 90.6995 38.5016 90.7414C39.349 90.7937 40.3114 90.9612 41.3679 91.2542C42.4244 91.5473 43.5124 92.0078 44.6421 92.6358C46.4414 93.6302 47.4457 94.5826 47.6549 95.4933C47.8641 96.4039 47.2783 97.2517 45.887 98.0576L47.7909 99.1147L45.6045 100.015L43.6379 98.9263C42.2361 99.3764 40.6043 99.5439 38.7527 99.4392C36.9011 99.3241 34.8508 98.6437 32.5912 97.3982L31.6079 96.8539L36.3676 94.8966L37.602 95.5874C38.9619 96.341 39.8511 96.7911 40.28 96.9272C40.7089 97.0737 41.1064 97.0633 41.483 96.9063C41.8072 96.7702 41.9328 96.6132 41.8595 96.4143C41.7863 96.2259 41.5248 96.0061 41.075 95.7549C39.9452 95.1269 39.056 94.7082 38.4179 94.4989C37.7798 94.2896 36.7442 94.2058 35.2902 94.2477C32.8737 94.3105 31.1686 94.321 30.1957 94.2896C29.2229 94.2477 28.1245 94.0802 26.9215 93.7872C25.7185 93.4836 24.5887 93.044 23.5531 92.4684C22.0467 91.631 21.2621 90.8042 21.2098 89.9982C21.1575 89.1923 21.8375 88.3968 23.2392 87.6223L21.6283 86.7222L23.8146 85.822L25.4256 86.7222C27.0889 86.2302 28.7103 86.0628 30.2898 86.2302C31.8694 86.3977 33.3967 86.9001 34.8926 87.727C35.1019 87.8421 35.4052 88.02 35.7923 88.2712V88.2503Z" stroke="#424A5D" stroke-width="0.75" stroke-linejoin="round"/>
<path d="M55.3019 77.7943C51.3164 72.6761 43.4916 69.1907 34.4953 69.1907C25.499 69.1907 17.6742 72.6761 13.6887 77.7943H11.0212L10.9165 84.8384C10.9061 85.0791 10.8643 85.3094 10.8643 85.5501C10.8643 94.5829 21.4402 101.91 34.4953 101.91C47.5504 101.91 58.1264 94.5829 58.1264 85.5501V77.7943H55.3019Z" fill="#FFD336"/>
<path d="M34.4953 101.899C47.5464 101.899 58.1264 94.5747 58.1264 85.5396C58.1264 76.5046 47.5464 69.1802 34.4953 69.1802C21.4442 69.1802 10.8643 76.5046 10.8643 85.5396C10.8643 94.5747 21.4442 101.899 34.4953 101.899Z" fill="white"/>
<path d="M55.3019 77.7943C51.3164 72.6761 43.4916 69.1907 34.4953 69.1907C25.499 69.1907 17.6742 72.6761 13.6887 77.7943H11.0212L10.9165 84.8384C10.9061 85.0791 10.8643 85.3094 10.8643 85.5501C10.8643 94.5829 21.4402 101.91 34.4953 101.91C47.5504 101.91 58.1264 94.5829 58.1264 85.5501V77.7943H55.3019Z" stroke="#424A5D" stroke-width="0.75" stroke-linejoin="round"/>
<path d="M34.4953 101.899C47.5464 101.899 58.1264 94.5747 58.1264 85.5396C58.1264 76.5046 47.5464 69.1802 34.4953 69.1802C21.4442 69.1802 10.8643 76.5046 10.8643 85.5396C10.8643 94.5747 21.4442 101.899 34.4953 101.899Z" stroke="#424A5D" stroke-width="0.75" stroke-linejoin="round"/>
<path d="M34.4953 94.1537C47.5464 94.1537 58.1264 86.8293 58.1264 77.7943C58.1264 68.7592 47.5464 61.4348 34.4953 61.4348C21.4442 61.4348 10.8643 68.7592 10.8643 77.7943C10.8643 86.8293 21.4442 94.1537 34.4953 94.1537Z" fill="white"/>
<path d="M34.4953 94.1537C47.5464 94.1537 58.1264 86.8293 58.1264 77.7943C58.1264 68.7592 47.5464 61.4348 34.4953 61.4348C21.4442 61.4348 10.8643 68.7592 10.8643 77.7943C10.8643 86.8293 21.4442 94.1537 34.4953 94.1537Z" stroke="#424A5D" stroke-width="0.75" stroke-linejoin="round"/>
<path d="M34.6211 101.867C34.6211 101.679 34.6211 101.491 34.642 101.302V94.2163" stroke="#424A5D" stroke-width="0.75" stroke-linejoin="round"/>
<path d="M39.7578 101.344V93.7874" stroke="#424A5D" stroke-width="0.75" stroke-linejoin="round"/>
<path d="M44.6426 100.256V92.6987" stroke="#424A5D" stroke-width="0.75" stroke-linejoin="round"/>
<path d="M49.1299 98.4345V90.8357" stroke="#424A5D" stroke-width="0.75" stroke-linejoin="round"/>
<path d="M52.9697 95.8807V88.24" stroke="#424A5D" stroke-width="0.75" stroke-linejoin="round"/>
<path d="M56.4531 91.5788V83.98" stroke="#424A5D" stroke-width="0.75" stroke-linejoin="round"/>
<path d="M29.3906 101.344V93.7874" stroke="#424A5D" stroke-width="0.75" stroke-linejoin="round"/>
<path d="M24.5166 100.256V92.6987" stroke="#424A5D" stroke-width="0.75" stroke-linejoin="round"/>
<path d="M20.0176 98.4345V90.8357" stroke="#424A5D" stroke-width="0.75" stroke-linejoin="round"/>
<path d="M16.1895 95.8807V88.24" stroke="#424A5D" stroke-width="0.75" stroke-linejoin="round"/>
<path d="M12.6953 91.5788V83.98" stroke="#424A5D" stroke-width="0.75" stroke-linejoin="round"/>
<path d="M34.4951 90.4379C44.5824 90.4379 52.7598 84.7771 52.7598 77.7942C52.7598 70.8112 44.5824 65.1504 34.4951 65.1504C24.4078 65.1504 16.2305 70.8112 16.2305 77.7942C16.2305 84.7771 24.4078 90.4379 34.4951 90.4379Z" fill="white"/>
<path d="M34.4951 90.4379C44.5824 90.4379 52.7598 84.7771 52.7598 77.7942C52.7598 70.8112 44.5824 65.1504 34.4951 65.1504C24.4078 65.1504 16.2305 70.8112 16.2305 77.7942C16.2305 84.7771 24.4078 90.4379 34.4951 90.4379Z" stroke="#424A5D" stroke-width="0.75" stroke-linejoin="round"/>
<path d="M35.7923 73.1365L31.0326 75.0938L30.1957 74.6333C29.3066 74.1413 28.6684 73.8378 28.2814 73.7331C27.8943 73.6285 27.5282 73.6494 27.1621 73.7959C26.8692 73.9111 26.775 74.0681 26.8692 74.2669C26.9633 74.4658 27.2458 74.6856 27.7165 74.9473C28.5115 75.3869 29.2124 75.6381 29.8296 75.6904C30.4363 75.7427 31.9113 75.7323 34.2441 75.659C36.2316 75.5857 37.6438 75.5857 38.5016 75.6276C39.349 75.6799 40.3114 75.8474 41.3679 76.1405C42.4244 76.4335 43.5124 76.8941 44.6421 77.5221C46.4414 78.5164 47.4457 79.4689 47.6549 80.3795C47.8641 81.2901 47.2783 82.1379 45.887 82.9438L47.7909 84.0009L45.6045 84.9011L43.6379 83.8125C42.2361 84.2626 40.6043 84.4301 38.7527 84.3254C36.9011 84.2103 34.8508 83.5299 32.5912 82.2844L31.6079 81.7401L36.3676 79.7829L37.602 80.4737C38.9619 81.2273 39.8511 81.6773 40.28 81.8134C40.7089 81.9599 41.1064 81.9495 41.483 81.7925C41.8072 81.6564 41.9328 81.4994 41.8595 81.3005C41.7863 81.1121 41.5248 80.8923 41.075 80.6411C39.9452 80.0131 39.056 79.5945 38.4179 79.3851C37.7798 79.1758 36.7442 79.0921 35.2902 79.1339C32.8737 79.1967 31.1686 79.2072 30.1957 79.1758C29.2229 79.1339 28.1245 78.9665 26.9215 78.6734C25.7185 78.3699 24.5887 77.9303 23.5531 77.3546C22.0467 76.5173 21.2621 75.6904 21.2098 74.8845C21.1575 74.0785 21.8375 73.2831 23.2392 72.5085L21.6283 71.6084L23.8146 70.7083L25.4256 71.6084C27.0889 71.1164 28.7103 70.949 30.2898 71.1165C31.8694 71.2839 33.3967 71.7863 34.8926 72.6132C35.1019 72.7283 35.4052 72.9063 35.7923 73.1575V73.1365Z" fill="white"/>
<path d="M35.7923 73.1365L31.0326 75.0938L30.1957 74.6333C29.3066 74.1413 28.6684 73.8378 28.2814 73.7331C27.8943 73.6285 27.5282 73.6494 27.1621 73.7959C26.8692 73.9111 26.775 74.0681 26.8692 74.2669C26.9633 74.4658 27.2458 74.6856 27.7165 74.9473C28.5115 75.3869 29.2124 75.6381 29.8296 75.6904C30.4363 75.7427 31.9113 75.7323 34.2441 75.659C36.2316 75.5857 37.6438 75.5857 38.5016 75.6276C39.349 75.6799 40.3114 75.8474 41.3679 76.1405C42.4244 76.4335 43.5124 76.8941 44.6421 77.5221C46.4414 78.5164 47.4457 79.4689 47.6549 80.3795C47.8641 81.2901 47.2783 82.1379 45.887 82.9438L47.7909 84.0009L45.6045 84.9011L43.6379 83.8125C42.2361 84.2626 40.6043 84.4301 38.7527 84.3254C36.9011 84.2103 34.8508 83.5299 32.5912 82.2844L31.6079 81.7401L36.3676 79.7829L37.602 80.4737C38.9619 81.2273 39.8511 81.6773 40.28 81.8134C40.7089 81.9599 41.1064 81.9495 41.483 81.7925C41.8072 81.6564 41.9328 81.4994 41.8595 81.3005C41.7863 81.1121 41.5248 80.8923 41.075 80.6411C39.9452 80.0131 39.056 79.5945 38.4179 79.3851C37.7798 79.1758 36.7442 79.0921 35.2902 79.1339C32.8737 79.1967 31.1686 79.2072 30.1957 79.1758C29.2229 79.1339 28.1245 78.9665 26.9215 78.6734C25.7185 78.3699 24.5887 77.9303 23.5531 77.3546C22.0467 76.5173 21.2621 75.6904 21.2098 74.8845C21.1575 74.0785 21.8375 73.2831 23.2392 72.5085L21.6283 71.6084L23.8146 70.7083L25.4256 71.6084C27.0889 71.1164 28.7103 70.949 30.2898 71.1165C31.8694 71.2839 33.3967 71.7863 34.8926 72.6132C35.1019 72.7283 35.4052 72.9063 35.7923 73.1575V73.1365Z" stroke="#424A5D" stroke-width="0.75" stroke-linejoin="round"/>
<path d="M55.3019 62.9525C51.3164 57.8343 43.4916 54.3489 34.4953 54.3489C25.499 54.3489 17.6742 57.8343 13.6887 62.9525H11.0212L10.9165 69.9966C10.9061 70.2373 10.8643 70.4676 10.8643 70.7083C10.8643 79.7411 21.4402 87.0678 34.4953 87.0678C47.5504 87.0678 58.1264 79.7411 58.1264 70.7083V62.9525H55.3019Z" fill="#FFD336"/>
<path d="M34.4953 87.0678C47.5464 87.0678 58.1264 79.7434 58.1264 70.7083C58.1264 61.6733 47.5464 54.3489 34.4953 54.3489C21.4442 54.3489 10.8643 61.6733 10.8643 70.7083C10.8643 79.7434 21.4442 87.0678 34.4953 87.0678Z" fill="white"/>
<path d="M55.3019 62.9525C51.3164 57.8343 43.4916 54.3489 34.4953 54.3489C25.499 54.3489 17.6742 57.8343 13.6887 62.9525H11.0212L10.9165 69.9966C10.9061 70.2373 10.8643 70.4676 10.8643 70.7083C10.8643 79.7411 21.4402 87.0678 34.4953 87.0678C47.5504 87.0678 58.1264 79.7411 58.1264 70.7083V62.9525H55.3019Z" stroke="#424A5D" stroke-width="0.75" stroke-linejoin="round"/>
<path d="M34.4953 87.0678C47.5464 87.0678 58.1264 79.7434 58.1264 70.7083C58.1264 61.6733 47.5464 54.3489 34.4953 54.3489C21.4442 54.3489 10.8643 61.6733 10.8643 70.7083C10.8643 79.7434 21.4442 87.0678 34.4953 87.0678Z" stroke="#424A5D" stroke-width="0.75" stroke-linejoin="round"/>
<path d="M34.4953 79.3119C47.5464 79.3119 58.1264 71.9875 58.1264 62.9525C58.1264 53.9174 47.5464 46.593 34.4953 46.593C21.4442 46.593 10.8643 53.9174 10.8643 62.9525C10.8643 71.9875 21.4442 79.3119 34.4953 79.3119Z" fill="white"/>
<path d="M34.4953 79.3119C47.5464 79.3119 58.1264 71.9875 58.1264 62.9525C58.1264 53.9174 47.5464 46.593 34.4953 46.593C21.4442 46.593 10.8643 53.9174 10.8643 62.9525C10.8643 71.9875 21.4442 79.3119 34.4953 79.3119Z" stroke="#424A5D" stroke-width="0.75" stroke-linejoin="round"/>
<path d="M34.6211 87.0362C34.6211 86.8478 34.6211 86.6594 34.642 86.471V79.385" stroke="#424A5D" stroke-width="0.75" stroke-linejoin="round"/>
<path d="M39.7578 86.5025V78.9456" stroke="#424A5D" stroke-width="0.75" stroke-linejoin="round"/>
<path d="M44.6426 85.4139V77.8569" stroke="#424A5D" stroke-width="0.75" stroke-linejoin="round"/>
<path d="M49.1299 83.5927V76.0044" stroke="#424A5D" stroke-width="0.75" stroke-linejoin="round"/>
<path d="M52.9697 81.0389V73.3982" stroke="#424A5D" stroke-width="0.75" stroke-linejoin="round"/>
<path d="M56.4531 76.737V69.1382" stroke="#424A5D" stroke-width="0.75" stroke-linejoin="round"/>
<path d="M29.3906 86.5025V78.9456" stroke="#424A5D" stroke-width="0.75" stroke-linejoin="round"/>
<path d="M24.5166 85.4139V77.8569" stroke="#424A5D" stroke-width="0.75" stroke-linejoin="round"/>
<path d="M20.0176 83.5927V76.0044" stroke="#424A5D" stroke-width="0.75" stroke-linejoin="round"/>
<path d="M16.1895 81.0389V73.3982" stroke="#424A5D" stroke-width="0.75" stroke-linejoin="round"/>
<path d="M12.6953 76.737V69.1382" stroke="#424A5D" stroke-width="0.75" stroke-linejoin="round"/>
<path d="M34.4951 75.5961C44.5824 75.5961 52.7598 69.9353 52.7598 62.9524C52.7598 55.9694 44.5824 50.3086 34.4951 50.3086C24.4078 50.3086 16.2305 55.9694 16.2305 62.9524C16.2305 69.9353 24.4078 75.5961 34.4951 75.5961Z" fill="white"/>
<path d="M34.4951 75.5961C44.5824 75.5961 52.7598 69.9353 52.7598 62.9524C52.7598 55.9694 44.5824 50.3086 34.4951 50.3086C24.4078 50.3086 16.2305 55.9694 16.2305 62.9524C16.2305 69.9353 24.4078 75.5961 34.4951 75.5961Z" stroke="#424A5D" stroke-width="0.75" stroke-linejoin="round"/>
<path d="M35.7923 58.2947L31.0326 60.252L30.1957 59.7915C29.3066 59.2995 28.6684 58.996 28.2814 58.8913C27.8943 58.7867 27.5282 58.8076 27.1621 58.9541C26.8692 59.0693 26.775 59.2263 26.8692 59.4251C26.9633 59.624 27.2458 59.8438 27.7165 60.1055C28.5115 60.5451 29.2124 60.7963 29.8296 60.8486C30.4363 60.9009 31.9113 60.8905 34.2441 60.8172C36.2316 60.7439 37.6438 60.7439 38.5016 60.7858C39.349 60.8381 40.3114 61.0056 41.3679 61.2987C42.4244 61.5917 43.5124 62.0523 44.6421 62.6803C46.4414 63.6746 47.4457 64.6271 47.6549 65.5377C47.8641 66.4483 47.2783 67.2961 45.887 68.102L47.7909 69.1592L45.6045 70.0593L43.6379 68.9708C42.2361 69.4208 40.6043 69.5883 38.7527 69.4836C36.9011 69.3685 34.8508 68.6882 32.5912 67.4426L31.6079 66.8983L36.3676 64.9411L37.602 65.6319C38.9619 66.3855 39.8511 66.8355 40.28 66.9716C40.7089 67.1181 41.1064 67.1077 41.483 66.9507C41.8072 66.8146 41.9328 66.6576 41.8595 66.4587C41.7863 66.2703 41.5248 66.0505 41.075 65.7993C39.9452 65.1713 39.056 64.7527 38.4179 64.5433C37.7798 64.334 36.7442 64.2503 35.2902 64.2921C32.8737 64.3549 31.1686 64.3654 30.1957 64.334C29.2229 64.2921 28.1245 64.1247 26.9215 63.8316C25.7185 63.5281 24.5887 63.0885 23.5531 62.5128C22.0467 61.6755 21.2621 60.8486 21.2098 60.0427C21.1575 59.2367 21.8375 58.4413 23.2392 57.6667L21.6283 56.7666L23.8146 55.8665L25.4256 56.7666C27.0889 56.2747 28.7103 56.1072 30.2898 56.2747C31.8694 56.4421 33.3967 56.9445 34.8926 57.7714C35.1019 57.8865 35.4052 58.0645 35.7923 58.3157V58.2947Z" fill="white"/>
<path d="M35.7923 58.2947L31.0326 60.252L30.1957 59.7915C29.3066 59.2995 28.6684 58.996 28.2814 58.8913C27.8943 58.7867 27.5282 58.8076 27.1621 58.9541C26.8692 59.0693 26.775 59.2263 26.8692 59.4251C26.9633 59.624 27.2458 59.8438 27.7165 60.1055C28.5115 60.5451 29.2124 60.7963 29.8296 60.8486C30.4363 60.9009 31.9113 60.8905 34.2441 60.8172C36.2316 60.7439 37.6438 60.7439 38.5016 60.7858C39.349 60.8381 40.3114 61.0056 41.3679 61.2987C42.4244 61.5917 43.5124 62.0523 44.6421 62.6803C46.4414 63.6746 47.4457 64.6271 47.6549 65.5377C47.8641 66.4483 47.2783 67.2961 45.887 68.102L47.7909 69.1592L45.6045 70.0593L43.6379 68.9708C42.2361 69.4208 40.6043 69.5883 38.7527 69.4836C36.9011 69.3685 34.8508 68.6882 32.5912 67.4426L31.6079 66.8983L36.3676 64.9411L37.602 65.6319C38.9619 66.3855 39.8511 66.8355 40.28 66.9716C40.7089 67.1181 41.1064 67.1077 41.483 66.9507C41.8072 66.8146 41.9328 66.6576 41.8595 66.4587C41.7863 66.2703 41.5248 66.0505 41.075 65.7993C39.9452 65.1713 39.056 64.7527 38.4179 64.5433C37.7798 64.334 36.7442 64.2503 35.2902 64.2921C32.8737 64.3549 31.1686 64.3654 30.1957 64.334C29.2229 64.2921 28.1245 64.1247 26.9215 63.8316C25.7185 63.5281 24.5887 63.0885 23.5531 62.5128C22.0467 61.6755 21.2621 60.8486 21.2098 60.0427C21.1575 59.2367 21.8375 58.4413 23.2392 57.6667L21.6283 56.7666L23.8146 55.8665L25.4256 56.7666C27.0889 56.2747 28.7103 56.1072 30.2898 56.2747C31.8694 56.4421 33.3967 56.9445 34.8926 57.7714C35.1019 57.8865 35.4052 58.0645 35.7923 58.3157V58.2947Z" stroke="#424A5D" stroke-width="0.75" stroke-linejoin="round"/>
<path d="M93.0031 128.662C89.0175 123.544 81.1928 120.059 72.1964 120.059C63.2001 120.059 55.3755 123.544 51.3899 128.662H48.7223L48.6177 135.707C48.6073 135.947 48.5654 136.178 48.5654 136.418C48.5654 145.451 59.1413 152.778 72.1964 152.778C85.2516 152.778 95.8275 145.451 95.8275 136.418V128.662H93.0031Z" fill="#FFD336"/>
<path d="M72.1964 152.767C85.2475 152.767 95.8275 145.443 95.8275 136.408C95.8275 127.373 85.2475 120.048 72.1964 120.048C59.1454 120.048 48.5654 127.373 48.5654 136.408C48.5654 145.443 59.1454 152.767 72.1964 152.767Z" fill="white"/>
<path d="M93.0031 128.662C89.0175 123.544 81.1928 120.059 72.1964 120.059C63.2001 120.059 55.3755 123.544 51.3899 128.662H48.7223L48.6177 135.707C48.6073 135.947 48.5654 136.178 48.5654 136.418C48.5654 145.451 59.1413 152.778 72.1964 152.778C85.2516 152.778 95.8275 145.451 95.8275 136.418V128.662H93.0031Z" stroke="#424A5D" stroke-width="0.75" stroke-linejoin="round"/>
<path d="M72.1964 152.767C85.2475 152.767 95.8275 145.443 95.8275 136.408C95.8275 127.373 85.2475 120.048 72.1964 120.048C59.1454 120.048 48.5654 127.373 48.5654 136.408C48.5654 145.443 59.1454 152.767 72.1964 152.767Z" stroke="#424A5D" stroke-width="0.75" stroke-linejoin="round"/>
<path d="M72.1964 145.022C85.2475 145.022 95.8275 137.697 95.8275 128.662C95.8275 119.627 85.2475 112.303 72.1964 112.303C59.1454 112.303 48.5654 119.627 48.5654 128.662C48.5654 137.697 59.1454 145.022 72.1964 145.022Z" fill="white"/>
<path d="M72.1964 145.022C85.2475 145.022 95.8275 137.697 95.8275 128.662C95.8275 119.627 85.2475 112.303 72.1964 112.303C59.1454 112.303 48.5654 119.627 48.5654 128.662C48.5654 137.697 59.1454 145.022 72.1964 145.022Z" stroke="#424A5D" stroke-width="0.75" stroke-linejoin="round"/>
<path d="M72.332 152.736C72.332 152.547 72.3321 152.359 72.353 152.17V145.084" stroke="#424A5D" stroke-width="0.75" stroke-linejoin="round"/>
<path d="M77.4688 152.212V144.656" stroke="#424A5D" stroke-width="0.75" stroke-linejoin="round"/>
<path d="M82.3428 151.124V143.567" stroke="#424A5D" stroke-width="0.75" stroke-linejoin="round"/>
<path d="M86.8408 149.303V141.704" stroke="#424A5D" stroke-width="0.75" stroke-linejoin="round"/>
<path d="M90.6699 146.749V139.108" stroke="#424A5D" stroke-width="0.75" stroke-linejoin="round"/>
<path d="M94.1641 142.447V134.848" stroke="#424A5D" stroke-width="0.75" stroke-linejoin="round"/>
<path d="M67.1016 152.212V144.656" stroke="#424A5D" stroke-width="0.75" stroke-linejoin="round"/>
<path d="M62.2168 151.124V143.567" stroke="#424A5D" stroke-width="0.75" stroke-linejoin="round"/>
<path d="M57.7285 149.303V141.704" stroke="#424A5D" stroke-width="0.75" stroke-linejoin="round"/>
<path d="M53.8896 146.749V139.108" stroke="#424A5D" stroke-width="0.75" stroke-linejoin="round"/>
<path d="M50.4062 142.447V134.848" stroke="#424A5D" stroke-width="0.75" stroke-linejoin="round"/>
<path d="M72.1962 141.306C82.2835 141.306 90.4609 135.645 90.4609 128.662C90.4609 121.679 82.2835 116.019 72.1962 116.019C62.109 116.019 53.9316 121.679 53.9316 128.662C53.9316 135.645 62.109 141.306 72.1962 141.306Z" fill="white"/>
<path d="M72.1962 141.306C82.2835 141.306 90.4609 135.645 90.4609 128.662C90.4609 121.679 82.2835 116.019 72.1962 116.019C62.109 116.019 53.9316 121.679 53.9316 128.662C53.9316 135.645 62.109 141.306 72.1962 141.306Z" stroke="#424A5D" stroke-width="0.75" stroke-linejoin="round"/>
<path d="M73.5042 124.005L68.7445 125.962L67.9076 125.501C67.0185 125.009 66.3803 124.706 65.9933 124.601C65.6062 124.497 65.2401 124.518 64.874 124.664C64.5811 124.779 64.487 124.936 64.5811 125.135C64.6752 125.334 64.9577 125.554 65.4284 125.815C66.2234 126.255 66.9243 126.506 67.5415 126.559C68.1483 126.611 69.6232 126.6 71.956 126.527C73.9435 126.454 75.3558 126.454 76.2136 126.496C77.0609 126.548 78.0233 126.716 79.0798 127.009C80.1364 127.302 81.2243 127.762 82.3541 128.39C84.1533 129.385 85.1576 130.337 85.3668 131.248C85.576 132.158 84.9902 133.006 83.5989 133.812L85.5028 134.869L83.3164 135.769L81.3498 134.681C79.948 135.131 78.3162 135.298 76.4646 135.194C74.613 135.078 72.5627 134.398 70.3032 133.153L69.3198 132.608L74.0796 130.651L75.3139 131.342C76.6738 132.095 77.563 132.546 77.9919 132.682C78.4208 132.828 78.8183 132.818 79.1949 132.661C79.5192 132.525 79.6447 132.368 79.5715 132.169C79.4983 131.98 79.2368 131.761 78.7869 131.509C77.6572 130.881 76.768 130.463 76.1298 130.253C75.4917 130.044 74.4561 129.96 73.0021 130.002C70.5856 130.065 68.8805 130.075 67.9076 130.044C66.9348 130.002 65.8364 129.835 64.6334 129.542C63.4304 129.238 62.3007 128.798 61.265 128.223C59.7587 127.385 58.9741 126.559 58.9217 125.753C58.8694 124.947 59.5494 124.151 60.9512 123.377L59.3402 122.477L61.5266 121.576L63.1375 122.477C64.8008 121.985 66.4222 121.817 68.0018 121.985C69.5814 122.152 71.1086 122.654 72.6045 123.481C72.8138 123.596 73.1171 123.774 73.5042 124.026V124.005Z" fill="white"/>
<path d="M73.5042 124.005L68.7445 125.962L67.9076 125.501C67.0185 125.009 66.3803 124.706 65.9933 124.601C65.6062 124.497 65.2401 124.518 64.874 124.664C64.5811 124.779 64.487 124.936 64.5811 125.135C64.6752 125.334 64.9577 125.554 65.4284 125.815C66.2234 126.255 66.9243 126.506 67.5415 126.559C68.1483 126.611 69.6232 126.6 71.956 126.527C73.9435 126.454 75.3558 126.454 76.2136 126.496C77.0609 126.548 78.0233 126.716 79.0798 127.009C80.1364 127.302 81.2243 127.762 82.3541 128.39C84.1533 129.385 85.1576 130.337 85.3668 131.248C85.576 132.158 84.9902 133.006 83.5989 133.812L85.5028 134.869L83.3164 135.769L81.3498 134.681C79.948 135.131 78.3162 135.298 76.4646 135.194C74.613 135.078 72.5627 134.398 70.3031 133.153L69.3198 132.608L74.0796 130.651L75.3139 131.342C76.6738 132.095 77.563 132.546 77.9919 132.682C78.4208 132.828 78.8183 132.818 79.1949 132.661C79.5192 132.525 79.6447 132.368 79.5715 132.169C79.4983 131.98 79.2368 131.761 78.7869 131.509C77.6572 130.881 76.768 130.463 76.1298 130.253C75.4917 130.044 74.4561 129.96 73.0021 130.002C70.5856 130.065 68.8805 130.075 67.9076 130.044C66.9348 130.002 65.8364 129.835 64.6334 129.542C63.4304 129.238 62.3007 128.798 61.265 128.223C59.7587 127.385 58.9741 126.559 58.9217 125.753C58.8694 124.947 59.5494 124.151 60.9512 123.377L59.3402 122.477L61.5266 121.576L63.1375 122.477C64.8008 121.985 66.4222 121.817 68.0018 121.985C69.5814 122.152 71.1086 122.654 72.6045 123.481C72.8138 123.596 73.1171 123.774 73.5042 124.026V124.005Z" stroke="#424A5D" stroke-width="0.75" stroke-linejoin="round"/>
<path d="M93.0031 115.234C89.0175 110.116 81.1928 106.63 72.1964 106.63C63.2001 106.63 55.3755 110.116 51.3899 115.234H48.7223L48.6177 122.278C48.6073 122.519 48.5654 122.749 48.5654 122.99C48.5654 132.022 59.1413 139.349 72.1964 139.349C85.2516 139.349 95.8275 132.022 95.8275 122.99V115.234H93.0031Z" fill="#FFD336"/>
<path d="M72.1964 139.349C85.2475 139.349 95.8275 132.025 95.8275 122.99C95.8275 113.954 85.2475 106.63 72.1964 106.63C59.1454 106.63 48.5654 113.954 48.5654 122.99C48.5654 132.025 59.1454 139.349 72.1964 139.349Z" fill="white"/>
<path d="M93.0031 115.234C89.0175 110.116 81.1928 106.63 72.1964 106.63C63.2001 106.63 55.3755 110.116 51.3899 115.234H48.7223L48.6177 122.278C48.6073 122.519 48.5654 122.749 48.5654 122.99C48.5654 132.022 59.1413 139.349 72.1964 139.349C85.2516 139.349 95.8275 132.022 95.8275 122.99V115.234H93.0031Z" stroke="#424A5D" stroke-width="0.75" stroke-linejoin="round"/>
<path d="M72.1964 139.349C85.2475 139.349 95.8275 132.025 95.8275 122.99C95.8275 113.954 85.2475 106.63 72.1964 106.63C59.1454 106.63 48.5654 113.954 48.5654 122.99C48.5654 132.025 59.1454 139.349 72.1964 139.349Z" stroke="#424A5D" stroke-width="0.75" stroke-linejoin="round"/>
<path d="M72.1964 131.593C85.2475 131.593 95.8275 124.269 95.8275 115.234C95.8275 106.199 85.2475 98.8743 72.1964 98.8743C59.1454 98.8743 48.5654 106.199 48.5654 115.234C48.5654 124.269 59.1454 131.593 72.1964 131.593Z" fill="white"/>
<path d="M72.1964 131.593C85.2475 131.593 95.8275 124.269 95.8275 115.234C95.8275 106.199 85.2475 98.8743 72.1964 98.8743C59.1454 98.8743 48.5654 106.199 48.5654 115.234C48.5654 124.269 59.1454 131.593 72.1964 131.593Z" stroke="#424A5D" stroke-width="0.75" stroke-linejoin="round"/>
<path d="M72.332 139.317C72.332 139.129 72.3321 138.941 72.353 138.752V131.666" stroke="#424A5D" stroke-width="0.75" stroke-linejoin="round"/>
<path d="M77.4688 138.784V131.227" stroke="#424A5D" stroke-width="0.75" stroke-linejoin="round"/>
<path d="M82.3428 137.695V130.138" stroke="#424A5D" stroke-width="0.75" stroke-linejoin="round"/>
<path d="M86.8408 135.874V128.286" stroke="#424A5D" stroke-width="0.75" stroke-linejoin="round"/>
<path d="M90.6699 133.32V125.679" stroke="#424A5D" stroke-width="0.75" stroke-linejoin="round"/>
<path d="M94.1641 129.018V121.419" stroke="#424A5D" stroke-width="0.75" stroke-linejoin="round"/>
<path d="M67.1016 138.784V131.227" stroke="#424A5D" stroke-width="0.75" stroke-linejoin="round"/>
<path d="M62.2168 137.695V130.138" stroke="#424A5D" stroke-width="0.75" stroke-linejoin="round"/>
<path d="M57.7285 135.874V128.286" stroke="#424A5D" stroke-width="0.75" stroke-linejoin="round"/>
<path d="M53.8896 133.32V125.679" stroke="#424A5D" stroke-width="0.75" stroke-linejoin="round"/>
<path d="M50.4062 129.018V121.419" stroke="#424A5D" stroke-width="0.75" stroke-linejoin="round"/>
<path d="M72.1962 127.877C82.2835 127.877 90.4609 122.217 90.4609 115.234C90.4609 108.251 82.2835 102.59 72.1962 102.59C62.109 102.59 53.9316 108.251 53.9316 115.234C53.9316 122.217 62.109 127.877 72.1962 127.877Z" fill="white"/>
<path d="M72.1962 127.877C82.2835 127.877 90.4609 122.217 90.4609 115.234C90.4609 108.251 82.2835 102.59 72.1962 102.59C62.109 102.59 53.9316 108.251 53.9316 115.234C53.9316 122.217 62.109 127.877 72.1962 127.877Z" stroke="#424A5D" stroke-width="0.75" stroke-linejoin="round"/>
<path d="M73.5042 110.576L68.7445 112.533L67.9076 112.073C67.0185 111.581 66.3803 111.277 65.9933 111.173C65.6062 111.068 65.2401 111.089 64.874 111.235C64.5811 111.351 64.487 111.508 64.5811 111.706C64.6752 111.905 64.9577 112.125 65.4284 112.387C66.2234 112.826 66.9243 113.078 67.5415 113.13C68.1483 113.182 69.6232 113.172 71.956 113.098C73.9435 113.025 75.3558 113.025 76.2136 113.067C77.0609 113.119 78.0233 113.287 79.0798 113.58C80.1364 113.873 81.2243 114.334 82.3541 114.962C84.1533 115.956 85.1576 116.908 85.3668 117.819C85.576 118.73 84.9902 119.577 83.5989 120.383L85.5028 121.44L83.3164 122.341L81.3498 121.252C79.948 121.702 78.3162 121.87 76.4646 121.765C74.613 121.65 72.5627 120.969 70.3032 119.724L69.3198 119.18L74.0796 117.222L75.3139 117.913C76.6738 118.667 77.563 119.117 77.9919 119.253C78.4208 119.399 78.8183 119.389 79.1949 119.232C79.5192 119.096 79.6447 118.939 79.5715 118.74C79.4983 118.552 79.2368 118.332 78.7869 118.081C77.6572 117.453 76.768 117.034 76.1298 116.825C75.4917 116.615 74.4561 116.532 73.0021 116.573C70.5856 116.636 68.8805 116.647 67.9076 116.615C66.9348 116.573 65.8364 116.406 64.6334 116.113C63.4304 115.809 62.3007 115.37 61.265 114.794C59.7587 113.957 58.9741 113.13 58.9217 112.324C58.8694 111.518 59.5494 110.723 60.9512 109.948L59.3402 109.048L61.5266 108.148L63.1375 109.048C64.8008 108.556 66.4222 108.388 68.0018 108.556C69.5814 108.723 71.1086 109.226 72.6045 110.053C72.8138 110.168 73.1171 110.346 73.5042 110.597V110.576Z" fill="white"/>
<path d="M73.5042 110.576L68.7445 112.533L67.9076 112.073C67.0185 111.581 66.3803 111.277 65.9933 111.173C65.6062 111.068 65.2401 111.089 64.874 111.235C64.5811 111.351 64.487 111.508 64.5811 111.706C64.6752 111.905 64.9577 112.125 65.4284 112.387C66.2234 112.826 66.9243 113.078 67.5415 113.13C68.1483 113.182 69.6232 113.172 71.956 113.098C73.9435 113.025 75.3558 113.025 76.2136 113.067C77.0609 113.119 78.0233 113.287 79.0798 113.58C80.1364 113.873 81.2243 114.334 82.3541 114.962C84.1533 115.956 85.1576 116.908 85.3668 117.819C85.576 118.73 84.9902 119.577 83.5989 120.383L85.5028 121.44L83.3164 122.341L81.3498 121.252C79.948 121.702 78.3162 121.87 76.4646 121.765C74.613 121.65 72.5627 120.969 70.3031 119.724L69.3198 119.18L74.0796 117.222L75.3139 117.913C76.6738 118.667 77.563 119.117 77.9919 119.253C78.4208 119.399 78.8183 119.389 79.1949 119.232C79.5192 119.096 79.6447 118.939 79.5715 118.74C79.4983 118.552 79.2368 118.332 78.7869 118.081C77.6572 117.453 76.768 117.034 76.1298 116.825C75.4917 116.615 74.4561 116.532 73.0021 116.573C70.5856 116.636 68.8805 116.647 67.9076 116.615C66.9348 116.573 65.8364 116.406 64.6334 116.113C63.4304 115.809 62.3007 115.37 61.265 114.794C59.7587 113.957 58.9741 113.13 58.9217 112.324C58.8694 111.518 59.5494 110.723 60.9512 109.948L59.3402 109.048L61.5266 108.148L63.1375 109.048C64.8008 108.556 66.4222 108.388 68.0018 108.556C69.5814 108.723 71.1086 109.226 72.6045 110.053C72.8138 110.168 73.1171 110.346 73.5042 110.597V110.576Z" stroke="#424A5D" stroke-width="0.75" stroke-linejoin="round"/>
<path d="M93.0031 101.669C89.0175 96.5506 81.1928 93.0652 72.1964 93.0652C63.2001 93.0652 55.3755 96.5506 51.3899 101.669H48.7223L48.6177 108.713C48.6073 108.954 48.5654 109.184 48.5654 109.425C48.5654 118.457 59.1413 125.784 72.1964 125.784C85.2516 125.784 95.8275 118.457 95.8275 109.425V101.669H93.0031Z" fill="#FFD336"/>
<path d="M72.1964 125.784C85.2475 125.784 95.8275 118.46 95.8275 109.425C95.8275 100.39 85.2475 93.0652 72.1964 93.0652C59.1454 93.0652 48.5654 100.39 48.5654 109.425C48.5654 118.46 59.1454 125.784 72.1964 125.784Z" fill="white"/>
<path d="M93.0031 101.669C89.0175 96.5506 81.1928 93.0652 72.1964 93.0652C63.2001 93.0652 55.3755 96.5506 51.3899 101.669H48.7223L48.6177 108.713C48.6073 108.954 48.5654 109.184 48.5654 109.425C48.5654 118.457 59.1413 125.784 72.1964 125.784C85.2516 125.784 95.8275 118.457 95.8275 109.425V101.669H93.0031Z" stroke="#424A5D" stroke-width="0.75" stroke-linejoin="round"/>
<path d="M72.1964 125.784C85.2475 125.784 95.8275 118.46 95.8275 109.425C95.8275 100.39 85.2475 93.0652 72.1964 93.0652C59.1454 93.0652 48.5654 100.39 48.5654 109.425C48.5654 118.46 59.1454 125.784 72.1964 125.784Z" stroke="#424A5D" stroke-width="0.75" stroke-linejoin="round"/>
<path d="M72.1964 118.028C85.2475 118.028 95.8275 110.704 95.8275 101.669C95.8275 92.6337 85.2475 85.3093 72.1964 85.3093C59.1454 85.3093 48.5654 92.6337 48.5654 101.669C48.5654 110.704 59.1454 118.028 72.1964 118.028Z" fill="white"/>
<path d="M72.1964 118.028C85.2475 118.028 95.8275 110.704 95.8275 101.669C95.8275 92.6337 85.2475 85.3093 72.1964 85.3093C59.1454 85.3093 48.5654 92.6337 48.5654 101.669C48.5654 110.704 59.1454 118.028 72.1964 118.028Z" stroke="#424A5D" stroke-width="0.75" stroke-linejoin="round"/>
<path d="M72.332 125.752C72.332 125.564 72.3321 125.376 72.353 125.187V118.101" stroke="#424A5D" stroke-width="0.75" stroke-linejoin="round"/>
<path d="M77.4688 125.219V117.662" stroke="#424A5D" stroke-width="0.75" stroke-linejoin="round"/>
<path d="M82.3428 124.13V116.573" stroke="#424A5D" stroke-width="0.75" stroke-linejoin="round"/>
<path d="M86.8408 122.309V114.721" stroke="#424A5D" stroke-width="0.75" stroke-linejoin="round"/>
<path d="M90.6699 119.755V112.115" stroke="#424A5D" stroke-width="0.75" stroke-linejoin="round"/>
<path d="M94.1641 115.453V107.854" stroke="#424A5D" stroke-width="0.75" stroke-linejoin="round"/>
<path d="M67.1016 125.219V117.662" stroke="#424A5D" stroke-width="0.75" stroke-linejoin="round"/>
<path d="M62.2168 124.13V116.573" stroke="#424A5D" stroke-width="0.75" stroke-linejoin="round"/>
<path d="M57.7285 122.309V114.721" stroke="#424A5D" stroke-width="0.75" stroke-linejoin="round"/>
<path d="M53.8896 119.755V112.115" stroke="#424A5D" stroke-width="0.75" stroke-linejoin="round"/>
<path d="M50.4062 115.453V107.854" stroke="#424A5D" stroke-width="0.75" stroke-linejoin="round"/>
<path d="M72.1962 114.312C82.2835 114.312 90.4609 108.652 90.4609 101.669C90.4609 94.6857 82.2835 89.0249 72.1962 89.0249C62.109 89.0249 53.9316 94.6857 53.9316 101.669C53.9316 108.652 62.109 114.312 72.1962 114.312Z" fill="white"/>
<path d="M72.1962 114.312C82.2835 114.312 90.4609 108.652 90.4609 101.669C90.4609 94.6857 82.2835 89.0249 72.1962 89.0249C62.109 89.0249 53.9316 94.6857 53.9316 101.669C53.9316 108.652 62.109 114.312 72.1962 114.312Z" stroke="#424A5D" stroke-width="0.75" stroke-linejoin="round"/>
<path d="M73.5042 97.011L68.7445 98.9683L67.9076 98.5078C67.0185 98.0158 66.3803 97.7123 65.9933 97.6076C65.6062 97.503 65.2401 97.5239 64.874 97.6704C64.5811 97.7856 64.487 97.9426 64.5811 98.1414C64.6752 98.3403 64.9577 98.5601 65.4284 98.8218C66.2234 99.2614 66.9243 99.5126 67.5415 99.5649C68.1483 99.6172 69.6232 99.6068 71.956 99.5335C73.9435 99.4602 75.3558 99.4602 76.2136 99.5021C77.0609 99.5544 78.0233 99.7219 79.0798 100.015C80.1364 100.308 81.2243 100.769 82.3541 101.397C84.1533 102.391 85.1576 103.343 85.3668 104.254C85.576 105.165 84.9902 106.012 83.5989 106.818L85.5028 107.875L83.3164 108.776L81.3498 107.687C79.948 108.137 78.3162 108.305 76.4646 108.2C74.613 108.085 72.5627 107.404 70.3032 106.159L69.3198 105.615L74.0796 103.657L75.3139 104.348C76.6738 105.102 77.563 105.552 77.9919 105.688C78.4208 105.834 78.8183 105.824 79.1949 105.667C79.5192 105.531 79.6447 105.374 79.5715 105.175C79.4983 104.987 79.2368 104.767 78.7869 104.516C77.6572 103.888 76.768 103.469 76.1298 103.26C75.4917 103.05 74.4561 102.967 73.0021 103.008C70.5856 103.071 68.8805 103.082 67.9076 103.05C66.9348 103.008 65.8364 102.841 64.6334 102.548C63.4304 102.244 62.3007 101.805 61.265 101.229C59.7587 100.392 58.9741 99.5649 58.9217 98.759C58.8694 97.953 59.5494 97.1576 60.9512 96.383L59.3402 95.4829L61.5266 94.5828L63.1375 95.4829C64.8008 94.991 66.4222 94.8235 68.0018 94.991C69.5814 95.1584 71.1086 95.6608 72.6045 96.4877C72.8138 96.6028 73.1171 96.7808 73.5042 97.032V97.011Z" fill="white"/>
<path d="M73.5042 97.011L68.7445 98.9683L67.9076 98.5078C67.0185 98.0158 66.3803 97.7123 65.9933 97.6076C65.6062 97.503 65.2401 97.5239 64.874 97.6704C64.5811 97.7856 64.487 97.9426 64.5811 98.1414C64.6752 98.3403 64.9577 98.5601 65.4284 98.8218C66.2234 99.2614 66.9243 99.5126 67.5415 99.5649C68.1483 99.6172 69.6232 99.6068 71.956 99.5335C73.9435 99.4602 75.3558 99.4602 76.2136 99.5021C77.0609 99.5544 78.0233 99.7219 79.0798 100.015C80.1364 100.308 81.2243 100.769 82.3541 101.397C84.1533 102.391 85.1576 103.343 85.3668 104.254C85.576 105.165 84.9902 106.012 83.5989 106.818L85.5028 107.875L83.3164 108.776L81.3498 107.687C79.948 108.137 78.3162 108.305 76.4646 108.2C74.613 108.085 72.5627 107.404 70.3031 106.159L69.3198 105.615L74.0796 103.657L75.3139 104.348C76.6738 105.102 77.563 105.552 77.9919 105.688C78.4208 105.834 78.8183 105.824 79.1949 105.667C79.5192 105.531 79.6447 105.374 79.5715 105.175C79.4983 104.987 79.2368 104.767 78.7869 104.516C77.6572 103.888 76.768 103.469 76.1298 103.26C75.4917 103.05 74.4561 102.967 73.0021 103.008C70.5856 103.071 68.8805 103.082 67.9076 103.05C66.9348 103.008 65.8364 102.841 64.6334 102.548C63.4304 102.244 62.3007 101.805 61.265 101.229C59.7587 100.392 58.9741 99.5649 58.9217 98.759C58.8694 97.953 59.5494 97.1576 60.9512 96.383L59.3402 95.4829L61.5266 94.5828L63.1375 95.4829C64.8008 94.991 66.4222 94.8235 68.0018 94.991C69.5814 95.1584 71.1086 95.6608 72.6045 96.4877C72.8138 96.6028 73.1171 96.7808 73.5042 97.032V97.011Z" stroke="#424A5D" stroke-width="0.75" stroke-linejoin="round"/>
<path d="M93.0031 86.6178C89.0175 81.4996 81.1928 78.0142 72.1964 78.0142C63.2001 78.0142 55.3755 81.4996 51.3899 86.6178H48.7223L48.6177 93.6619C48.6073 93.9026 48.5654 94.1329 48.5654 94.3736C48.5654 103.406 59.1413 110.733 72.1964 110.733C85.2516 110.733 95.8275 103.406 95.8275 94.3736V86.6178H93.0031Z" fill="#FFD336"/>
<path d="M72.1964 110.733C85.2475 110.733 95.8275 103.409 95.8275 94.3736C95.8275 85.3385 85.2475 78.0142 72.1964 78.0142C59.1454 78.0142 48.5654 85.3385 48.5654 94.3736C48.5654 103.409 59.1454 110.733 72.1964 110.733Z" fill="white"/>
<path d="M93.0031 86.6178C89.0175 81.4996 81.1928 78.0142 72.1964 78.0142C63.2001 78.0142 55.3755 81.4996 51.3899 86.6178H48.7223L48.6177 93.6619C48.6073 93.9026 48.5654 94.1329 48.5654 94.3736C48.5654 103.406 59.1413 110.733 72.1964 110.733C85.2516 110.733 95.8275 103.406 95.8275 94.3736V86.6178H93.0031Z" stroke="#424A5D" stroke-width="0.75" stroke-linejoin="round"/>
<path d="M72.1964 110.733C85.2475 110.733 95.8275 103.409 95.8275 94.3736C95.8275 85.3385 85.2475 78.0142 72.1964 78.0142C59.1454 78.0142 48.5654 85.3385 48.5654 94.3736C48.5654 103.409 59.1454 110.733 72.1964 110.733Z" stroke="#424A5D" stroke-width="0.75" stroke-linejoin="round"/>
<path d="M72.1964 102.977C85.2475 102.977 95.8275 95.6528 95.8275 86.6177C95.8275 77.5827 85.2475 70.2583 72.1964 70.2583C59.1454 70.2583 48.5654 77.5827 48.5654 86.6177C48.5654 95.6528 59.1454 102.977 72.1964 102.977Z" fill="white"/>
<path d="M72.1964 102.977C85.2475 102.977 95.8275 95.6528 95.8275 86.6177C95.8275 77.5827 85.2475 70.2583 72.1964 70.2583C59.1454 70.2583 48.5654 77.5827 48.5654 86.6177C48.5654 95.6528 59.1454 102.977 72.1964 102.977Z" stroke="#424A5D" stroke-width="0.75" stroke-linejoin="round"/>
<path d="M72.332 110.701C72.332 110.513 72.3321 110.325 72.353 110.136V103.05" stroke="#424A5D" stroke-width="0.75" stroke-linejoin="round"/>
<path d="M77.4688 110.168V102.611" stroke="#424A5D" stroke-width="0.75" stroke-linejoin="round"/>
<path d="M82.3428 109.09V101.533" stroke="#424A5D" stroke-width="0.75" stroke-linejoin="round"/>
<path d="M86.8408 107.268V99.6697" stroke="#424A5D" stroke-width="0.75" stroke-linejoin="round"/>
<path d="M90.6699 104.704V97.0635" stroke="#424A5D" stroke-width="0.75" stroke-linejoin="round"/>
<path d="M94.1641 100.402V92.814" stroke="#424A5D" stroke-width="0.75" stroke-linejoin="round"/>
<path d="M67.1016 110.168V102.611" stroke="#424A5D" stroke-width="0.75" stroke-linejoin="round"/>
<path d="M62.2168 109.09V101.533" stroke="#424A5D" stroke-width="0.75" stroke-linejoin="round"/>
<path d="M57.7285 107.268V99.6697" stroke="#424A5D" stroke-width="0.75" stroke-linejoin="round"/>
<path d="M53.8896 104.704V97.0635" stroke="#424A5D" stroke-width="0.75" stroke-linejoin="round"/>
<path d="M50.4062 100.402V92.814" stroke="#424A5D" stroke-width="0.75" stroke-linejoin="round"/>
<path d="M72.1962 99.2614C82.2835 99.2614 90.4609 93.6006 90.4609 86.6176C90.4609 79.6347 82.2835 73.9739 72.1962 73.9739C62.109 73.9739 53.9316 79.6347 53.9316 86.6176C53.9316 93.6006 62.109 99.2614 72.1962 99.2614Z" fill="white"/>
<path d="M72.1962 99.2614C82.2835 99.2614 90.4609 93.6006 90.4609 86.6176C90.4609 79.6347 82.2835 73.9739 72.1962 73.9739C62.109 73.9739 53.9316 79.6347 53.9316 86.6176C53.9316 93.6006 62.109 99.2614 72.1962 99.2614Z" stroke="#424A5D" stroke-width="0.75" stroke-linejoin="round"/>
<path d="M73.5042 81.9705L68.7445 83.9278L67.9076 83.4672C67.0185 82.9753 66.3803 82.6718 65.9933 82.5671C65.6062 82.4624 65.2401 82.4834 64.874 82.6299C64.5811 82.745 64.487 82.902 64.5811 83.1009C64.6752 83.2998 64.9577 83.5196 65.4284 83.7812C66.2234 84.2209 66.9243 84.4721 67.5415 84.5244C68.1483 84.5767 69.6232 84.5663 71.956 84.493C73.9435 84.4197 75.3558 84.4197 76.2136 84.4616C77.0609 84.5139 78.0233 84.6814 79.0798 84.9745C80.1364 85.2675 81.2243 85.7281 82.3541 86.3561C84.1533 87.3504 85.1576 88.3029 85.3668 89.2135C85.576 90.1241 84.9902 90.9719 83.5989 91.7778L85.5028 92.8349L83.3164 93.7351L81.3498 92.6465C79.948 93.0966 78.3162 93.2641 76.4646 93.1594C74.613 93.0443 72.5627 92.3639 70.3032 91.1184L69.3198 90.5741L74.0796 88.6169L75.3139 89.3077C76.6738 90.0613 77.563 90.5113 77.9919 90.6474C78.4208 90.7939 78.8183 90.7835 79.1949 90.6265C79.5192 90.4904 79.6447 90.3334 79.5715 90.1345C79.4983 89.9461 79.2368 89.7263 78.7869 89.4751C77.6572 88.8471 76.768 88.4285 76.1298 88.2191C75.4917 88.0098 74.4561 87.9261 73.0021 87.9679C70.5856 88.0307 68.8805 88.0412 67.9076 88.0098C66.9348 87.9679 65.8364 87.8005 64.6334 87.5074C63.4304 87.2039 62.3007 86.7643 61.265 86.1886C59.7587 85.3512 58.9741 84.5244 58.9217 83.7185C58.8694 82.9125 59.5494 82.117 60.9512 81.3425L59.3402 80.4424L61.5266 79.5422L63.1375 80.4424C64.8008 79.9504 66.4222 79.783 68.0018 79.9504C69.5814 80.1179 71.1086 80.6203 72.6045 81.4472C72.8138 81.5623 73.1171 81.7402 73.5042 81.9914V81.9705Z" fill="white"/>
<path d="M73.5042 81.9705L68.7445 83.9278L67.9076 83.4672C67.0185 82.9753 66.3803 82.6718 65.9933 82.5671C65.6062 82.4624 65.2401 82.4834 64.874 82.6299C64.5811 82.745 64.487 82.902 64.5811 83.1009C64.6752 83.2998 64.9577 83.5196 65.4284 83.7812C66.2234 84.2209 66.9243 84.4721 67.5415 84.5244C68.1483 84.5767 69.6232 84.5663 71.956 84.493C73.9435 84.4197 75.3558 84.4197 76.2136 84.4616C77.0609 84.5139 78.0233 84.6814 79.0798 84.9745C80.1364 85.2675 81.2243 85.7281 82.3541 86.3561C84.1533 87.3504 85.1576 88.3029 85.3668 89.2135C85.576 90.1241 84.9902 90.9719 83.5989 91.7778L85.5028 92.8349L83.3164 93.7351L81.3498 92.6465C79.948 93.0966 78.3162 93.2641 76.4646 93.1594C74.613 93.0443 72.5627 92.3639 70.3031 91.1184L69.3198 90.5741L74.0796 88.6169L75.3139 89.3077C76.6738 90.0613 77.563 90.5113 77.9919 90.6474C78.4208 90.7939 78.8183 90.7835 79.1949 90.6265C79.5192 90.4904 79.6447 90.3334 79.5715 90.1345C79.4983 89.9461 79.2368 89.7263 78.7869 89.4751C77.6572 88.8471 76.768 88.4285 76.1298 88.2191C75.4917 88.0098 74.4561 87.9261 73.0021 87.9679C70.5856 88.0307 68.8805 88.0412 67.9076 88.0098C66.9348 87.9679 65.8364 87.8005 64.6334 87.5074C63.4304 87.2039 62.3007 86.7643 61.265 86.1886C59.7587 85.3512 58.9741 84.5244 58.9217 83.7185C58.8694 82.9125 59.5494 82.117 60.9512 81.3425L59.3402 80.4424L61.5266 79.5422L63.1375 80.4424C64.8008 79.9504 66.4222 79.783 68.0018 79.9504C69.5814 80.1179 71.1086 80.6203 72.6045 81.4472C72.8138 81.5623 73.1171 81.7402 73.5042 81.9914V81.9705Z" stroke="#424A5D" stroke-width="0.75" stroke-linejoin="round"/>
<path d="M104.751 96.1736L95.953 80.7981L87.3229 79.9398L80.0421 55.5315L71.4851 55.4059L65.7735 33.3735L55.5219 35.3831L46.2536 1L38.3242 9.14309L33.6796 23.315L27.2358 34.6923L14.1074 42.783L104.751 96.1736Z" fill="white"/>
<path d="M104.751 96.1736L95.953 80.7981L87.3229 79.9398L80.0421 55.5315L71.4851 55.4059L65.7735 33.3735L55.5219 35.3831L46.2536 1L38.3242 9.14309L33.6796 23.315L27.2358 34.6923L14.1074 42.783L104.751 96.1736Z" stroke="#424A5D" stroke-width="0.75" stroke-linejoin="round"/>
<path d="M91.1413 104.212L82.3332 88.8469L73.7135 87.9781L66.4328 63.5698L57.8758 63.4442L52.1642 41.4223L41.9126 43.4214L32.6442 9.03833L24.7149 17.1814L20.0703 31.3533L13.6159 42.7306L0.498047 50.8318L91.1413 104.212Z" fill="white"/>
<path d="M91.1413 104.212L82.3332 88.8469L73.7135 87.9781L66.4328 63.5698L57.8758 63.4442L52.1642 41.4223L41.9126 43.4214L32.6442 9.03833L24.7149 17.1814L20.0703 31.3533L13.6159 42.7306L0.498047 50.8318L91.1413 104.212Z" stroke="#424A5D" stroke-width="0.75" stroke-linejoin="round"/>
<path d="M91.1416 104.212L82.3335 88.8469L73.7138 87.9782L66.4331 63.5699L57.8761 63.4443L52.1645 41.4224L41.9129 43.4215L32.6445 9.03842L46.2541 1L55.5224 35.3831L65.7741 33.3735L71.4856 55.4059L80.0426 55.5315L87.3234 79.9398L95.9536 80.7981L104.751 96.1736L91.1416 104.212Z" fill="#FFD336"/>
<path d="M91.1416 104.212L82.3335 88.8469L73.7138 87.9782L66.4331 63.5699L57.8761 63.4443L52.1645 41.4224L41.9129 43.4215L32.6445 9.03842L46.2541 1L55.5224 35.3831L65.7741 33.3735L71.4856 55.4059L80.0426 55.5315L87.3234 79.9398L95.9536 80.7981L104.751 96.1736L91.1416 104.212Z" stroke="#424A5D" stroke-width="0.75" stroke-linejoin="round"/>
</svg>
