<svg width="56" height="33" viewBox="0 0 56 33" fill="none" xmlns="http://www.w3.org/2000/svg">
<g clip-path="url(#clip0_692_3164)">
<path d="M53.9365 13.5724C49.1307 12.6631 45.4644 10.5165 42.0204 7.13897C41.0156 6.15337 39.4271 7.52573 40.3863 8.59131C43.9397 11.8482 44.9862 12.3714 49.1721 14.8475C47.3256 14.1749 49.1721 13.7331 49.1721 14.8475C31.5588 15.5103 20.9876 15.5109 -1.47692 13.555C-2.31425 12.7295 -1.47495 16.4898 -1.47549 14.8475C26.8127 17.3687 34.6613 17.215 48.7889 16.1808C46.8458 17.1672 40.8686 20.0275 38.9255 21.0139C37.632 21.6658 38.6497 23.6945 39.9547 23.037C43.726 21.1495 47.4858 19.2676 51.2513 17.3687C51.3318 17.329 51.3891 17.272 51.4464 17.215C52.4352 16.7276 53.4124 16.2173 54.3954 15.7184C55.4878 15.18 55.0049 13.7503 53.9422 13.5553L53.9365 13.5724Z" fill="#79808B"/>
</g>
<defs>
<clipPath id="clip0_692_3164">
<rect width="55" height="32" fill="white" transform="translate(0.383789 0.432617)"/>
</clipPath>
</defs>
</svg>
