<svg width="132" height="98" viewBox="0 0 132 98" fill="none" xmlns="http://www.w3.org/2000/svg">
<g style="mix-blend-mode:multiply">
<path d="M108.563 75.6751C107.305 75.0696 106.036 74.4879 104.754 73.918C104.457 73.7993 104.113 73.6568 103.686 73.4787C101.633 72.6596 99.5806 71.8404 97.5279 71.0093C91.6662 68.623 85.8283 66.1891 80.1328 63.4348C71.0674 59.042 62.4648 53.8301 53.7673 48.7725C50.172 46.6711 46.636 44.5103 43.1594 42.2783H15.9633C15.7497 43.2162 15.6191 44.166 15.6191 45.1395C15.6191 45.7925 15.6666 46.4455 15.7615 47.0866L15.6785 52.7022C15.6429 53.1059 15.6191 53.5214 15.6191 53.9251C15.6191 55.2073 15.809 56.4538 16.165 57.6648C16.6752 59.3982 17.5414 61.0365 18.7042 62.5562C18.7873 62.6749 18.8822 62.7818 18.9653 62.9005C20.5315 64.8476 22.5843 66.5809 25.0049 68.0175C25.2422 68.1599 25.4795 68.2905 25.7287 68.433C30.3088 70.9618 36.1112 72.4696 42.4237 72.4696C48.7362 72.4696 54.0283 71.0924 58.5136 68.7536C58.4424 69.3115 58.3949 69.8696 58.3949 70.4513C58.3949 71.1043 58.4424 71.7573 58.5373 72.3984L58.4542 78.014C58.4186 78.4176 58.3949 78.8332 58.3949 79.2368C58.3949 81.4807 58.9645 83.6296 60.0205 85.6122C60.1748 85.8972 60.329 86.1821 60.4951 86.4552C60.8392 87.0132 61.2071 87.5474 61.6224 88.0817C61.8241 88.3429 62.0377 88.604 62.2631 88.8534C62.9395 89.6132 63.687 90.3493 64.5057 91.0379C64.7786 91.2635 65.0634 91.489 65.3482 91.7146C70.2487 95.4425 77.3206 97.7932 85.1876 97.7932C93.0545 97.7932 99.7705 95.5612 104.647 91.9877C105.063 91.679 105.478 91.3703 105.858 91.0379C106.676 90.3493 107.424 89.6251 108.1 88.8534C108.456 88.4497 108.777 88.0342 109.085 87.6187C109.37 87.2388 109.631 86.847 109.868 86.4552C110.034 86.1821 110.2 85.8972 110.343 85.6122C111.399 83.6177 111.968 81.4807 111.968 79.2368V76.9692C110.794 76.6012 109.643 76.1737 108.539 75.6514L108.563 75.6751Z" fill="#D6D6D6"/>
</g>
<path d="M66.0616 41.4946C61.5408 35.6891 52.6653 31.7356 42.4608 31.7356C32.2563 31.7356 23.3808 35.6891 18.86 41.4946H15.8342L15.7156 49.4847C15.7037 49.7578 15.6562 50.019 15.6562 50.292C15.6562 60.5378 27.6525 68.8484 42.4608 68.8484C57.2692 68.8484 69.2654 60.5378 69.2654 50.292V41.4946H66.0616Z" fill="#FFD336"/>
<path d="M42.4608 68.8484C57.2646 68.8484 69.2654 60.5404 69.2654 50.292C69.2654 40.0436 57.2646 31.7356 42.4608 31.7356C27.6571 31.7356 15.6562 40.0436 15.6562 50.292C15.6562 60.5404 27.6571 68.8484 42.4608 68.8484Z" fill="white"/>
<path d="M66.0616 41.4946C61.5408 35.6891 52.6653 31.7356 42.4608 31.7356C32.2563 31.7356 23.3808 35.6891 18.86 41.4946H15.8342L15.7156 49.4847C15.7037 49.7578 15.6562 50.019 15.6562 50.292C15.6562 60.5378 27.6525 68.8484 42.4608 68.8484C57.2692 68.8484 69.2654 60.5378 69.2654 50.292V41.4946H66.0616Z" stroke="#424A5D" stroke-width="0.75" stroke-linejoin="round"/>
<path d="M42.4608 68.8484C57.2646 68.8484 69.2654 60.5404 69.2654 50.292C69.2654 40.0436 57.2646 31.7356 42.4608 31.7356C27.6571 31.7356 15.6562 40.0436 15.6562 50.292C15.6562 60.5404 27.6571 68.8484 42.4608 68.8484Z" stroke="#424A5D" stroke-width="0.75" stroke-linejoin="round"/>
<path d="M42.4608 60.0508C57.2646 60.0508 69.2654 51.7428 69.2654 41.4944C69.2654 31.246 57.2646 22.938 42.4608 22.938C27.6571 22.938 15.6562 31.246 15.6562 41.4944C15.6562 51.7428 27.6571 60.0508 42.4608 60.0508Z" fill="white"/>
<path d="M42.4608 60.0508C57.2646 60.0508 69.2654 51.7428 69.2654 41.4944C69.2654 31.246 57.2646 22.938 42.4608 22.938C27.6571 22.938 15.6562 31.246 15.6562 41.4944C15.6562 51.7428 27.6571 60.0508 42.4608 60.0508Z" stroke="#424A5D" stroke-width="0.75" stroke-linejoin="round"/>
<path d="M42.6045 68.8124C42.6045 68.5987 42.6045 68.385 42.6282 68.1713V60.1338" stroke="#424A5D" stroke-width="0.75" stroke-linejoin="round"/>
<path d="M48.4307 68.2073V59.6355" stroke="#424A5D" stroke-width="0.75" stroke-linejoin="round"/>
<path d="M53.9717 66.9724V58.4006" stroke="#424A5D" stroke-width="0.75" stroke-linejoin="round"/>
<path d="M59.0615 64.9067V56.2993" stroke="#424A5D" stroke-width="0.75" stroke-linejoin="round"/>
<path d="M63.417 62.0098V53.343" stroke="#424A5D" stroke-width="0.75" stroke-linejoin="round"/>
<path d="M67.3682 57.1303V48.511" stroke="#424A5D" stroke-width="0.75" stroke-linejoin="round"/>
<path d="M36.6709 68.2073V59.6355" stroke="#424A5D" stroke-width="0.75" stroke-linejoin="round"/>
<path d="M31.1416 66.9724V58.4006" stroke="#424A5D" stroke-width="0.75" stroke-linejoin="round"/>
<path d="M26.0391 64.9067V56.2993" stroke="#424A5D" stroke-width="0.75" stroke-linejoin="round"/>
<path d="M21.6973 62.0098V53.343" stroke="#424A5D" stroke-width="0.75" stroke-linejoin="round"/>
<path d="M17.7334 57.1303V48.511" stroke="#424A5D" stroke-width="0.75" stroke-linejoin="round"/>
<path d="M42.4606 55.8361C53.9026 55.8361 63.1781 49.4151 63.1781 41.4943C63.1781 33.5736 53.9026 27.1526 42.4606 27.1526C31.0187 27.1526 21.7432 33.5736 21.7432 41.4943C21.7432 49.4151 31.0187 55.8361 42.4606 55.8361Z" fill="white"/>
<path d="M42.4606 55.8361C53.9026 55.8361 63.1781 49.4151 63.1781 41.4943C63.1781 33.5736 53.9026 27.1526 42.4606 27.1526C31.0187 27.1526 21.7432 33.5736 21.7432 41.4943C21.7432 49.4151 31.0187 55.8361 42.4606 55.8361Z" stroke="#424A5D" stroke-width="0.75" stroke-linejoin="round"/>
<path d="M43.9317 36.2112L38.5328 38.4313L37.5835 37.9089C36.5749 37.3509 35.8511 37.0066 35.4121 36.8879C34.9731 36.7692 34.5578 36.7929 34.1425 36.9591C33.8102 37.0897 33.7034 37.2678 33.8102 37.4934C33.917 37.7189 34.2374 37.9683 34.7714 38.2651C35.6731 38.7637 36.4681 39.0486 37.1682 39.108C37.8564 39.1674 39.5295 39.1555 42.1755 39.0724C44.43 38.9893 46.0319 38.9893 47.0049 39.0368C47.9779 39.0843 49.0576 39.2861 50.2561 39.6185C51.4545 39.9509 52.6885 40.4733 53.97 41.1857C56.0109 42.3135 57.15 43.3939 57.3873 44.4268C57.6247 45.4597 56.9602 46.4213 55.382 47.3355L57.5416 48.5346L55.0617 49.5556L52.8309 48.3209C51.2409 48.8314 49.3899 49.0214 47.2896 48.9027C45.1894 48.7839 42.8637 48.0004 40.3008 46.5876L39.1854 45.9702L44.5843 43.7501L45.9844 44.5337C47.527 45.3885 48.5355 45.899 49.022 46.0533C49.5085 46.2195 49.9594 46.2076 50.3866 46.0296C50.7544 45.8752 50.8968 45.6971 50.8137 45.4716C50.7307 45.2579 50.434 45.0085 49.9238 44.7236C48.6423 44.0113 47.6338 43.5364 46.9099 43.2989C46.1861 43.0615 45.0114 42.9665 43.3621 43.014C40.6211 43.0852 38.687 43.0971 37.5835 43.0615C36.48 43.014 35.2341 42.824 33.8696 42.4916C32.505 42.1473 31.2235 41.6487 30.0488 40.9957C28.3402 40.0459 27.4502 39.108 27.3909 38.1938C27.3316 37.2797 28.091 36.3774 29.6928 35.4988L27.8655 34.4778L30.3455 33.4568L32.1728 34.4778C34.0594 33.9198 35.8986 33.7298 37.6903 33.9198C39.482 34.1098 41.2144 34.6796 42.9112 35.6176C43.1485 35.7482 43.4926 35.95 43.9317 36.2349V36.2112Z" fill="white"/>
<path d="M43.9317 36.2112L38.5328 38.4313L37.5835 37.9089C36.5749 37.3509 35.8511 37.0066 35.4121 36.8879C34.9731 36.7692 34.5578 36.7929 34.1425 36.9591C33.8102 37.0897 33.7034 37.2678 33.8102 37.4934C33.917 37.7189 34.2374 37.9683 34.7714 38.2651C35.6731 38.7637 36.4681 39.0486 37.1682 39.108C37.8564 39.1674 39.5295 39.1555 42.1755 39.0724C44.43 38.9893 46.0319 38.9893 47.0049 39.0368C47.9779 39.0843 49.0576 39.2861 50.2561 39.6185C51.4545 39.9509 52.6885 40.4733 53.97 41.1857C56.0109 42.3135 57.15 43.3939 57.3873 44.4268C57.6247 45.4597 56.9602 46.4213 55.382 47.3355L57.5416 48.5346L55.0617 49.5556L52.8309 48.3209C51.2409 48.8314 49.3899 49.0214 47.2896 48.9027C45.1894 48.7839 42.8637 48.0004 40.3008 46.5876L39.1854 45.9702L44.5843 43.7501L45.9844 44.5337C47.527 45.3885 48.5355 45.899 49.022 46.0533C49.5085 46.2195 49.9594 46.2076 50.3866 46.0296C50.7544 45.8752 50.8968 45.6971 50.8137 45.4716C50.7307 45.2579 50.434 45.0085 49.9238 44.7236C48.6423 44.0113 47.6338 43.5364 46.9099 43.2989C46.1861 43.0615 45.0114 42.9665 43.3621 43.014C40.6211 43.0852 38.687 43.0971 37.5835 43.0615C36.48 43.014 35.2341 42.824 33.8696 42.4916C32.505 42.1473 31.2235 41.6487 30.0488 40.9957C28.3402 40.0459 27.4502 39.108 27.3909 38.1938C27.3316 37.2797 28.091 36.3774 29.6928 35.4988L27.8655 34.4778L30.3455 33.4568L32.1728 34.4778C34.0594 33.9198 35.8986 33.7298 37.6903 33.9198C39.482 34.1098 41.2144 34.6796 42.9112 35.6176C43.1485 35.7482 43.4926 35.95 43.9317 36.2349V36.2112Z" stroke="#424A5D" stroke-width="0.75" stroke-linejoin="round"/>
<path d="M108.825 66.8184C104.304 61.0128 95.429 57.0593 85.2245 57.0593C75.02 57.0593 66.1445 61.0128 61.6237 66.8184H58.5979L58.4793 74.8084C58.4674 75.0815 58.4199 75.3427 58.4199 75.6157C58.4199 85.8615 70.4161 94.1721 85.2245 94.1721C100.033 94.1721 112.029 85.8615 112.029 75.6157V66.8184H108.825Z" fill="#FFD336"/>
<path d="M85.2245 94.1721C100.028 94.1721 112.029 85.8642 112.029 75.6157C112.029 65.3673 100.028 57.0593 85.2245 57.0593C70.4207 57.0593 58.4199 65.3673 58.4199 75.6157C58.4199 85.8642 70.4207 94.1721 85.2245 94.1721Z" fill="white"/>
<path d="M108.825 66.8184C104.304 61.0128 95.429 57.0593 85.2245 57.0593C75.02 57.0593 66.1445 61.0128 61.6236 66.8184H58.5979L58.4793 74.8084C58.4674 75.0815 58.4199 75.3427 58.4199 75.6157C58.4199 85.8615 70.4161 94.1721 85.2245 94.1721C100.033 94.1721 112.029 85.8615 112.029 75.6157V66.8184H108.825Z" stroke="#424A5D" stroke-width="0.75" stroke-linejoin="round"/>
<path d="M85.2245 94.1721C100.028 94.1721 112.029 85.8642 112.029 75.6157C112.029 65.3673 100.028 57.0593 85.2245 57.0593C70.4207 57.0593 58.4199 65.3673 58.4199 75.6157C58.4199 85.8642 70.4207 94.1721 85.2245 94.1721Z" stroke="#424A5D" stroke-width="0.75" stroke-linejoin="round"/>
<path d="M85.2245 85.3745C100.028 85.3745 112.029 77.0666 112.029 66.8181C112.029 56.5697 100.028 48.2617 85.2245 48.2617C70.4207 48.2617 58.4199 56.5697 58.4199 66.8181C58.4199 77.0666 70.4207 85.3745 85.2245 85.3745Z" fill="white"/>
<path d="M85.2245 85.3745C100.028 85.3745 112.029 77.0666 112.029 66.8181C112.029 56.5697 100.028 48.2617 85.2245 48.2617C70.4207 48.2617 58.4199 56.5697 58.4199 66.8181C58.4199 77.0666 70.4207 85.3745 85.2245 85.3745Z" stroke="#424A5D" stroke-width="0.75" stroke-linejoin="round"/>
<path d="M85.3789 94.1359C85.3789 93.9222 85.3789 93.7085 85.4026 93.4948V85.4573" stroke="#424A5D" stroke-width="0.75" stroke-linejoin="round"/>
<path d="M91.2051 93.5308V84.959" stroke="#424A5D" stroke-width="0.75" stroke-linejoin="round"/>
<path d="M96.7344 92.2959V83.7241" stroke="#424A5D" stroke-width="0.75" stroke-linejoin="round"/>
<path d="M101.836 90.2302V81.6228" stroke="#424A5D" stroke-width="0.75" stroke-linejoin="round"/>
<path d="M106.18 87.3333V78.6665" stroke="#424A5D" stroke-width="0.75" stroke-linejoin="round"/>
<path d="M110.143 82.4538V73.8345" stroke="#424A5D" stroke-width="0.75" stroke-linejoin="round"/>
<path d="M79.4453 93.5308V84.959" stroke="#424A5D" stroke-width="0.75" stroke-linejoin="round"/>
<path d="M73.9043 92.2962V83.7244" stroke="#424A5D" stroke-width="0.75" stroke-linejoin="round"/>
<path d="M68.8135 90.2305V81.623" stroke="#424A5D" stroke-width="0.75" stroke-linejoin="round"/>
<path d="M64.459 87.3335V78.6667" stroke="#424A5D" stroke-width="0.75" stroke-linejoin="round"/>
<path d="M60.5078 82.454V73.8347" stroke="#424A5D" stroke-width="0.75" stroke-linejoin="round"/>
<path d="M85.2243 81.1598C96.6662 81.1598 105.942 74.7388 105.942 66.8181C105.942 58.8973 96.6662 52.4763 85.2243 52.4763C73.7824 52.4763 64.5068 58.8973 64.5068 66.8181C64.5068 74.7388 73.7824 81.1598 85.2243 81.1598Z" fill="white"/>
<path d="M85.2243 81.1598C96.6662 81.1598 105.942 74.7388 105.942 66.8181C105.942 58.8973 96.6662 52.4763 85.2243 52.4763C73.7824 52.4763 64.5068 58.8973 64.5068 66.8181C64.5068 74.7388 73.7824 81.1598 85.2243 81.1598Z" stroke="#424A5D" stroke-width="0.75" stroke-linejoin="round"/>
<path d="M86.7071 61.5351L81.3082 63.7553L80.3589 63.2329C79.3504 62.6749 78.6265 62.3306 78.1875 62.2119C77.7485 62.0931 77.3332 62.1169 76.9179 62.2831C76.5856 62.4137 76.4789 62.5918 76.5856 62.8173C76.6924 63.0429 77.0128 63.2922 77.5468 63.589C78.4486 64.0877 79.2436 64.3726 79.9436 64.432C80.6318 64.4913 82.3049 64.4795 84.9509 64.3964C87.2054 64.3133 88.8073 64.3133 89.7803 64.3607C90.7533 64.4082 91.833 64.6101 93.0315 64.9425C94.2299 65.2749 95.4639 65.7973 96.7454 66.5096C98.7863 67.6375 99.9254 68.7179 100.163 69.7508C100.4 70.7837 99.7356 71.7453 98.1574 72.6595L100.317 73.8586L97.8371 74.8796L95.6063 73.6449C94.0163 74.1554 92.1653 74.3453 90.065 74.2266C87.9648 74.1079 85.6392 73.3243 83.0762 71.9115L81.9608 71.2942L87.3597 69.074L88.7598 69.8576C90.3024 70.7124 91.311 71.2229 91.7974 71.3773C92.2839 71.5435 92.7348 71.5316 93.162 71.3535C93.5298 71.1992 93.6722 71.0211 93.5892 70.7955C93.5061 70.5818 93.2095 70.3325 92.6992 70.0476C91.4177 69.3352 90.4092 68.8603 89.6854 68.6229C88.9615 68.3854 87.7868 68.2905 86.1375 68.338C83.3965 68.4092 81.4624 68.4211 80.3589 68.3855C79.2554 68.338 78.0095 68.148 76.645 67.8156C75.2804 67.4713 73.9989 66.9727 72.8242 66.3197C71.1156 65.3699 70.2256 64.432 70.1663 63.5178C70.107 62.6037 70.8664 61.7014 72.4683 60.8228L70.6409 59.8018L73.1209 58.7808L74.9482 59.8018C76.8348 59.2438 78.674 59.0538 80.4657 59.2438C82.2574 59.4337 83.9898 60.0036 85.6866 60.9415C85.9239 61.0721 86.268 61.2739 86.7071 61.5589V61.5351Z" fill="white"/>
<path d="M86.7071 61.5351L81.3082 63.7553L80.3589 63.2329C79.3504 62.6749 78.6265 62.3306 78.1875 62.2119C77.7485 62.0931 77.3332 62.1169 76.9179 62.2831C76.5856 62.4137 76.4789 62.5918 76.5856 62.8173C76.6924 63.0429 77.0128 63.2922 77.5468 63.589C78.4486 64.0877 79.2436 64.3726 79.9436 64.432C80.6318 64.4913 82.3049 64.4795 84.9509 64.3964C87.2054 64.3133 88.8073 64.3133 89.7803 64.3607C90.7533 64.4082 91.833 64.6101 93.0315 64.9425C94.2299 65.2749 95.4639 65.7973 96.7454 66.5096C98.7863 67.6375 99.9254 68.7179 100.163 69.7508C100.4 70.7837 99.7356 71.7453 98.1574 72.6595L100.317 73.8586L97.8371 74.8796L95.6063 73.6449C94.0163 74.1554 92.1653 74.3453 90.065 74.2266C87.9648 74.1079 85.6392 73.3243 83.0762 71.9115L81.9608 71.2942L87.3597 69.074L88.7598 69.8576C90.3024 70.7124 91.311 71.2229 91.7974 71.3773C92.2839 71.5435 92.7348 71.5316 93.162 71.3535C93.5298 71.1992 93.6722 71.0211 93.5892 70.7955C93.5061 70.5818 93.2095 70.3325 92.6992 70.0476C91.4177 69.3352 90.4092 68.8603 89.6854 68.6229C88.9615 68.3854 87.7868 68.2905 86.1375 68.338C83.3965 68.4092 81.4624 68.4211 80.3589 68.3855C79.2554 68.338 78.0095 68.148 76.645 67.8156C75.2804 67.4713 73.9989 66.9727 72.8242 66.3197C71.1156 65.3699 70.2256 64.432 70.1663 63.5178C70.107 62.6037 70.8664 61.7014 72.4683 60.8228L70.6409 59.8018L73.1209 58.7808L74.9482 59.8018C76.8348 59.2438 78.674 59.0538 80.4657 59.2438C82.2574 59.4337 83.9898 60.0036 85.6866 60.9415C85.9239 61.0721 86.268 61.2739 86.7071 61.5589V61.5351Z" stroke="#424A5D" stroke-width="0.75" stroke-linejoin="round"/>
<path d="M1.77208 66.8063L46.8972 93.4478C48.8195 94.5756 51.2045 94.5756 53.1386 93.4478L130.396 48.4042C131.713 47.6325 131.713 45.7211 130.396 44.9612L83.5859 17.5718C81.9366 16.6102 79.9075 16.6102 78.2582 17.5718L1.79581 61.9268C-0.0789614 63.019 -0.0908205 65.7259 1.78396 66.83L1.77208 66.8063Z" fill="white"/>
<path d="M1.77208 66.8063L46.8972 93.4478C48.8195 94.5756 51.2045 94.5756 53.1386 93.4478L130.396 48.4042C131.713 47.6325 131.713 45.7211 130.396 44.9612L83.5859 17.5718C81.9366 16.6102 79.9075 16.6102 78.2582 17.5718L1.79581 61.9268C-0.0789614 63.019 -0.0908205 65.7259 1.78396 66.83L1.77208 66.8063Z" stroke="#424A5D" stroke-width="0.75" stroke-linejoin="round"/>
<path d="M1.77208 65.2748L46.8972 91.9163C48.8195 93.0441 51.2045 93.0441 53.1386 91.9163L130.396 46.8727C131.713 46.101 131.713 44.1896 130.396 43.4297L83.5859 16.0403C81.9366 15.0787 79.9075 15.0787 78.2582 16.0403L1.79581 60.3953C-0.0789614 61.4875 -0.0908205 64.1944 1.78396 65.2985L1.77208 65.2748Z" fill="white"/>
<path d="M1.77208 65.2748L46.8972 91.9163C48.8195 93.0441 51.2045 93.0441 53.1386 91.9163L130.396 46.8727C131.713 46.101 131.713 44.1896 130.396 43.4297L83.5859 16.0403C81.9366 15.0787 79.9075 15.0787 78.2582 16.0403L1.79581 60.3953C-0.0789614 61.4875 -0.0908205 64.1944 1.78396 65.2985L1.77208 65.2748Z" stroke="#424A5D" stroke-width="0.75" stroke-linejoin="round"/>
<path d="M115.646 44.9731C115.646 43.6078 116.501 42.385 117.853 41.542L86.5993 23.2112C85.5076 24.6121 83.3955 25.55 80.9868 25.55C78.5781 25.55 76.5372 24.6359 75.4218 23.2705L12.8066 59.3149C14.1712 60.1459 15.0374 61.3807 15.0374 62.7579C15.0374 64.135 14.2187 65.2867 12.9253 66.1296L44.6066 84.876C45.7339 83.5581 47.7748 82.6796 50.1005 82.6796C52.4261 82.6796 54.5975 83.6175 55.701 84.9947L118.411 48.7129C116.75 47.8937 115.658 46.5284 115.658 44.985L115.646 44.9731Z" fill="#FFD336"/>
<path d="M115.646 44.9731C115.646 43.6078 116.501 42.385 117.853 41.542L86.5993 23.2112C85.5076 24.6121 83.3955 25.55 80.9868 25.55C78.5781 25.55 76.5372 24.6359 75.4218 23.2705L12.8066 59.3149C14.1712 60.1459 15.0374 61.3807 15.0374 62.7579C15.0374 64.135 14.2187 65.2867 12.9253 66.1296L44.6066 84.876C45.7339 83.5581 47.7748 82.6796 50.1005 82.6796C52.4261 82.6796 54.5975 83.6175 55.701 84.9947L118.411 48.7129C116.75 47.8937 115.658 46.5284 115.658 44.985L115.646 44.9731Z" stroke="#424A5D" stroke-width="0.75" stroke-linejoin="round"/>
<path d="M67.3884 66.4498C78.8303 66.4498 88.1058 60.0288 88.1058 52.1081C88.1058 44.1874 78.8303 37.7664 67.3884 37.7664C55.9464 37.7664 46.6709 44.1874 46.6709 52.1081C46.6709 60.0288 55.9464 66.4498 67.3884 66.4498Z" fill="white"/>
<path d="M67.3884 66.4498C78.8303 66.4498 88.1058 60.0288 88.1058 52.1081C88.1058 44.1874 78.8303 37.7664 67.3884 37.7664C55.9464 37.7664 46.6709 44.1874 46.6709 52.1081C46.6709 60.0288 55.9464 66.4498 67.3884 66.4498Z" stroke="#424A5D" stroke-width="0.75" stroke-linejoin="round"/>
<path d="M68.8721 46.8249L63.4732 49.0451L62.5239 48.5227C61.5153 47.9647 60.7915 47.6204 60.3525 47.5017C59.9135 47.3829 59.4982 47.4067 59.0829 47.5729C58.7506 47.7035 58.6438 47.8816 58.7506 48.1071C58.8574 48.3208 59.1778 48.582 59.7118 48.8788C60.6135 49.3775 61.4086 49.6624 62.1086 49.7218C62.7968 49.7811 64.4699 49.7693 67.1159 49.6862C69.3704 49.603 70.9723 49.603 71.9453 49.6505C72.9064 49.7099 73.998 49.8999 75.1965 50.2323C76.3949 50.5647 77.6289 51.0871 78.9104 51.7994C80.9513 52.9273 82.0904 54.0077 82.3277 55.0406C82.565 56.0735 81.9006 57.0351 80.3224 57.9493L82.482 59.1484L80.0021 60.1694L77.7713 58.9347C76.1813 59.4452 74.3303 59.6351 72.23 59.5164C70.1298 59.3977 67.8041 58.626 65.2412 57.2013L64.1258 56.584L69.5247 54.3638L70.9248 55.1474C72.4673 56.0022 73.4759 56.5127 73.9624 56.6671C74.4489 56.8333 74.8998 56.8214 75.327 56.6433C75.6948 56.489 75.8372 56.3109 75.7542 56.0853C75.6711 55.8716 75.3744 55.6223 74.8642 55.3374C73.5827 54.625 72.5741 54.1501 71.8503 53.9127C71.1265 53.6752 69.9518 53.5803 68.3025 53.6278C65.5615 53.699 63.6274 53.7109 62.5239 53.6752C61.4204 53.6278 60.1745 53.4378 58.81 53.1054C57.4454 52.7611 56.1639 52.2624 54.9892 51.6095C53.2806 50.6597 52.3906 49.7218 52.3313 48.8076C52.272 47.8934 53.0432 46.9911 54.6332 46.1126L52.8059 45.0916L55.2859 44.0706L57.1132 45.0916C58.9998 44.5336 60.839 44.3436 62.6307 44.5336C64.4224 44.7235 66.1548 45.2934 67.8516 46.2313C68.0889 46.3619 68.433 46.5637 68.8721 46.8487V46.8249Z" fill="white"/>
<path d="M68.8721 46.8249L63.4732 49.0451L62.5239 48.5227C61.5153 47.9647 60.7915 47.6204 60.3525 47.5017C59.9135 47.3829 59.4982 47.4067 59.0829 47.5729C58.7506 47.7035 58.6438 47.8816 58.7506 48.1071C58.8574 48.3208 59.1778 48.582 59.7118 48.8788C60.6135 49.3775 61.4086 49.6624 62.1086 49.7218C62.7968 49.7811 64.4699 49.7693 67.1159 49.6862C69.3704 49.603 70.9723 49.603 71.9453 49.6505C72.9064 49.7099 73.998 49.8999 75.1965 50.2323C76.3949 50.5647 77.6289 51.0871 78.9104 51.7994C80.9513 52.9273 82.0904 54.0077 82.3277 55.0406C82.565 56.0735 81.9006 57.0351 80.3224 57.9493L82.482 59.1484L80.0021 60.1694L77.7713 58.9347C76.1813 59.4452 74.3303 59.6351 72.23 59.5164C70.1298 59.3977 67.8041 58.626 65.2412 57.2013L64.1258 56.584L69.5247 54.3638L70.9248 55.1474C72.4673 56.0022 73.4759 56.5127 73.9624 56.6671C74.4489 56.8333 74.8998 56.8214 75.327 56.6433C75.6948 56.489 75.8372 56.3109 75.7541 56.0853C75.6711 55.8716 75.3744 55.6223 74.8642 55.3374C73.5827 54.625 72.5741 54.1501 71.8503 53.9127C71.1265 53.6752 69.9518 53.5803 68.3025 53.6278C65.5615 53.699 63.6274 53.7109 62.5239 53.6752C61.4204 53.6278 60.1745 53.4378 58.81 53.1054C57.4454 52.7611 56.1639 52.2624 54.9892 51.6095C53.2806 50.6597 52.3906 49.7218 52.3313 48.8076C52.272 47.8934 53.0432 46.9911 54.6332 46.1126L52.8059 45.0916L55.2859 44.0706L57.1132 45.0916C58.9998 44.5336 60.839 44.3436 62.6307 44.5336C64.4224 44.7235 66.1548 45.2934 67.8516 46.2313C68.0889 46.3619 68.433 46.5637 68.8721 46.8487V46.8249Z" stroke="#424A5D" stroke-width="0.75" stroke-linejoin="round"/>
<path d="M41.2378 65.0613C38.4731 65.0613 36.2305 66.6165 36.2305 68.528C36.2305 70.4394 38.4731 71.9947 41.2378 71.9947C44.0025 71.9947 46.2451 70.4394 46.2451 68.528C46.2451 66.6165 44.0025 65.0613 41.2378 65.0613Z" fill="white"/>
<path d="M93.1509 34.7869C90.3862 34.7869 88.1436 36.3421 88.1436 38.2536C88.1436 40.165 90.3862 41.7203 93.1509 41.7203C95.9156 41.7203 98.1582 40.165 98.1582 38.2536C98.1582 36.3421 95.9156 34.7869 93.1509 34.7869Z" fill="white"/>
<path d="M1.77208 59.6827L46.8972 86.3242C48.8195 87.4521 51.2045 87.4521 53.1386 86.3242L130.396 41.2807C131.713 40.509 131.713 38.5975 130.396 37.8377L83.5859 10.4483C81.9366 9.48664 79.9075 9.48664 78.2582 10.4483L1.79581 54.8032C-0.0789614 55.8955 -0.0908205 58.6024 1.78396 59.7065L1.77208 59.6827Z" fill="white"/>
<path d="M1.77208 59.6827L46.8972 86.3242C48.8195 87.4521 51.2045 87.4521 53.1386 86.3242L130.396 41.2807C131.713 40.509 131.713 38.5975 130.396 37.8377L83.5859 10.4483C81.9366 9.48664 79.9075 9.48664 78.2582 10.4483L1.79581 54.8032C-0.0789614 55.8955 -0.0908205 58.6024 1.78396 59.7065L1.77208 59.6827Z" stroke="#424A5D" stroke-width="0.75" stroke-linejoin="round"/>
<path d="M1.77208 58.1513L46.8972 84.7927C48.8195 85.9206 51.2045 85.9206 53.1386 84.7927L130.396 39.7492C131.713 38.9775 131.713 37.066 130.396 36.3062L83.5859 8.9168C81.9366 7.95514 79.9075 7.95514 78.2582 8.9168L1.79581 53.2717C-0.0789614 54.364 -0.0908205 57.0709 1.78396 58.175L1.77208 58.1513Z" fill="white"/>
<path d="M1.77208 58.1513L46.8972 84.7927C48.8195 85.9206 51.2045 85.9206 53.1386 84.7927L130.396 39.7492C131.713 38.9775 131.713 37.066 130.396 36.3062L83.5859 8.9168C81.9366 7.95514 79.9075 7.95514 78.2582 8.9168L1.79581 53.2717C-0.0789614 54.364 -0.0908205 57.0709 1.78396 58.175L1.77208 58.1513Z" stroke="#424A5D" stroke-width="0.75" stroke-linejoin="round"/>
<path d="M115.646 37.8498C115.646 36.4845 116.501 35.2617 117.853 34.4187L86.5993 16.0879C85.5076 17.4888 83.3955 18.4267 80.9868 18.4267C78.5781 18.4267 76.5372 17.5126 75.4218 16.1473L12.8066 52.1916C14.1712 53.0226 15.0374 54.2574 15.0374 55.6346C15.0374 57.0118 14.2187 58.1634 12.9253 59.0063L44.6066 77.7527C45.7339 76.4349 47.7748 75.5563 50.1005 75.5563C52.4261 75.5563 54.5975 76.4942 55.701 77.8714L118.411 41.5896C116.75 40.7704 115.658 39.4051 115.658 37.8617L115.646 37.8498Z" fill="#FFD336"/>
<path d="M115.646 37.8498C115.646 36.4845 116.501 35.2617 117.853 34.4187L86.5993 16.0879C85.5076 17.4888 83.3955 18.4267 80.9868 18.4267C78.5781 18.4267 76.5372 17.5126 75.4218 16.1473L12.8066 52.1916C14.1712 53.0226 15.0374 54.2574 15.0374 55.6346C15.0374 57.0118 14.2187 58.1634 12.9253 59.0063L44.6066 77.7527C45.7339 76.4349 47.7748 75.5563 50.1005 75.5563C52.4261 75.5563 54.5975 76.4942 55.701 77.8714L118.411 41.5896C116.75 40.7704 115.658 39.4051 115.658 37.8617L115.646 37.8498Z" stroke="#424A5D" stroke-width="0.75" stroke-linejoin="round"/>
<path d="M67.3884 59.3268C78.8303 59.3268 88.1058 52.9058 88.1058 44.9851C88.1058 37.0643 78.8303 30.6433 67.3884 30.6433C55.9464 30.6433 46.6709 37.0643 46.6709 44.9851C46.6709 52.9058 55.9464 59.3268 67.3884 59.3268Z" fill="white"/>
<path d="M67.3884 59.3268C78.8303 59.3268 88.1058 52.9058 88.1058 44.9851C88.1058 37.0643 78.8303 30.6433 67.3884 30.6433C55.9464 30.6433 46.6709 37.0643 46.6709 44.9851C46.6709 52.9058 55.9464 59.3268 67.3884 59.3268Z" stroke="#424A5D" stroke-width="0.75" stroke-linejoin="round"/>
<path d="M68.8721 39.7019L63.4732 41.922L62.5239 41.3996C61.5153 40.8416 60.7915 40.4973 60.3525 40.3786C59.9135 40.2599 59.4982 40.2836 59.0829 40.4498C58.7506 40.5804 58.6438 40.7585 58.7506 40.9841C58.8574 41.1978 59.1778 41.459 59.7118 41.7558C60.6135 42.2544 61.4086 42.5394 62.1086 42.5987C62.7968 42.6581 64.4699 42.6462 67.1159 42.5631C69.3704 42.48 70.9723 42.48 71.9453 42.5275C72.9064 42.5869 73.998 42.7768 75.1965 43.1092C76.3949 43.4417 77.6289 43.964 78.9104 44.6764C80.9513 45.8042 82.0904 46.8846 82.3277 47.9175C82.565 48.9504 81.9006 49.9121 80.3224 50.8262L82.482 52.0253L80.0021 53.0464L77.7713 51.8116C76.1813 52.3222 74.3303 52.5121 72.23 52.3934C70.1298 52.2747 67.8041 51.503 65.2412 50.0783L64.1258 49.4609L69.5247 47.2408L70.9248 48.0244C72.4673 48.8792 73.4759 49.3897 73.9624 49.544C74.4489 49.7102 74.8998 49.6984 75.327 49.5203C75.6948 49.3659 75.8372 49.1879 75.7542 48.9623C75.6711 48.7486 75.3744 48.4993 74.8642 48.2143C73.5827 47.502 72.5741 47.0271 71.8503 46.7896C71.1265 46.5522 69.9518 46.4572 68.3025 46.5047C65.5615 46.576 63.6274 46.5878 62.5239 46.5522C61.4204 46.5047 60.1745 46.3148 58.81 45.9823C57.4454 45.638 56.1639 45.1394 54.9892 44.4864C53.2806 43.5366 52.3906 42.5987 52.3313 41.6846C52.272 40.7704 53.0432 39.8681 54.6332 38.9895L52.8059 37.9685L55.2859 36.9475L57.1132 37.9685C58.9998 37.4105 60.839 37.2206 62.6307 37.4105C64.4224 37.6005 66.1548 38.1703 67.8516 39.1083C68.0889 39.2389 68.433 39.4407 68.8721 39.7256V39.7019Z" fill="white"/>
<path d="M68.8721 39.7019L63.4732 41.922L62.5239 41.3996C61.5153 40.8416 60.7915 40.4973 60.3525 40.3786C59.9135 40.2599 59.4982 40.2836 59.0829 40.4498C58.7506 40.5804 58.6438 40.7585 58.7506 40.9841C58.8574 41.1978 59.1778 41.459 59.7118 41.7558C60.6135 42.2544 61.4086 42.5394 62.1086 42.5987C62.7968 42.6581 64.4699 42.6462 67.1159 42.5631C69.3704 42.48 70.9723 42.48 71.9453 42.5275C72.9064 42.5869 73.998 42.7768 75.1965 43.1092C76.3949 43.4417 77.6289 43.964 78.9104 44.6764C80.9513 45.8042 82.0904 46.8846 82.3277 47.9175C82.565 48.9504 81.9006 49.9121 80.3224 50.8262L82.482 52.0253L80.0021 53.0464L77.7713 51.8116C76.1813 52.3222 74.3303 52.5121 72.23 52.3934C70.1298 52.2747 67.8041 51.503 65.2412 50.0783L64.1258 49.4609L69.5247 47.2408L70.9248 48.0244C72.4673 48.8792 73.4759 49.3897 73.9624 49.544C74.4489 49.7102 74.8998 49.6984 75.327 49.5203C75.6948 49.3659 75.8372 49.1879 75.7541 48.9623C75.6711 48.7486 75.3744 48.4993 74.8642 48.2143C73.5827 47.502 72.5741 47.0271 71.8503 46.7896C71.1265 46.5522 69.9518 46.4572 68.3025 46.5047C65.5615 46.576 63.6274 46.5878 62.5239 46.5522C61.4204 46.5047 60.1745 46.3148 58.81 45.9823C57.4454 45.638 56.1639 45.1394 54.9892 44.4864C53.2806 43.5366 52.3906 42.5987 52.3313 41.6846C52.272 40.7704 53.0432 39.8681 54.6332 38.9895L52.8059 37.9685L55.2859 36.9475L57.1132 37.9685C58.9998 37.4105 60.839 37.2206 62.6307 37.4105C64.4224 37.6005 66.1548 38.1703 67.8516 39.1083C68.0889 39.2389 68.433 39.4407 68.8721 39.7256V39.7019Z" stroke="#424A5D" stroke-width="0.75" stroke-linejoin="round"/>
<path d="M41.2378 57.9375C38.4731 57.9375 36.2305 59.4928 36.2305 61.4042C36.2305 63.3157 38.4731 64.8709 41.2378 64.8709C44.0025 64.8709 46.2451 63.3157 46.2451 61.4042C46.2451 59.4928 44.0025 57.9375 41.2378 57.9375Z" fill="white"/>
<path d="M93.1509 27.6633C90.3862 27.6633 88.1436 29.2186 88.1436 31.13C88.1436 33.0415 90.3862 34.5968 93.1509 34.5968C95.9156 34.5968 98.1582 33.0415 98.1582 31.13C98.1582 29.2186 95.9156 27.6633 93.1509 27.6633Z" fill="white"/>
<path d="M1.77208 52.5595L46.8972 79.2009C48.8195 80.3288 51.2045 80.3288 53.1386 79.2009L130.396 34.1574C131.713 33.3857 131.713 31.4742 130.396 30.7144L83.5859 3.325C81.9366 2.36335 79.9075 2.36335 78.2582 3.325L1.79581 47.6799C-0.0789614 48.7722 -0.0908205 51.4791 1.78396 52.5832L1.77208 52.5595Z" fill="white"/>
<path d="M1.77208 52.5595L46.8972 79.2009C48.8195 80.3288 51.2045 80.3288 53.1386 79.2009L130.396 34.1574C131.713 33.3857 131.713 31.4742 130.396 30.7144L83.5859 3.325C81.9366 2.36335 79.9075 2.36335 78.2582 3.325L1.79581 47.6799C-0.0789614 48.7722 -0.0908205 51.4791 1.78396 52.5832L1.77208 52.5595Z" stroke="#424A5D" stroke-width="0.75" stroke-linejoin="round"/>
<path d="M1.77208 51.028L46.8972 77.6694C48.8195 78.7973 51.2045 78.7973 53.1386 77.6694L130.396 32.6259C131.713 31.8542 131.713 29.9427 130.396 29.1829L83.5859 1.79351C81.9366 0.831851 79.9075 0.831851 78.2582 1.79351L1.79581 46.1484C-0.0789614 47.2407 -0.0908205 49.9476 1.78396 51.0517L1.77208 51.028Z" fill="white"/>
<path d="M1.77208 51.028L46.8972 77.6694C48.8195 78.7973 51.2045 78.7973 53.1386 77.6694L130.396 32.6259C131.713 31.8542 131.713 29.9427 130.396 29.1829L83.5859 1.79351C81.9366 0.831851 79.9075 0.831851 78.2582 1.79351L1.79581 46.1484C-0.0789614 47.2407 -0.0908205 49.9476 1.78396 51.0517L1.77208 51.028Z" stroke="#424A5D" stroke-width="0.75" stroke-linejoin="round"/>
<path d="M115.646 30.7263C115.646 29.361 116.501 28.1381 117.853 27.2952L86.5993 8.96436C85.5076 10.3653 83.3955 11.3032 80.9868 11.3032C78.5781 11.3032 76.5372 10.389 75.4218 9.02372L12.8066 45.068C14.1712 45.8991 15.0374 47.1338 15.0374 48.511C15.0374 49.8882 14.2187 51.0398 12.9253 51.8828L44.6066 70.6291C45.7339 69.3113 47.7748 68.4328 50.1005 68.4328C52.4261 68.4328 54.5975 69.3707 55.701 70.7479L118.411 34.4661C116.75 33.6469 115.658 32.2816 115.658 30.7382L115.646 30.7263Z" fill="#FFD336"/>
<path d="M115.646 30.7263C115.646 29.361 116.501 28.1381 117.853 27.2952L86.5993 8.96436C85.5076 10.3653 83.3955 11.3032 80.9868 11.3032C78.5781 11.3032 76.5372 10.389 75.4218 9.02372L12.8066 45.068C14.1712 45.8991 15.0374 47.1338 15.0374 48.511C15.0374 49.8882 14.2187 51.0398 12.9253 51.8828L44.6066 70.6291C45.7339 69.3113 47.7748 68.4328 50.1005 68.4328C52.4261 68.4328 54.5975 69.3707 55.701 70.7479L118.411 34.4661C116.75 33.6469 115.658 32.2816 115.658 30.7382L115.646 30.7263Z" stroke="#424A5D" stroke-width="0.75" stroke-linejoin="round"/>
<path d="M67.3884 52.203C78.8303 52.203 88.1058 45.782 88.1058 37.8613C88.1058 29.9406 78.8303 23.5195 67.3884 23.5195C55.9464 23.5195 46.6709 29.9406 46.6709 37.8613C46.6709 45.782 55.9464 52.203 67.3884 52.203Z" fill="white"/>
<path d="M67.3884 52.203C78.8303 52.203 88.1058 45.782 88.1058 37.8613C88.1058 29.9406 78.8303 23.5195 67.3884 23.5195C55.9464 23.5195 46.6709 29.9406 46.6709 37.8613C46.6709 45.782 55.9464 52.203 67.3884 52.203Z" stroke="#424A5D" stroke-width="0.75" stroke-linejoin="round"/>
<path d="M68.8721 32.5781L63.4732 34.7982L62.5239 34.2758C61.5153 33.7178 60.7915 33.3735 60.3525 33.2548C59.9135 33.1361 59.4982 33.1598 59.0829 33.3261C58.7506 33.4567 58.6438 33.6347 58.7506 33.8603C58.8574 34.074 59.1778 34.3352 59.7118 34.632C60.6135 35.1307 61.4086 35.4156 62.1086 35.4749C62.7968 35.5343 64.4699 35.5224 67.1159 35.4393C69.3704 35.3562 70.9723 35.3562 71.9453 35.4037C72.9064 35.4631 73.998 35.653 75.1965 35.9855C76.3949 36.3179 77.6289 36.8403 78.9104 37.5526C80.9513 38.6805 82.0904 39.7609 82.3277 40.7937C82.565 41.8266 81.9006 42.7883 80.3224 43.7025L82.482 44.9016L80.0021 45.9226L77.7713 44.6879C76.1813 45.1984 74.3303 45.3883 72.23 45.2696C70.1298 45.1509 67.8041 44.3792 65.2412 42.9545L64.1258 42.3371L69.5247 40.117L70.9248 40.9006C72.4673 41.7554 73.4759 42.2659 73.9624 42.4202C74.4489 42.5865 74.8998 42.5746 75.327 42.3965C75.6948 42.2422 75.8372 42.0641 75.7542 41.8385C75.6711 41.6248 75.3744 41.3755 74.8642 41.0906C73.5827 40.3782 72.5741 39.9033 71.8503 39.6659C71.1265 39.4284 69.9518 39.3335 68.3025 39.3809C65.5615 39.4522 63.6274 39.464 62.5239 39.4284C61.4204 39.3809 60.1745 39.191 58.81 38.8586C57.4454 38.5143 56.1639 38.0156 54.9892 37.3626C53.2806 36.4128 52.3906 35.475 52.3313 34.5608C52.272 33.6466 53.0432 32.7443 54.6332 31.8658L52.8059 30.8447L55.2859 29.8237L57.1132 30.8447C58.9998 30.2868 60.839 30.0968 62.6307 30.2867C64.4224 30.4767 66.1548 31.0466 67.8516 31.9845C68.0889 32.1151 68.433 32.3169 68.8721 32.6018V32.5781Z" fill="white"/>
<path d="M68.8721 32.5781L63.4732 34.7982L62.5239 34.2758C61.5153 33.7178 60.7915 33.3735 60.3525 33.2548C59.9135 33.1361 59.4982 33.1598 59.0829 33.3261C58.7506 33.4567 58.6438 33.6347 58.7506 33.8603C58.8574 34.074 59.1778 34.3352 59.7118 34.632C60.6135 35.1307 61.4086 35.4156 62.1086 35.4749C62.7968 35.5343 64.4699 35.5224 67.1159 35.4393C69.3704 35.3562 70.9723 35.3562 71.9453 35.4037C72.9064 35.4631 73.998 35.653 75.1965 35.9855C76.3949 36.3179 77.6289 36.8403 78.9104 37.5526C80.9513 38.6805 82.0904 39.7609 82.3277 40.7937C82.565 41.8266 81.9006 42.7883 80.3224 43.7025L82.482 44.9016L80.0021 45.9226L77.7713 44.6879C76.1813 45.1984 74.3303 45.3883 72.23 45.2696C70.1298 45.1509 67.8041 44.3792 65.2412 42.9545L64.1258 42.3371L69.5247 40.117L70.9248 40.9006C72.4673 41.7554 73.4759 42.2659 73.9624 42.4202C74.4489 42.5865 74.8998 42.5746 75.327 42.3965C75.6948 42.2422 75.8372 42.0641 75.7541 41.8385C75.6711 41.6248 75.3744 41.3755 74.8642 41.0906C73.5827 40.3782 72.5741 39.9033 71.8503 39.6659C71.1265 39.4284 69.9518 39.3335 68.3025 39.3809C65.5615 39.4522 63.6274 39.464 62.5239 39.4284C61.4204 39.3809 60.1745 39.191 58.81 38.8586C57.4454 38.5143 56.1639 38.0156 54.9892 37.3626C53.2806 36.4128 52.3906 35.475 52.3313 34.5608C52.272 33.6466 53.0432 32.7443 54.6332 31.8658L52.8059 30.8447L55.2859 29.8237L57.1132 30.8447C58.9998 30.2868 60.839 30.0968 62.6307 30.2867C64.4224 30.4767 66.1548 31.0466 67.8516 31.9845C68.0889 32.1151 68.433 32.3169 68.8721 32.6018V32.5781Z" stroke="#424A5D" stroke-width="0.75" stroke-linejoin="round"/>
<path d="M41.2378 50.8145C38.4731 50.8145 36.2305 52.3697 36.2305 54.2812C36.2305 56.1926 38.4731 57.7479 41.2378 57.7479C44.0025 57.7479 46.2451 56.1926 46.2451 54.2812C46.2451 52.3697 44.0025 50.8145 41.2378 50.8145Z" fill="white"/>
<path d="M93.1509 20.54C90.3862 20.54 88.1436 22.0953 88.1436 24.0068C88.1436 25.9182 90.3862 27.4735 93.1509 27.4735C95.9156 27.4735 98.1582 25.9182 98.1582 24.0068C98.1582 22.0953 95.9156 20.54 93.1509 20.54Z" fill="white"/>
</svg>
