<svg width="229" height="146" viewBox="0 0 229 146" fill="none" xmlns="http://www.w3.org/2000/svg">
<path d="M218.969 104.877C218.976 104.895 220.054 104.047 220.114 103.982C220.829 103.268 221.8 101.464 221.299 100.447C220.936 99.7106 220.032 99.5483 219.374 99.9704C218.705 100.403 218.417 101.348 218.357 102.106C218.286 102.997 218.965 104.873 218.969 104.877Z" fill="#424A5D"/>
<path d="M227.997 102.777C227.186 101.987 225.197 102.398 224.315 102.882C224.24 102.925 223.12 103.715 223.134 103.729C223.134 103.729 223.148 103.74 223.152 103.744C222.839 103.805 222.501 103.877 222.135 103.96C221.462 104.123 220.701 104.31 219.886 104.57C219.072 104.83 218.197 105.133 217.3 105.54C216.404 105.945 215.479 106.417 214.59 107.03C214.579 107.038 214.568 107.045 214.561 107.052C214.768 106.792 215.319 106.042 215.355 105.981C215.86 105.1 216.326 103.102 215.575 102.25C215.034 101.641 214.12 101.724 213.597 102.304C213.064 102.9 213.035 103.892 213.174 104.639C213.331 105.483 214.384 107.002 214.469 107.124C213.626 107.716 212.811 108.39 212.022 109.119C211.57 109.538 211.129 109.971 210.688 110.411C210.858 110.18 211.008 109.971 211.026 109.938C211.531 109.058 211.997 107.059 211.246 106.211C210.705 105.602 209.791 105.685 209.268 106.266C208.735 106.861 208.706 107.853 208.845 108.6C208.984 109.357 209.859 110.674 210.094 111.017C209.926 111.186 209.759 111.356 209.592 111.529C208.795 112.352 208.006 113.178 207.209 113.961C206.928 114.238 206.64 114.498 206.355 114.762C206.504 114.556 206.633 114.383 206.647 114.354C207.152 113.474 207.618 111.475 206.867 110.627C206.327 110.017 205.412 110.1 204.89 110.681C204.356 111.277 204.327 112.269 204.466 113.015C204.601 113.741 205.395 114.96 205.672 115.371C205.37 115.631 205.071 115.894 204.765 116.132C204.555 116.291 204.363 116.457 204.143 116.605C203.926 116.757 203.716 116.904 203.502 117.052C203.086 117.319 202.656 117.601 202.243 117.853C201.958 118.03 201.681 118.192 201.404 118.358C201.688 118.088 202.232 117.543 202.271 117.492C202.691 116.966 203.164 115.948 203.257 115.046C203.321 114.971 203.374 114.888 203.42 114.798C203.79 114.105 203.566 113.199 202.819 112.886C201.784 112.445 200.073 113.549 199.422 114.325C199.383 114.372 199.02 114.913 198.796 115.259C198.896 115.036 198.999 114.819 199.098 114.588C199.301 114.13 199.49 113.672 199.696 113.174C199.789 112.932 199.877 112.687 199.97 112.438C200.066 112.193 200.141 111.926 200.226 111.666C200.415 111.06 200.575 110.44 200.724 109.808C201.119 109.989 202.528 110.602 203.282 110.606C204.032 110.606 204.986 110.396 205.466 109.758C205.935 109.13 205.85 108.203 205.16 107.774C204.199 107.178 202.346 108.008 201.585 108.675C201.539 108.715 201.044 109.256 200.781 109.556C200.866 109.177 200.955 108.798 201.034 108.412C201.251 107.294 201.439 106.157 201.628 105.021C201.685 104.675 201.749 104.328 201.809 103.982C201.948 104.047 203.609 104.815 204.452 104.819C205.203 104.819 206.156 104.61 206.636 103.971C207.106 103.343 207.02 102.416 206.33 101.987C205.37 101.392 203.516 102.221 202.755 102.885C202.698 102.936 201.99 103.711 201.82 103.917C201.955 103.156 202.097 102.398 202.264 101.655C202.496 100.631 202.78 99.6384 203.125 98.7004C203.189 98.7293 204.918 99.541 205.782 99.5446C206.533 99.5446 207.486 99.3354 207.966 98.6968C208.436 98.0691 208.351 97.142 207.661 96.7126C206.7 96.1174 204.847 96.9471 204.086 97.6145C204.025 97.6651 203.264 98.502 203.136 98.6644C203.157 98.6066 203.171 98.5489 203.193 98.4912C203.573 97.4919 204.064 96.5719 204.569 95.735C204.861 95.2479 205.167 94.797 205.473 94.3677C205.779 94.5517 207.191 95.3778 207.97 95.468C208.713 95.5546 209.688 95.45 210.232 94.8692C210.766 94.2992 210.784 93.3648 210.143 92.8633C209.254 92.1671 207.323 92.784 206.494 93.3612C206.448 93.3936 206.024 93.7616 205.722 94.0358C205.864 93.8446 206.006 93.6426 206.145 93.4622C206.665 92.7804 207.184 92.1887 207.646 91.6692C207.913 91.377 208.159 91.1136 208.39 90.8755C208.785 90.8972 210.375 90.9657 211.09 90.6843C211.79 90.4101 212.605 89.8654 212.825 89.0934C213.039 88.3358 212.63 87.5024 211.833 87.3545C210.727 87.1525 209.293 88.6027 208.82 89.501C208.781 89.5804 208.276 90.8647 208.297 90.8683C208.297 90.8683 208.315 90.8683 208.322 90.8683C208.094 91.0956 207.853 91.3409 207.593 91.6187C207.12 92.131 206.586 92.7118 206.049 93.3864C205.512 94.0574 204.946 94.8042 204.42 95.6412C203.89 96.4818 203.378 97.3909 202.969 98.401C202.965 98.4118 202.962 98.4263 202.954 98.4371C202.983 98.1052 203.036 97.1708 203.033 97.0987C202.976 96.0813 202.275 94.1512 201.19 93.8662C200.408 93.6606 199.689 94.2414 199.568 95.0207C199.447 95.8144 199.963 96.6585 200.482 97.2033C201.069 97.8202 202.777 98.4984 202.912 98.5525C202.531 99.5157 202.218 100.537 201.955 101.587C201.805 102.185 201.67 102.795 201.546 103.408C201.564 103.12 201.574 102.864 201.574 102.824C201.517 101.807 200.817 99.8765 199.732 99.5915C198.949 99.3859 198.231 99.9667 198.113 100.746C197.992 101.54 198.508 102.384 199.027 102.929C199.557 103.484 201.002 104.09 201.386 104.249C201.339 104.483 201.293 104.718 201.247 104.956C201.03 106.089 200.82 107.218 200.582 108.318C200.496 108.708 200.4 109.087 200.304 109.466C200.319 109.209 200.329 108.993 200.326 108.96C200.269 107.943 199.568 106.013 198.483 105.728C197.701 105.522 196.982 106.103 196.865 106.882C196.744 107.676 197.259 108.52 197.779 109.065C198.284 109.595 199.611 110.169 200.066 110.357C199.956 110.743 199.845 111.129 199.725 111.497C199.636 111.746 199.564 111.994 199.461 112.24C199.362 112.485 199.266 112.73 199.17 112.969C198.967 113.427 198.761 113.899 198.554 114.339C198.412 114.646 198.27 114.938 198.131 115.23C198.22 114.844 198.376 114.087 198.383 114.022C198.48 113.008 198.078 110.995 197.042 110.544C196.299 110.22 195.502 110.685 195.267 111.435C195.029 112.204 195.413 113.116 195.847 113.733C196.324 114.415 197.843 115.321 198.035 115.433C197.8 115.916 197.565 116.385 197.338 116.825C197.039 117.402 196.754 117.936 196.484 118.427C196.605 118.607 196.758 118.831 196.936 119.087C197.245 118.503 197.58 117.85 197.928 117.132C198.17 116.641 198.419 116.111 198.668 115.566C198.803 115.606 199.579 115.826 200.326 115.938C200.4 116.793 201.122 118.293 201.219 118.485C200.76 118.755 200.308 119.018 199.881 119.257C199.141 119.671 198.462 120.032 197.85 120.35C197.992 120.537 198.142 120.732 198.295 120.931C198.874 120.613 199.518 120.252 200.208 119.845C200.678 119.57 201.172 119.267 201.677 118.954C201.816 119.119 202.972 120.472 203.723 120.826C204.402 121.147 205.356 121.36 206.056 120.985C206.743 120.613 207.049 119.736 206.597 119.055C205.971 118.106 203.943 118.073 202.979 118.355C202.922 118.373 202.325 118.622 201.951 118.784C202.158 118.654 202.357 118.531 202.57 118.394C202.986 118.127 203.395 117.85 203.837 117.55C204.043 117.399 204.256 117.244 204.466 117.088C204.68 116.94 204.886 116.753 205.099 116.587C205.587 116.187 206.06 115.761 206.526 115.317C206.757 115.689 207.6 116.991 208.226 117.413C208.852 117.835 209.763 118.192 210.51 117.929C211.243 117.669 211.677 116.847 211.331 116.104C210.855 115.072 208.856 114.725 207.86 114.855C207.799 114.863 207.095 115.036 206.707 115.14C206.985 114.873 207.266 114.606 207.54 114.325C208.329 113.517 209.105 112.669 209.88 111.832C210.119 111.576 210.357 111.323 210.595 111.067C210.677 111.201 211.645 112.77 212.345 113.243C212.971 113.665 213.882 114.022 214.629 113.759C215.362 113.499 215.796 112.676 215.451 111.933C214.974 110.901 212.975 110.555 211.979 110.685C211.904 110.696 210.89 110.945 210.638 111.024C211.164 110.465 211.694 109.909 212.239 109.386C212.989 108.661 213.765 107.994 214.565 107.402C214.604 107.463 215.604 109.108 216.322 109.592C216.948 110.014 217.859 110.371 218.606 110.108C219.339 109.848 219.773 109.025 219.428 108.282C218.951 107.25 216.952 106.904 215.956 107.034C215.878 107.045 214.789 107.315 214.593 107.38C214.64 107.344 214.686 107.305 214.736 107.268C215.597 106.648 216.507 106.157 217.382 105.739C217.891 105.494 218.389 105.292 218.88 105.104C219.036 105.429 219.762 106.908 220.363 107.416C220.939 107.903 221.804 108.362 222.579 108.181C223.337 108.004 223.856 107.236 223.593 106.457C223.23 105.378 221.281 104.812 220.278 104.83C220.224 104.83 219.669 104.902 219.267 104.96C219.488 104.88 219.719 104.79 219.933 104.718C220.737 104.44 221.491 104.235 222.159 104.061C222.54 103.964 222.889 103.885 223.212 103.812C223.529 104.051 224.82 104.996 225.567 105.165C226.3 105.328 227.278 105.331 227.879 104.808C228.47 104.296 228.584 103.372 227.997 102.806V102.777Z" fill="#424A5D"/>
<path d="M203.424 92.178C203.847 92.9608 205.437 94.1441 205.441 94.1477C205.459 94.1586 205.893 92.849 205.91 92.7624C206.12 91.7667 205.95 89.7176 204.975 89.1512C204.274 88.7399 203.431 89.1115 203.111 89.8294C202.787 90.5654 203.065 91.5142 203.424 92.1816V92.178Z" fill="#424A5D"/>
<path d="M32.1656 17.0207C32.2011 17.0207 31.3367 14.8598 31.2656 14.7299C30.4546 13.2255 28.0215 10.8048 26.1611 11.162C24.8236 11.4217 24.1442 12.8287 24.5177 14.1022C24.8983 15.4009 26.282 16.3028 27.463 16.7537C28.8503 17.2805 32.162 17.0243 32.162 17.0243L32.1656 17.0207Z" fill="#424A5D"/>
<path d="M32.955 1.23382C31.3259 2.20426 31.0662 5.65314 31.4326 7.32707C31.4646 7.47137 32.2187 9.67201 32.2436 9.65397C32.2436 9.65397 32.2685 9.63233 32.2756 9.62872C32.2294 10.1735 32.1867 10.7579 32.1547 11.3964C32.1013 12.5761 32.0551 13.9109 32.0978 15.3684C32.1369 16.8223 32.2223 18.4024 32.457 20.0583C32.6918 21.7178 33.0226 23.4531 33.5918 25.1955C33.5989 25.2136 33.606 25.2352 33.6131 25.2533C33.2894 24.7951 32.3468 23.5469 32.265 23.4603C31.0911 22.2265 28.1138 20.5417 26.4135 21.3859C25.1898 21.9956 24.9052 23.536 25.5953 24.6616C26.2996 25.8124 27.8683 26.3139 29.124 26.4293C30.5397 26.5592 33.453 25.5274 33.6843 25.4445C34.2392 27.0968 34.9435 28.749 35.7474 30.3833C36.2063 31.3177 36.6936 32.2412 37.1987 33.1647C36.907 32.7787 36.6438 32.436 36.6011 32.3927C35.4273 31.1589 32.4499 29.4778 30.7496 30.3183C29.526 30.928 29.2414 32.4685 29.9315 33.5941C30.6358 34.7449 32.2045 35.2463 33.4602 35.3618C34.7336 35.4808 37.2343 34.6511 37.8924 34.4202C38.088 34.7701 38.2801 35.1237 38.4793 35.4772C39.429 37.162 40.3824 38.8359 41.2681 40.5098C41.5811 41.0979 41.8657 41.6895 42.1574 42.2812C41.8977 41.9384 41.6772 41.6534 41.638 41.6138C40.4642 40.38 37.4868 38.6952 35.7865 39.5394C34.5629 40.1491 34.2783 41.6895 34.9684 42.8151C35.6727 43.9659 37.2414 44.4674 38.4971 44.5828C39.7136 44.6947 42.0293 43.9515 42.8119 43.6845C43.0893 44.2978 43.3668 44.9147 43.6087 45.5208C43.7652 45.9393 43.9431 46.3325 44.0782 46.7618C44.2205 47.1839 44.3592 47.6024 44.498 48.0173C44.7363 48.8254 44.9853 49.6587 45.1952 50.4524C45.3481 51.0044 45.4797 51.5311 45.6185 52.0614C45.3125 51.4697 44.6936 50.3297 44.6331 50.2396C43.9857 49.3088 42.5771 48.0642 41.1791 47.5014C41.0831 47.3643 40.98 47.2344 40.859 47.1154C39.9235 46.1882 38.3797 46.1413 37.5295 47.2236C36.3521 48.7244 37.3303 52.0397 38.2659 53.4648C38.3228 53.5477 39.02 54.3955 39.4717 54.9186C39.1623 54.6517 38.8634 54.3847 38.5397 54.1141C37.903 53.573 37.2556 53.0499 36.5584 52.4835C36.2134 52.2237 35.8612 51.9604 35.5091 51.6934C35.164 51.4228 34.7656 51.1811 34.3921 50.9178C33.5135 50.3297 32.5922 49.7814 31.6567 49.2439C32.1227 48.6775 33.7554 46.6464 34.1004 45.409C34.4455 44.1788 34.5522 42.5121 33.7483 41.4334C32.9622 40.3727 31.4432 40.0877 30.4401 41.0293C29.0528 42.3317 29.526 45.7589 30.2374 47.3102C30.2801 47.4076 30.9168 48.4646 31.2761 49.0382C30.7105 48.7207 30.1449 48.4033 29.5615 48.1002C27.879 47.2308 26.1467 46.4011 24.425 45.5677C23.8986 45.3116 23.3756 45.0518 22.8492 44.7921C23.0164 44.5936 25.0084 42.2198 25.3961 40.8345C25.7412 39.6043 25.8479 37.9412 25.0439 36.8589C24.2578 35.7983 22.7389 35.5133 21.7358 36.4549C20.3485 37.7572 20.8216 41.1845 21.5331 42.7357C21.5864 42.8512 22.5006 44.37 22.7532 44.7452C21.5971 44.1752 20.4517 43.5943 19.3454 42.9774C17.8158 42.126 16.3645 41.2061 15.0235 40.2104C15.1017 40.1166 17.1898 37.649 17.5882 36.2312C17.9332 35.001 18.0399 33.3379 17.236 32.2556C16.4499 31.195 14.931 30.91 13.9279 31.8516C12.5406 33.1539 13.0137 36.5812 13.7251 38.1324C13.782 38.2551 14.7674 39.8893 14.9666 40.1707C14.8883 40.113 14.7994 40.0589 14.7176 39.9976C13.2983 38.9153 12.0568 37.6851 10.9506 36.4765C10.3067 35.7766 9.73045 35.0696 9.18265 34.3661C9.61662 33.9476 11.5873 32.0103 12.0853 30.7729C12.5619 29.5896 12.8465 27.9445 12.1635 26.7793C11.4983 25.6393 10.015 25.1847 8.91942 26.0073C7.39696 27.1473 7.50012 30.607 8.03725 32.2304C8.06571 32.317 8.46411 33.1828 8.75935 33.8069C8.51746 33.4858 8.26135 33.1611 8.03725 32.8509C7.18709 31.6856 6.47922 30.5637 5.86028 29.5644C5.51168 28.9944 5.20932 28.4712 4.93186 27.9806C5.14885 27.3421 5.98478 24.7626 5.86739 23.4567C5.75356 22.1832 5.25912 20.5922 4.12439 19.8779C3.01456 19.1781 1.49566 19.4667 0.894507 20.7077C0.0621353 22.4321 1.72332 25.4517 2.93986 26.6422C3.04658 26.7432 4.87139 28.161 4.88206 28.1285C4.88206 28.1285 4.89273 28.0961 4.89629 28.0888C5.15596 28.5687 5.43698 29.0773 5.75712 29.6293C6.35472 30.643 7.04125 31.783 7.87006 32.9735C8.69532 34.1641 9.62374 35.4339 10.7229 36.6858C11.8221 37.9376 13.0421 39.2003 14.4614 40.3367C14.4792 40.3511 14.497 40.3619 14.5113 40.3727C13.9955 40.1707 12.5299 39.6584 12.4125 39.6332C10.7656 39.2616 7.36139 39.525 6.40452 41.1772C5.71444 42.3677 6.31559 43.8144 7.50368 44.3664C8.71666 44.9292 10.2996 44.471 11.4094 43.8649C12.6615 43.1831 14.529 40.6902 14.6784 40.4918C16.0408 41.5596 17.5277 42.5445 19.0822 43.4572C19.9715 43.9804 20.8821 44.4782 21.8034 44.9652C21.3516 44.8065 20.9426 44.6658 20.8857 44.655C19.2351 44.2834 15.8345 44.5467 14.8776 46.199C14.1876 47.3895 14.7887 48.8362 15.9768 49.3882C17.1898 49.9509 18.7727 49.4928 19.8825 48.8867C21.0102 48.2734 22.6429 46.181 23.0697 45.6218C23.4254 45.8058 23.7776 45.9934 24.1333 46.1738C25.8407 47.0468 27.5482 47.909 29.1951 48.8109C29.775 49.1284 30.337 49.4603 30.899 49.7922C30.4971 49.6515 30.1556 49.5361 30.1022 49.5252C28.4552 49.1537 25.0511 49.417 24.0942 51.0693C23.4041 52.2598 24.0053 53.7065 25.1934 54.2584C26.4063 54.8212 27.9893 54.363 29.0991 53.757C30.1734 53.1689 31.6994 51.2533 32.208 50.5931C32.7736 50.9502 33.3428 51.3074 33.8728 51.679C34.2321 51.9423 34.5949 52.1696 34.9364 52.451C35.285 52.7252 35.6265 52.9958 35.9679 53.2627C36.6047 53.8039 37.2663 54.3594 37.8746 54.9006C38.3014 55.2758 38.6998 55.6401 39.1018 56.0081C38.5255 55.687 37.3872 55.081 37.2876 55.0413C35.7154 54.4208 32.3112 54.1574 31.1196 55.6437C30.2587 56.7152 30.6358 58.2376 31.7278 58.9664C32.8448 59.7095 34.4739 59.5003 35.662 59.071C36.9711 58.5984 39.1125 56.5204 39.3757 56.257C40.0409 56.8667 40.6811 57.4656 41.2788 58.0392C42.0613 58.7932 42.7834 59.5075 43.4415 60.1749C43.7865 60.0595 44.2134 59.9115 44.7043 59.7348C43.9146 58.9591 43.0253 58.1114 42.04 57.2058C41.3677 56.5853 40.6349 55.9324 39.8808 55.2722C40.0053 55.0665 40.7096 53.8977 41.2325 52.718C42.634 52.9885 45.3588 52.4871 45.7074 52.4222C45.9315 53.3024 46.1378 54.161 46.3228 54.9727C46.6429 56.3761 46.9133 57.664 47.1338 58.8112C47.5002 58.6633 47.8773 58.5082 48.265 58.3458C48.0231 57.2455 47.7421 56.0298 47.4113 54.7058C47.1872 53.8111 46.9311 52.8587 46.6607 51.8846C46.9915 51.7295 49.6807 50.4524 50.5878 49.3845C51.4095 48.4141 52.1921 46.9458 51.911 45.6254C51.6336 44.3303 50.3708 43.4248 49.076 43.8505C47.2761 44.4421 46.2908 47.7539 46.2979 49.4675C46.2979 49.5685 46.4224 50.6652 46.5113 51.3543C46.3975 50.9575 46.2908 50.5678 46.1698 50.1602C45.9351 49.3521 45.6754 48.5512 45.4015 47.6926C45.2556 47.2813 45.1062 46.8664 44.9568 46.448C44.8181 46.0295 44.6154 45.6038 44.4482 45.1781C44.0355 44.1968 43.566 43.2228 43.0751 42.2523C43.7723 42.0431 46.2374 41.2602 47.2014 40.4232C48.1583 39.5899 49.1507 38.2587 49.0689 36.9094C48.9906 35.5855 47.8773 34.496 46.5326 34.7196C44.6651 35.0299 43.1996 38.1505 42.9471 39.846C42.9328 39.9507 42.8866 41.1881 42.8724 41.8663C42.5736 41.2855 42.2748 40.7046 41.9546 40.1274C41.0226 38.4607 40.0302 36.8012 39.0484 35.1417C38.7461 34.633 38.4544 34.1244 38.1556 33.6157C38.4046 33.5435 41.3535 32.6777 42.4313 31.7397C43.3881 30.9064 44.3806 29.5752 44.2988 28.2259C44.2205 26.9019 43.1071 25.816 41.7625 26.0361C39.895 26.3464 38.4295 29.4669 38.1769 31.1625C38.1591 31.2888 38.0951 33.0673 38.0987 33.5219C37.4477 32.3999 36.8074 31.2744 36.2205 30.1416C35.4095 28.5759 34.698 26.9957 34.1182 25.4156C34.2356 25.3831 37.3196 24.4921 38.4224 23.5324C39.3792 22.6991 40.3717 21.3715 40.2899 20.0186C40.2116 18.6946 39.0982 17.6087 37.7536 17.8288C35.8861 18.1391 34.4206 21.2596 34.168 22.9552C34.1467 23.0887 34.0826 25.0007 34.0933 25.3507C34.0578 25.2569 34.0151 25.1631 33.9795 25.0693C33.3855 23.3701 33.0191 21.6529 32.7523 20.0222C32.5958 19.077 32.4997 18.1643 32.425 17.2732C33.0155 17.1686 35.7118 16.6527 36.8003 15.8987C37.8426 15.1772 38.9737 13.9651 39.0378 12.6122C39.1018 11.2882 38.1129 10.0833 36.7541 10.1554C34.8652 10.2564 33.0689 13.1966 32.6349 14.8525C32.61 14.9427 32.4713 15.8843 32.3788 16.5734C32.3503 16.1729 32.3147 15.758 32.297 15.372C32.2223 13.9218 32.2436 12.5906 32.2685 11.4145C32.2898 10.7435 32.3219 10.1374 32.3574 9.571C32.8839 9.15973 34.9862 7.47498 35.598 6.32054C36.1956 5.19497 36.6474 3.58959 36.0924 2.35939C35.5482 1.15445 34.1218 0.544766 32.9479 1.24464L32.955 1.23382Z" fill="#424A5D"/>
<path d="M4.76152 36.7145C6.20572 36.379 8.82734 34.3119 8.82734 34.3083C8.85579 34.2866 6.95984 32.9698 6.83178 32.9013C5.33778 32.1004 1.99051 31.4438 0.635239 32.7822C-0.339419 33.7455 -0.136662 35.3004 0.862895 36.1518C1.88735 37.0212 3.53075 37.0031 4.76152 36.7145Z" fill="#424A5D"/>
<path d="M42.1832 23.363H196.168C198.669 23.363 200.7 25.4229 200.7 27.9591V130.697H37.6514V27.9555C37.6514 25.4193 39.6825 23.3594 42.1832 23.3594V23.363Z" fill="white" stroke="#424A5D" stroke-linecap="round" stroke-linejoin="round"/>
<path d="M120.572 26.6099C120.572 25.809 119.932 25.1597 119.142 25.1597C118.352 25.1597 117.712 25.809 117.712 26.6099C117.712 27.4108 118.352 28.0602 119.142 28.0602C119.932 28.0602 120.572 27.4108 120.572 26.6099Z" fill="#424A5D"/>
<path d="M39.1884 53.5658C38.9643 53.5658 38.7793 53.3818 38.7793 53.1509V41.1231C38.7793 40.8922 38.9607 40.7083 39.1884 40.7083C39.416 40.7083 39.5974 40.8922 39.5974 41.1231V53.1509C39.5974 53.3782 39.416 53.5658 39.1884 53.5658Z" fill="#424A5D" stroke="white" stroke-width="0.69" stroke-linejoin="round"/>
<path d="M194.084 31.7471H44.2676V117.612H194.084V31.7471Z" fill="white" stroke="#424A5D" stroke-linecap="round" stroke-linejoin="round"/>
<path d="M194.084 31.7471H69.1641V36.8266H194.084V31.7471Z" fill="#FFD336" stroke="#424A5D" stroke-linecap="round" stroke-linejoin="round"/>
<path d="M50.4316 84.8762H154.158" stroke="#CCCCCC" stroke-linecap="round" stroke-linejoin="round"/>
<path d="M50.4316 82.7043H154.158" stroke="#CCCCCC" stroke-linecap="round" stroke-linejoin="round"/>
<path d="M50.4316 80.5327H154.158" stroke="#CCCCCC" stroke-linecap="round" stroke-linejoin="round"/>
<path d="M50.4316 78.3608H154.158" stroke="#CCCCCC" stroke-linecap="round" stroke-linejoin="round"/>
<path d="M50.4316 76.1892H154.158" stroke="#CCCCCC" stroke-linecap="round" stroke-linejoin="round"/>
<path d="M50.4316 74.0173H154.158" stroke="#CCCCCC" stroke-linecap="round" stroke-linejoin="round"/>
<path d="M50.4316 71.8455H154.158" stroke="#CCCCCC" stroke-linecap="round" stroke-linejoin="round"/>
<path d="M50.4316 69.6738H154.158" stroke="#CCCCCC" stroke-linecap="round" stroke-linejoin="round"/>
<path d="M50.4316 67.502H154.158" stroke="#CCCCCC" stroke-linecap="round" stroke-linejoin="round"/>
<path d="M50.4316 65.3303H154.158" stroke="#CCCCCC" stroke-linecap="round" stroke-linejoin="round"/>
<path d="M50.4316 63.1584H154.158" stroke="#CCCCCC" stroke-linecap="round" stroke-linejoin="round"/>
<path d="M50.4316 60.9902H154.158" stroke="#CCCCCC" stroke-linecap="round" stroke-linejoin="round"/>
<path d="M50.4316 58.8186H154.158" stroke="#CCCCCC" stroke-linecap="round" stroke-linejoin="round"/>
<path d="M50.4316 56.6467H154.158" stroke="#CCCCCC" stroke-linecap="round" stroke-linejoin="round"/>
<path d="M50.4316 54.4749H154.158" stroke="#CCCCCC" stroke-linecap="round" stroke-linejoin="round"/>
<path d="M50.4316 52.3032H154.158" stroke="#CCCCCC" stroke-linecap="round" stroke-linejoin="round"/>
<path d="M58.0435 49.8896H53.999V84.6345H58.0435V49.8896Z" fill="#FFD336"/>
<path d="M63.397 68.7107H59.3525V84.6347H63.397V68.7107Z" fill="#FFD336"/>
<path d="M68.7505 71.604H64.7061V84.6347H68.7505V71.604Z" fill="#FFD336"/>
<path d="M74.104 54.9548H70.0596V84.631H74.104V54.9548Z" fill="#FFD336"/>
<path d="M79.4576 69.6738H75.4131V84.6346H79.4576V69.6738Z" fill="#FFD336"/>
<path d="M84.8111 62.9204H80.7666V84.6346H84.8111V62.9204Z" fill="#FFD336"/>
<path d="M90.1607 54.4751H86.1162V84.6347H90.1607V54.4751Z" fill="#FFD336"/>
<path d="M95.5142 45.3044H91.4697V84.6346H95.5142V45.3044Z" fill="#FFD336"/>
<path d="M100.868 64.1252H96.8232V84.6345H100.868V64.1252Z" fill="#FFD336"/>
<path d="M106.221 72.8125H102.177V84.6346H106.221V72.8125Z" fill="#FFD336"/>
<path d="M111.575 77.6357H107.53V84.6345H111.575V77.6357Z" fill="#FFD336"/>
<path d="M116.925 72.0874H112.881V84.6347H116.925V72.0874Z" fill="#FFD336"/>
<path d="M122.279 60.0234H118.234V84.6345H122.279V60.0234Z" fill="#FFD336"/>
<path d="M127.632 80.291H123.588V84.6346H127.632V80.291Z" fill="#FFD336"/>
<path d="M132.985 71.604H128.94V84.6347H132.985V71.604Z" fill="#FFD336"/>
<path d="M138.338 77.394H134.294V84.6309H138.338V77.394Z" fill="#FFD336"/>
<path d="M143.692 45.5461H139.647V84.6346H143.692V45.5461Z" fill="#FFD336"/>
<path d="M149.043 52.3032H144.998V84.6346H149.043V52.3032Z" fill="#FFD336"/>
<path d="M52.004 40.5784V40.2429H52.5767V40.5784C53.0747 40.6831 53.3309 41.0691 53.3309 41.686V41.8303H52.6657V41.6427C52.6657 41.318 52.5376 41.1953 52.3135 41.1953C52.0894 41.1953 51.9614 41.318 51.9614 41.6427C51.9614 42.5734 53.3344 42.6203 53.3344 43.9155C53.3344 44.5324 53.0712 44.9256 52.5732 45.0302V45.3621H52.0005V45.0302C51.4954 44.9256 51.2393 44.5324 51.2393 43.9155V43.6052H51.9044V43.9624C51.9044 44.287 52.0467 44.4025 52.2673 44.4025C52.4878 44.4025 52.6301 44.287 52.6301 43.9624C52.6301 43.0316 51.257 42.9847 51.257 41.6896C51.257 41.0799 51.506 40.6939 51.9969 40.582L52.004 40.5784Z" fill="#424A5D"/>
<path d="M54.8392 41.1267C54.6151 41.1267 54.4764 41.2494 54.4764 41.5741V42.0611H53.8112V41.621C53.8112 40.8958 54.1669 40.481 54.857 40.481C55.5471 40.481 55.9028 40.8958 55.9028 41.621C55.9028 43.046 54.5048 43.5763 54.5048 44.3195C54.5048 44.3519 54.5048 44.3844 54.5119 44.4169H55.8387V45.0626H53.8076V44.507C53.8076 43.1722 55.1985 42.9522 55.1985 41.6462C55.1985 41.2386 55.0597 41.1267 54.8356 41.1267H54.8392Z" fill="#424A5D"/>
<path d="M56.2793 41.621C56.2793 40.8958 56.6564 40.481 57.3464 40.481C58.0365 40.481 58.4136 40.8958 58.4136 41.621V43.9767C58.4136 44.7019 58.0365 45.1167 57.3464 45.1167C56.6564 45.1167 56.2793 44.7019 56.2793 43.9767V41.621ZM56.9836 44.02C56.9836 44.3447 57.1223 44.4674 57.3464 44.4674C57.5705 44.4674 57.7093 44.3447 57.7093 44.02V41.5741C57.7093 41.2494 57.5705 41.1267 57.3464 41.1267C57.1223 41.1267 56.9836 41.2494 56.9836 41.5741V44.02Z" fill="#424A5D"/>
<path d="M59.5421 44.3772V45.0626H58.8662V44.3772H59.5421Z" fill="#424A5D"/>
<path d="M61.4055 41.6462C61.4055 41.2386 61.2668 41.1267 61.0427 41.1267C60.8186 41.1267 60.6798 41.2494 60.6798 41.5741V41.8663H60.0146V41.621C60.0146 40.8958 60.3704 40.481 61.0604 40.481C61.7505 40.481 62.1063 40.8958 62.1063 41.621V41.7364C62.1063 42.2234 61.9533 42.5265 61.6154 42.6672C61.9675 42.8223 62.1063 43.1578 62.1063 43.6196V43.9767C62.1063 44.7019 61.7505 45.1167 61.0604 45.1167C60.3704 45.1167 60.0146 44.7019 60.0146 43.9767V43.6015H60.6798V44.0236C60.6798 44.3483 60.8221 44.471 61.0427 44.471C61.2632 44.471 61.4055 44.3591 61.4055 43.9587V43.6015C61.4055 43.1794 61.2668 43.0243 60.9466 43.0243H60.7119V42.3786H60.9858C61.249 42.3786 61.4055 42.2631 61.4055 41.8987V41.6462Z" fill="#424A5D"/>
<path d="M62.5329 41.6572C62.5329 40.8924 62.8779 40.4775 63.6036 40.4775C64.2936 40.4775 64.6494 40.8924 64.6494 41.6175V41.733H63.9842V41.5706C63.9842 41.246 63.8419 41.1233 63.6213 41.1233C63.3723 41.1233 63.2336 41.246 63.2336 41.6789V42.5086C63.3546 42.2489 63.5715 42.1082 63.8846 42.1082C64.4004 42.1082 64.6636 42.4762 64.6636 43.1436V43.9733C64.6636 44.6984 64.2865 45.1133 63.5964 45.1133C62.9064 45.1133 62.5293 44.6984 62.5293 43.9733V41.6572H62.5329ZM63.2336 43.2049V44.0202C63.2336 44.3449 63.3723 44.4603 63.5964 44.4603C63.8205 44.4603 63.9593 44.3449 63.9593 44.0202V43.2049C63.9593 42.8802 63.8205 42.7575 63.5964 42.7575C63.3723 42.7575 63.2336 42.8802 63.2336 43.2049Z" fill="#424A5D"/>
<path d="M66.1119 45.1167C65.404 45.1167 65.0127 44.7019 65.0127 43.9767V43.6196C65.0127 43.1867 65.1408 42.8475 65.4467 42.6744C65.1514 42.512 65.0127 42.209 65.0127 41.7617V41.621C65.0127 40.8958 65.4004 40.481 66.1119 40.481C66.8233 40.481 67.211 40.8958 67.211 41.621V41.7617C67.211 42.209 67.0652 42.512 66.777 42.6744C67.083 42.8475 67.211 43.1867 67.211 43.6196V43.9767C67.211 44.7019 66.8233 45.1167 66.1119 45.1167ZM65.717 41.8987C65.717 42.2595 65.8842 42.3786 66.1119 42.3786C66.3395 42.3786 66.5067 42.2631 66.5067 41.8987V41.6462C66.5067 41.2386 66.336 41.1267 66.1119 41.1267C65.8878 41.1267 65.717 41.2386 65.717 41.6462V41.8987ZM66.1119 44.4674C66.336 44.4674 66.4996 44.3555 66.5067 43.9551V43.533C66.5067 43.1758 66.3609 43.0207 66.1119 43.0207C65.8629 43.0207 65.717 43.1758 65.717 43.533V43.9551C65.717 44.3555 65.8878 44.4674 66.1119 44.4674Z" fill="#424A5D"/>
<path d="M67.6309 45.0626V44.3772H68.3067V44.9941L68.0008 45.712H67.7127L67.8976 45.0663H67.6309V45.0626Z" fill="#424A5D"/>
<path d="M69.847 41.1267C69.6229 41.1267 69.4842 41.2494 69.4842 41.5741V42.0611H68.819V41.621C68.819 40.8958 69.1747 40.481 69.8648 40.481C70.5549 40.481 70.9106 40.8958 70.9106 41.621C70.9106 43.046 69.5126 43.5763 69.5126 44.3195C69.5126 44.3519 69.5126 44.3844 69.5197 44.4169H70.8466V45.0626H68.8154V44.507C68.8154 43.1722 70.2063 42.9522 70.2063 41.6462C70.2063 41.2386 70.0675 41.1267 69.8434 41.1267H69.847Z" fill="#424A5D"/>
<path d="M72.6994 41.6462C72.6994 41.2386 72.5607 41.1267 72.3366 41.1267C72.1125 41.1267 71.9738 41.2494 71.9738 41.5741V41.8663H71.3086V41.621C71.3086 40.8958 71.6643 40.481 72.3544 40.481C73.0445 40.481 73.4002 40.8958 73.4002 41.621V41.7364C73.4002 42.2234 73.2472 42.5265 72.9093 42.6672C73.2615 42.8223 73.4002 43.1578 73.4002 43.6196V43.9767C73.4002 44.7019 73.0445 45.1167 72.3544 45.1167C71.6643 45.1167 71.3086 44.7019 71.3086 43.9767V43.6015H71.9738V44.0236C71.9738 44.3483 72.1161 44.471 72.3366 44.471C72.5572 44.471 72.6994 44.3591 72.6994 43.9587V43.6015C72.6994 43.1794 72.5607 43.0243 72.2406 43.0243H72.0058V42.3786H72.2797C72.5429 42.3786 72.6994 42.2631 72.6994 41.8987V41.6462Z" fill="#424A5D"/>
<path d="M189.626 41.116H156.498V84.768H189.626V41.116Z" fill="#424A5D"/>
<path d="M162.232 43.7964H166.618" stroke="#757575" stroke-miterlimit="10"/>
<path d="M169.087 43.7964H173.473" stroke="#757575" stroke-miterlimit="10"/>
<path d="M175.941 43.7964H180.327" stroke="#757575" stroke-miterlimit="10"/>
<path d="M182.793 43.7964H187.179" stroke="#757575" stroke-miterlimit="10"/>
<path d="M167.87 41.769V84.1656" stroke="white" stroke-miterlimit="10"/>
<path d="M161.009 41.769V84.1656" stroke="white" stroke-miterlimit="10"/>
<path d="M174.843 41.769V84.1656" stroke="white" stroke-miterlimit="10"/>
<path d="M181.814 41.769V84.1656" stroke="white" stroke-miterlimit="10"/>
<path d="M158.999 42.9377L158.191 44.3519H159.803L158.999 42.9377Z" fill="white"/>
<path d="M162.232 47.083H166.618" stroke="#757575" stroke-miterlimit="10"/>
<path d="M169.087 47.083H173.473" stroke="#757575" stroke-miterlimit="10"/>
<path d="M175.941 47.083H180.327" stroke="#757575" stroke-miterlimit="10"/>
<path d="M182.793 47.083H187.179" stroke="#757575" stroke-miterlimit="10"/>
<path d="M158.999 47.6385L159.803 46.2207H158.191L158.999 47.6385Z" fill="#FFD336"/>
<path d="M162.232 50.3694H166.618" stroke="#757575" stroke-miterlimit="10"/>
<path d="M169.087 50.3694H173.473" stroke="#757575" stroke-miterlimit="10"/>
<path d="M175.941 50.3694H180.327" stroke="#757575" stroke-miterlimit="10"/>
<path d="M182.793 50.3694H187.179" stroke="#757575" stroke-miterlimit="10"/>
<path d="M158.999 49.5073L158.191 50.9251H159.803L158.999 49.5073Z" fill="white"/>
<path d="M162.232 53.656H166.618" stroke="#757575" stroke-miterlimit="10"/>
<path d="M169.087 53.656H173.473" stroke="#757575" stroke-miterlimit="10"/>
<path d="M175.941 53.656H180.327" stroke="#757575" stroke-miterlimit="10"/>
<path d="M182.793 53.656H187.179" stroke="#757575" stroke-miterlimit="10"/>
<path d="M158.999 54.2115L159.803 52.7937H158.191L158.999 54.2115Z" fill="#FFD336"/>
<path d="M162.232 56.939H166.618" stroke="#757575" stroke-miterlimit="10"/>
<path d="M169.087 56.939H173.473" stroke="#757575" stroke-miterlimit="10"/>
<path d="M175.941 56.939H180.327" stroke="#757575" stroke-miterlimit="10"/>
<path d="M182.793 56.939H187.179" stroke="#757575" stroke-miterlimit="10"/>
<path d="M158.999 57.4945L159.803 56.0803H158.191L158.999 57.4945Z" fill="#FFD336"/>
<path d="M162.232 60.2253H166.618" stroke="#757575" stroke-miterlimit="10"/>
<path d="M169.087 60.2253H173.473" stroke="#757575" stroke-miterlimit="10"/>
<path d="M175.941 60.2253H180.327" stroke="#757575" stroke-miterlimit="10"/>
<path d="M182.793 60.2253H187.179" stroke="#757575" stroke-miterlimit="10"/>
<path d="M158.999 60.7811L159.803 59.3669H158.191L158.999 60.7811Z" fill="#FFD336"/>
<path d="M162.232 63.512H166.618" stroke="#757575" stroke-miterlimit="10"/>
<path d="M169.087 63.512H173.473" stroke="#757575" stroke-miterlimit="10"/>
<path d="M175.941 63.512H180.327" stroke="#757575" stroke-miterlimit="10"/>
<path d="M182.793 63.512H187.179" stroke="#757575" stroke-miterlimit="10"/>
<path d="M158.999 62.6533L158.191 64.0675H159.803L158.999 62.6533Z" fill="white"/>
<path d="M162.232 66.7986H166.618" stroke="#757575" stroke-miterlimit="10"/>
<path d="M169.087 66.7986H173.473" stroke="#757575" stroke-miterlimit="10"/>
<path d="M175.941 66.7986H180.327" stroke="#757575" stroke-miterlimit="10"/>
<path d="M182.793 66.7986H187.179" stroke="#757575" stroke-miterlimit="10"/>
<path d="M158.999 65.9399L158.191 67.3541H159.803L158.999 65.9399Z" fill="white"/>
<path d="M162.232 70.085H166.618" stroke="#757575" stroke-miterlimit="10"/>
<path d="M169.087 70.085H173.473" stroke="#757575" stroke-miterlimit="10"/>
<path d="M175.941 70.085H180.327" stroke="#757575" stroke-miterlimit="10"/>
<path d="M182.793 70.085H187.179" stroke="#757575" stroke-miterlimit="10"/>
<path d="M158.999 70.6407L159.803 69.2229H158.191L158.999 70.6407Z" fill="#FFD336"/>
<path d="M162.232 73.3716H166.618" stroke="#757575" stroke-miterlimit="10"/>
<path d="M169.087 73.3716H173.473" stroke="#757575" stroke-miterlimit="10"/>
<path d="M175.941 73.3716H180.327" stroke="#757575" stroke-miterlimit="10"/>
<path d="M182.793 73.3716H187.179" stroke="#757575" stroke-miterlimit="10"/>
<path d="M158.999 72.5093L158.191 73.9271H159.803L158.999 72.5093Z" fill="white"/>
<path d="M162.232 76.6545H166.618" stroke="#757575" stroke-miterlimit="10"/>
<path d="M169.087 76.6545H173.473" stroke="#757575" stroke-miterlimit="10"/>
<path d="M175.941 76.6545H180.327" stroke="#757575" stroke-miterlimit="10"/>
<path d="M182.793 76.6545H187.179" stroke="#757575" stroke-miterlimit="10"/>
<path d="M158.999 77.2137L159.803 75.7959H158.191L158.999 77.2137Z" fill="#FFD336"/>
<path d="M157.747 45.3188H188.769" stroke="white" stroke-miterlimit="10"/>
<path d="M157.747 48.6018H188.769" stroke="white" stroke-miterlimit="10"/>
<path d="M157.747 51.8882H188.769" stroke="white" stroke-miterlimit="10"/>
<path d="M157.747 55.1748H188.769" stroke="white" stroke-miterlimit="10"/>
<path d="M157.747 58.4614H188.769" stroke="white" stroke-miterlimit="10"/>
<path d="M157.747 61.7478H188.769" stroke="white" stroke-miterlimit="10"/>
<path d="M157.747 65.0344H188.769" stroke="white" stroke-miterlimit="10"/>
<path d="M157.747 68.321H188.769" stroke="white" stroke-miterlimit="10"/>
<path d="M157.747 71.6038H188.769" stroke="white" stroke-miterlimit="10"/>
<path d="M157.747 74.8904H188.769" stroke="white" stroke-miterlimit="10"/>
<path d="M157.747 78.177H188.769" stroke="white" stroke-miterlimit="10"/>
<path d="M157.747 81.4634H188.769" stroke="white" stroke-miterlimit="10"/>
<path d="M162.232 79.9409H166.618" stroke="#757575" stroke-miterlimit="10"/>
<path d="M169.087 79.9409H173.473" stroke="#757575" stroke-miterlimit="10"/>
<path d="M175.941 79.9409H180.327" stroke="#757575" stroke-miterlimit="10"/>
<path d="M182.793 79.9409H187.179" stroke="#757575" stroke-miterlimit="10"/>
<path d="M158.999 79.0825L158.191 80.4967H159.803L158.999 79.0825Z" fill="white"/>
<path d="M162.232 83.2275H166.618" stroke="#757575" stroke-miterlimit="10"/>
<path d="M169.087 83.2275H173.473" stroke="#757575" stroke-miterlimit="10"/>
<path d="M175.941 83.2275H180.327" stroke="#757575" stroke-miterlimit="10"/>
<path d="M182.793 83.2275H187.179" stroke="#757575" stroke-miterlimit="10"/>
<path d="M158.999 83.7831L159.803 82.3689H158.191L158.999 83.7831Z" fill="#FFD336"/>
<path d="M150.925 97.3044C150.925 96.7452 151.177 96.4421 151.711 96.4421C152.216 96.4421 152.476 96.7452 152.476 97.2755V97.3621H151.988V97.243C151.988 97.0049 151.885 96.9147 151.722 96.9147C151.54 96.9147 151.437 97.0049 151.437 97.3224V97.9285C151.526 97.7373 151.686 97.6363 151.914 97.6363C152.291 97.6363 152.483 97.9068 152.483 98.3939V98.9999C152.483 99.5302 152.209 99.8333 151.704 99.8333C151.199 99.8333 150.925 99.5302 150.925 98.9999V97.3044ZM151.441 98.4371V99.036C151.441 99.2741 151.544 99.3571 151.707 99.3571C151.871 99.3571 151.974 99.2705 151.974 99.036V98.4371C151.974 98.199 151.871 98.1089 151.707 98.1089C151.544 98.1089 151.441 98.199 151.441 98.4371Z" fill="#424A5D"/>
<path d="M152.768 97.2755C152.768 96.7452 153.045 96.4421 153.547 96.4421C154.048 96.4421 154.326 96.7452 154.326 97.2755V98.9999C154.326 99.5302 154.052 99.8333 153.547 99.8333C153.041 99.8333 152.768 99.5302 152.768 98.9999V97.2755ZM153.28 99.036C153.28 99.2741 153.383 99.3643 153.547 99.3643C153.71 99.3643 153.813 99.2741 153.813 99.036V97.243C153.813 97.0049 153.71 96.9147 153.547 96.9147C153.383 96.9147 153.28 97.0049 153.28 97.243V99.036Z" fill="#424A5D"/>
<path d="M154.632 96.9869C154.632 96.6441 154.806 96.4565 155.126 96.4565C155.446 96.4565 155.621 96.6477 155.621 96.9869V98.0764C155.621 98.4191 155.446 98.6067 155.126 98.6067C154.806 98.6067 154.632 98.4155 154.632 98.0764V96.9869ZM154.959 98.1016C154.959 98.2495 155.02 98.3109 155.126 98.3109C155.233 98.3109 155.293 98.2495 155.293 98.1016V96.9652C155.293 96.8173 155.229 96.756 155.126 96.756C155.023 96.756 154.959 96.8173 154.959 96.9652V98.1016ZM156.418 96.4782H156.72L155.429 99.7972H155.126L156.418 96.4782ZM156.254 98.199C156.254 97.8563 156.428 97.6687 156.748 97.6687C157.068 97.6687 157.243 97.8599 157.243 98.199V99.2885C157.243 99.6312 157.068 99.8188 156.748 99.8188C156.428 99.8188 156.254 99.6276 156.254 99.2885V98.199ZM156.581 99.3138C156.581 99.4617 156.642 99.523 156.748 99.523C156.855 99.523 156.916 99.4617 156.916 99.3138V98.1774C156.916 98.0295 156.851 97.9681 156.748 97.9681C156.645 97.9681 156.581 98.0295 156.581 98.1774V99.3138Z" fill="#424A5D"/>
<path d="M151.95 102.506C151.95 102.207 151.846 102.128 151.683 102.128C151.519 102.128 151.416 102.218 151.416 102.456V102.669H150.929V102.488C150.929 101.958 151.192 101.655 151.697 101.655C152.202 101.655 152.462 101.958 152.462 102.488V102.575C152.462 102.932 152.348 103.152 152.103 103.257C152.359 103.372 152.462 103.618 152.462 103.953V104.213C152.462 104.743 152.199 105.046 151.697 105.046C151.195 105.046 150.929 104.743 150.929 104.213V103.939H151.416V104.245C151.416 104.483 151.519 104.574 151.683 104.574C151.846 104.574 151.95 104.494 151.95 104.198V103.939C151.95 103.632 151.846 103.517 151.612 103.517H151.437V103.044H151.637C151.829 103.044 151.946 102.957 151.946 102.694V102.51L151.95 102.506Z" fill="#424A5D"/>
<path d="M152.768 102.488C152.768 101.958 153.045 101.655 153.547 101.655C154.048 101.655 154.326 101.958 154.326 102.488V104.213C154.326 104.743 154.052 105.046 153.547 105.046C153.041 105.046 152.768 104.743 152.768 104.213V102.488ZM153.28 104.245C153.28 104.483 153.383 104.574 153.547 104.574C153.71 104.574 153.813 104.483 153.813 104.245V102.452C153.813 102.214 153.71 102.124 153.547 102.124C153.383 102.124 153.28 102.214 153.28 102.452V104.245Z" fill="#424A5D"/>
<path d="M154.632 102.196C154.632 101.853 154.806 101.666 155.126 101.666C155.446 101.666 155.621 101.857 155.621 102.196V103.286C155.621 103.628 155.446 103.816 155.126 103.816C154.806 103.816 154.632 103.625 154.632 103.286V102.196ZM154.959 103.311C154.959 103.459 155.02 103.52 155.126 103.52C155.233 103.52 155.293 103.459 155.293 103.311V102.174C155.293 102.027 155.229 101.965 155.126 101.965C155.023 101.965 154.959 102.027 154.959 102.174V103.311ZM156.418 101.691H156.72L155.429 105.01H155.126L156.418 101.691ZM156.254 103.412C156.254 103.069 156.428 102.882 156.748 102.882C157.068 102.882 157.243 103.073 157.243 103.412V104.501C157.243 104.844 157.068 105.032 156.748 105.032C156.428 105.032 156.254 104.84 156.254 104.501V103.412ZM156.581 104.523C156.581 104.671 156.642 104.732 156.748 104.732C156.855 104.732 156.916 104.671 156.916 104.523V103.387C156.916 103.239 156.851 103.177 156.748 103.177C156.645 103.177 156.581 103.239 156.581 103.387V104.523Z" fill="#424A5D"/>
<path d="M151.711 107.337C151.547 107.337 151.444 107.427 151.444 107.665V108.023H150.957V107.702C150.957 107.171 151.22 106.868 151.721 106.868C152.223 106.868 152.49 107.171 152.49 107.702C152.49 108.744 151.465 109.134 151.465 109.678C151.465 109.704 151.465 109.725 151.469 109.751H152.44V110.223H150.953V109.816C150.953 108.838 151.97 108.679 151.97 107.72C151.97 107.42 151.867 107.341 151.704 107.341L151.711 107.337Z" fill="#424A5D"/>
<path d="M152.768 107.698C152.768 107.168 153.045 106.865 153.547 106.865C154.048 106.865 154.326 107.168 154.326 107.698V109.422C154.326 109.953 154.052 110.256 153.547 110.256C153.041 110.256 152.768 109.953 152.768 109.422V107.698ZM153.28 109.455C153.28 109.693 153.383 109.783 153.547 109.783C153.71 109.783 153.813 109.693 153.813 109.455V107.662C153.813 107.424 153.71 107.333 153.547 107.333C153.383 107.333 153.28 107.424 153.28 107.662V109.455Z" fill="#424A5D"/>
<path d="M154.631 107.409C154.631 107.067 154.805 106.879 155.125 106.879C155.445 106.879 155.62 107.07 155.62 107.409V108.499C155.62 108.841 155.445 109.029 155.125 109.029C154.805 109.029 154.631 108.838 154.631 108.499V107.409ZM154.958 108.524C154.958 108.672 155.019 108.733 155.125 108.733C155.232 108.733 155.292 108.672 155.292 108.524V107.388C155.292 107.24 155.228 107.178 155.125 107.178C155.022 107.178 154.958 107.24 154.958 107.388V108.524ZM156.417 106.901H156.719L155.428 110.22H155.125L156.417 106.901ZM156.253 108.621C156.253 108.279 156.427 108.091 156.747 108.091C157.067 108.091 157.242 108.282 157.242 108.621V109.711C157.242 110.054 157.067 110.241 156.747 110.241C156.427 110.241 156.253 110.05 156.253 109.711V108.621ZM156.58 109.736C156.58 109.884 156.641 109.945 156.747 109.945C156.854 109.945 156.915 109.884 156.915 109.736V108.6C156.915 108.452 156.851 108.39 156.747 108.39C156.644 108.39 156.58 108.452 156.58 108.6V109.736Z" fill="#424A5D"/>
<path d="M129.102 110.739C126.893 109.293 125.431 106.774 125.431 103.91C125.431 99.4221 129.016 95.7856 133.441 95.7856C135.352 95.7856 137.105 96.4639 138.482 97.5931" stroke="#424A5D" stroke-width="6" stroke-linejoin="round"/>
<path d="M139.812 108.834C138.35 110.779 136.038 112.034 133.441 112.034C131.841 112.034 130.354 111.558 129.102 110.739" stroke="#757575" stroke-width="6" stroke-linejoin="round"/>
<path d="M138.479 97.5964C140.289 99.0864 141.449 101.359 141.449 103.91C141.449 105.76 140.837 107.467 139.809 108.834" stroke="#FFD336" stroke-width="6" stroke-linejoin="round"/>
<path d="M147.342 99.725C148.093 99.725 148.701 99.108 148.701 98.3469C148.701 97.5858 148.093 96.9688 147.342 96.9688C146.592 96.9688 145.983 97.5858 145.983 98.3469C145.983 99.108 146.592 99.725 147.342 99.725Z" fill="#424A5D"/>
<path d="M147.342 104.783C148.093 104.783 148.701 104.166 148.701 103.405C148.701 102.644 148.093 102.027 147.342 102.027C146.592 102.027 145.983 102.644 145.983 103.405C145.983 104.166 146.592 104.783 147.342 104.783Z" fill="#C4F0D1"/>
<path d="M147.342 109.841C148.093 109.841 148.701 109.224 148.701 108.463C148.701 107.701 148.093 107.084 147.342 107.084C146.592 107.084 145.983 107.701 145.983 108.463C145.983 109.224 146.592 109.841 147.342 109.841Z" fill="#757575"/>
<path d="M157.936 89.5408H126.48V90.6339H157.936V89.5408Z" fill="#CCCCCC"/>
<path d="M55.1201 93.1555H117.815" stroke="#CCCCCC" stroke-linecap="round" stroke-linejoin="round"/>
<path d="M55.1201 96.1318H117.815" stroke="#CCCCCC" stroke-linecap="round" stroke-linejoin="round"/>
<path d="M55.1201 99.1082H117.815" stroke="#CCCCCC" stroke-linecap="round" stroke-linejoin="round"/>
<path d="M55.1201 102.084H117.815" stroke="#CCCCCC" stroke-linecap="round" stroke-linejoin="round"/>
<path d="M55.1201 105.061H117.815" stroke="#CCCCCC" stroke-linecap="round" stroke-linejoin="round"/>
<path d="M55.1201 108.037H117.815" stroke="#CCCCCC" stroke-linecap="round" stroke-linejoin="round"/>
<path d="M55.1201 111.013H117.815" stroke="#CCCCCC" stroke-linecap="round" stroke-linejoin="round"/>
<path d="M55.1201 113.99H117.815" stroke="#CCCCCC" stroke-linecap="round" stroke-linejoin="round"/>
<path d="M50.6768 93.1555H53.6968" stroke="#CCCCCC" stroke-linecap="round" stroke-linejoin="round"/>
<path d="M50.6768 96.1318H53.6968" stroke="#CCCCCC" stroke-linecap="round" stroke-linejoin="round"/>
<path d="M50.6768 99.1082H53.6968" stroke="#CCCCCC" stroke-linecap="round" stroke-linejoin="round"/>
<path d="M50.6768 102.084H53.6968" stroke="#CCCCCC" stroke-linecap="round" stroke-linejoin="round"/>
<path d="M50.6768 105.061H53.6968" stroke="#CCCCCC" stroke-linecap="round" stroke-linejoin="round"/>
<path d="M50.6768 108.037H53.6968" stroke="#CCCCCC" stroke-linecap="round" stroke-linejoin="round"/>
<path d="M50.6768 111.013H53.6968" stroke="#CCCCCC" stroke-linecap="round" stroke-linejoin="round"/>
<path d="M50.6768 113.99H53.6968" stroke="#CCCCCC" stroke-linecap="round" stroke-linejoin="round"/>
<path d="M56.2334 100.01L56.9804 99.3354L57.3966 100.346L58.3961 99.6709L58.727 100.515L59.6411 98.0691L60.0573 98.8267L60.3063 100.428L61.2205 100.768L61.6367 102.2L62.2201 102.791L62.7181 101.612L63.8813 104.054L64.3793 103.888L65.4606 110.126L65.8768 109.199L66.6238 111.053L67.787 103.802L68.7866 105.49L69.6189 103.888L70.1987 105.237L70.9457 104.563L71.5291 105.995L72.8595 104.563L73.4429 106.417L74.7732 107.092L75.4384 105.49L76.1 105.403L76.6834 104.393H77.2668L77.6794 106.839L78.3446 104.307L79.177 104.141L80.0093 103.549L80.7563 104.054L81.3397 106.331L81.9195 105.912L82.9191 107.597L83.4989 106.583L84.0004 107.597L84.4166 107.258L85.0783 107.427L86.3268 105.743L87.1592 106.67L87.739 104.981L88.4042 105.49L89.0694 101.442L89.5674 102.03L90.6488 98.2387H91.0649L91.3139 96.3844L92.1463 96.2978L92.4771 94.4435L93.3095 96.7199L93.8075 95.7098L94.3909 99.5013L95.1379 99.7539L95.5541 98.4912L96.9662 97.4775L97.7168 99.3354L97.7986 102.622L98.7982 103.127L99.7124 101.442L100.459 101.695L101.374 101.612L101.957 102.791L102.622 101.19H103.12L104.699 104.815L105.116 103.549L105.781 103.636L106.61 105.656L107.527 104.224L108.189 97.3945L109.107 98.4912L109.438 93.0942L110.27 94.108L110.686 96.9724L111.682 96.5503L112.429 98.9133L113.013 99.1658L113.343 103.549L113.845 102.539L114.094 101.359L115.424 101.695L116.004 101.359L117.085 102.874" stroke="#FFD336" stroke-width="2" stroke-miterlimit="10"/>
<path d="M58.4807 87.8958H51.0107V91.7342H58.4807V87.8958Z" fill="white" stroke="#424A5D" stroke-linecap="round" stroke-linejoin="round"/>
<path d="M58.481 87.8958V88.8085C57.983 88.8085 57.5811 88.4008 57.5811 87.8958H58.481Z" fill="white" stroke="#424A5D" stroke-linecap="round" stroke-linejoin="round"/>
<path d="M57.5882 91.7344C57.5882 91.6947 57.5811 91.655 57.5811 91.6117C57.5811 91.1066 57.983 90.699 58.481 90.699" fill="white"/>
<path d="M57.5882 91.7344C57.5882 91.6947 57.5811 91.655 57.5811 91.6117C57.5811 91.1066 57.983 90.699 58.481 90.699" stroke="#424A5D" stroke-linecap="round" stroke-linejoin="round"/>
<path d="M51.0107 88.8085H51.0356C51.5301 88.8085 51.9356 88.4008 51.9356 87.8958" fill="white"/>
<path d="M51.0107 88.8085H51.0356C51.5301 88.8085 51.9356 88.4008 51.9356 87.8958" stroke="#424A5D" stroke-linecap="round" stroke-linejoin="round"/>
<path d="M51.9356 91.6117C51.9356 91.655 51.9356 91.6947 51.9285 91.7344H51.0107V90.699H51.0356C51.5301 90.699 51.9356 91.1066 51.9356 91.6117Z" fill="white" stroke="#424A5D" stroke-linecap="round" stroke-linejoin="round"/>
<path d="M55.9126 89.8149C55.9126 89.1619 55.3897 88.6316 54.7458 88.6316C54.102 88.6316 53.5791 89.1619 53.5791 89.8149C53.5791 90.4679 54.102 90.9982 54.7458 90.9982C55.3897 90.9982 55.9126 90.4679 55.9126 89.8149Z" fill="white" stroke="#424A5D" stroke-linecap="round" stroke-linejoin="round"/>
<path d="M54.6497 89.0791V88.9673H54.8418V89.0791C55.0054 89.1152 55.0908 89.2415 55.0908 89.4471V89.494H54.8702V89.4327C54.8702 89.3244 54.8275 89.2848 54.7528 89.2848C54.6781 89.2848 54.6354 89.3244 54.6354 89.4327C54.6354 89.7429 55.0908 89.7574 55.0908 90.1867C55.0908 90.3923 55.0054 90.5222 54.8382 90.5546V90.6629H54.6461V90.5546C54.4789 90.5186 54.3936 90.3887 54.3936 90.1867V90.082H54.6141V90.2011C54.6141 90.3093 54.6603 90.3454 54.735 90.3454C54.8097 90.3454 54.856 90.3057 54.856 90.2011C54.856 89.8908 54.4007 89.8764 54.4007 89.4471C54.4007 89.2451 54.4825 89.1152 54.6461 89.0791H54.6497Z" fill="#424A5D"/>
<path d="M92.2244 89.5408H60.7686V90.6339H92.2244V89.5408Z" fill="#CCCCCC"/>
<path d="M188.9 92.8743H164.267V95.2553H188.9V92.8743Z" fill="#CCCCCC"/>
<path d="M172.124 92.8743H164.267V95.2553H172.124V92.8743Z" fill="#FFD336"/>
<path d="M188.9 99.0288H164.267V101.41H188.9V99.0288Z" fill="#CCCCCC"/>
<path d="M180.74 99.0288H164.267V101.41H180.74V99.0288Z" fill="#FFD336"/>
<path d="M188.9 105.183H164.267V107.564H188.9V105.183Z" fill="#CCCCCC"/>
<path d="M167.742 105.183H164.267V107.564H167.742V105.183Z" fill="#FFD336"/>
<path d="M188.9 111.338H164.267V113.719H188.9V111.338Z" fill="#CCCCCC"/>
<path d="M185.876 111.338H164.267V113.719H185.876V111.338Z" fill="#FFD336"/>
<path d="M188.74 89.5408H164.182V90.6339H188.74V89.5408Z" fill="#CCCCCC"/>
<path d="M59.4906 132.991C66.5295 125.852 66.5295 114.278 59.4906 107.139C52.4518 100.001 41.0396 100.001 34.0008 107.139C26.962 114.278 26.962 125.852 34.0008 132.991C41.0396 140.129 52.4518 140.129 59.4906 132.991Z" fill="white" stroke="#424A5D" stroke-width="0.6" stroke-linecap="round" stroke-linejoin="round"/>
<path d="M55.6963 104.826H56.4575" stroke="#424A5D" stroke-width="0.6" stroke-linecap="round" stroke-linejoin="round"/>
<path d="M57.4072 106.175H58.4495" stroke="#424A5D" stroke-width="0.6" stroke-linecap="round" stroke-linejoin="round"/>
<path d="M59.3066 108.102H60.1604" stroke="#424A5D" stroke-width="0.6" stroke-linecap="round" stroke-linejoin="round"/>
<path d="M61.2061 110.703H62.0598" stroke="#424A5D" stroke-width="0.6" stroke-linecap="round" stroke-linejoin="round"/>
<path d="M62.917 114.267H63.8667" stroke="#424A5D" stroke-width="0.6" stroke-linecap="round" stroke-linejoin="round"/>
<path d="M63.7246 120.065H64.7704" stroke="#424A5D" stroke-width="0.6" stroke-linecap="round" stroke-linejoin="round"/>
<path d="M55.6963 135.076H56.4575" stroke="#424A5D" stroke-width="0.6" stroke-linecap="round" stroke-linejoin="round"/>
<path d="M57.4072 133.73H58.4495" stroke="#424A5D" stroke-width="0.6" stroke-linecap="round" stroke-linejoin="round"/>
<path d="M59.3066 131.8H60.1604" stroke="#424A5D" stroke-width="0.6" stroke-linecap="round" stroke-linejoin="round"/>
<path d="M61.2061 129.199H62.0598" stroke="#424A5D" stroke-width="0.6" stroke-linecap="round" stroke-linejoin="round"/>
<path d="M62.917 125.635H63.8667" stroke="#424A5D" stroke-width="0.6" stroke-linecap="round" stroke-linejoin="round"/>
<path d="M63.2612 124.197C65.514 114.363 59.48 104.539 49.7838 102.254C40.0877 99.9697 30.4012 106.089 28.1484 115.923C25.8956 125.757 31.9296 135.581 41.6257 137.865C51.3219 140.15 61.0084 134.031 63.2612 124.197Z" fill="white" stroke="#424A5D" stroke-width="0.6" stroke-linecap="round" stroke-linejoin="round"/>
<path d="M60.7162 123.6C62.6441 115.191 57.4856 106.789 49.1944 104.834C40.9031 102.879 32.6189 108.11 30.691 116.519C28.7631 124.928 33.9216 133.33 42.2128 135.285C50.504 137.24 58.7883 132.009 60.7162 123.6Z" fill="white" stroke="#424A5D" stroke-width="0.6" stroke-linecap="round" stroke-linejoin="round"/>
<path d="M44.4202 109.725V108.221H46.9885V109.725C49.2153 110.187 50.3571 111.926 50.3571 114.675V115.31H47.3904V114.469C47.3904 113.023 46.8213 112.474 45.8217 112.474C44.8222 112.474 44.253 113.023 44.253 114.469C44.253 118.636 50.3891 118.838 50.3891 124.625C50.3891 127.374 49.2188 129.138 46.992 129.603V131.079H44.4238V129.603C42.1686 129.141 41.0303 127.374 41.0303 124.625V123.236H43.9969V124.827C43.9969 126.273 44.623 126.793 45.6225 126.793C46.6221 126.793 47.2482 126.273 47.2482 124.827C47.2482 120.66 41.1121 120.458 41.1121 114.671C41.1121 111.951 42.2255 110.216 44.4202 109.722V109.725Z" fill="white" stroke="#424A5D" stroke-width="0.6" stroke-linecap="round" stroke-linejoin="round"/>
<path d="M43.6585 109.725V108.221H46.2268V109.725C48.4535 110.187 49.5954 111.926 49.5954 114.675V115.31H46.6287V114.469C46.6287 113.023 46.0596 112.474 45.06 112.474C44.0605 112.474 43.4913 113.023 43.4913 114.469C43.4913 118.636 49.6274 118.838 49.6274 124.625C49.6274 127.374 48.4571 129.138 46.2303 129.603V131.079H43.6621V129.603C41.4068 129.141 40.2686 127.374 40.2686 124.625V123.236H43.2352V124.827C43.2352 126.273 43.8613 126.793 44.8608 126.793C45.8604 126.793 46.4864 126.273 46.4864 124.827C46.4864 120.66 40.3504 120.458 40.3504 114.671C40.3504 111.951 41.4638 110.216 43.6585 109.722V109.725Z" fill="white" stroke="#424A5D" stroke-width="0.6" stroke-linecap="round" stroke-linejoin="round"/>
<path d="M182.117 126.89C179.656 124.112 172.972 122.117 165.107 122.117C157.762 122.117 151.448 123.856 148.641 126.349L147.083 126.324V129.246C147.083 133.182 155.151 136.375 165.107 136.375C175.063 136.375 183.131 133.182 183.131 129.246V126.905L182.117 126.887V126.89Z" fill="white" stroke="#424A5D" stroke-width="0.6" stroke-linecap="round" stroke-linejoin="round"/>
<path d="M165.107 134.033C175.061 134.033 183.131 130.842 183.131 126.905C183.131 122.968 175.061 119.776 165.107 119.776C155.153 119.776 147.083 122.968 147.083 126.905C147.083 130.842 155.153 134.033 165.107 134.033Z" fill="white" stroke="#424A5D" stroke-width="0.6" stroke-linecap="round" stroke-linejoin="round"/>
<path d="M165.107 133.002C173.62 133.002 180.521 130.272 180.521 126.905C180.521 123.538 173.62 120.808 165.107 120.808C156.595 120.808 149.694 123.538 149.694 126.905C149.694 130.272 156.595 133.002 165.107 133.002Z" fill="white" stroke="#424A5D" stroke-width="0.6" stroke-linecap="round" stroke-linejoin="round"/>
<path d="M163.823 122.871V122.283H166.391V122.871C168.618 123.052 169.759 123.73 169.759 124.802V125.05H166.793V124.722C166.793 124.159 166.224 123.943 165.224 123.943C164.225 123.943 163.655 124.156 163.655 124.722C163.655 126.349 169.791 126.425 169.791 128.683C169.791 129.755 168.621 130.444 166.394 130.624V131.201H163.826V130.624C161.571 130.444 160.433 129.755 160.433 128.683V128.142H163.399V128.763C163.399 129.326 164.025 129.531 165.025 129.531C166.024 129.531 166.65 129.329 166.65 128.763C166.65 127.139 160.514 127.06 160.514 124.802C160.514 123.741 161.628 123.063 163.823 122.871Z" fill="white" stroke="#424A5D" stroke-width="0.6" stroke-linecap="round" stroke-linejoin="round"/>
<path d="M163.823 122.453V121.865H166.391V122.453C168.618 122.633 169.759 123.312 169.759 124.383V124.632H166.793V124.304C166.793 123.741 166.224 123.524 165.224 123.524C164.225 123.524 163.655 123.737 163.655 124.304C163.655 125.931 169.791 126.007 169.791 128.265C169.791 129.336 168.621 130.025 166.394 130.206V130.783H163.826V130.206C161.571 130.025 160.433 129.336 160.433 128.265V127.724H163.399V128.344C163.399 128.907 164.025 129.113 165.025 129.113C166.024 129.113 166.65 128.911 166.65 128.344C166.65 126.717 160.514 126.641 160.514 124.383C160.514 123.322 161.628 122.644 163.823 122.453Z" fill="white" stroke="#424A5D" stroke-width="0.6" stroke-linecap="round" stroke-linejoin="round"/>
<path d="M148.239 131.761V129.665" stroke="#424A5D" stroke-width="0.6" stroke-linecap="round" stroke-linejoin="round"/>
<path d="M149.637 132.724V130.797" stroke="#424A5D" stroke-width="0.6" stroke-linecap="round" stroke-linejoin="round"/>
<path d="M151.146 133.629V131.537" stroke="#424A5D" stroke-width="0.6" stroke-linecap="round" stroke-linejoin="round"/>
<path d="M153.212 134.539V132.273" stroke="#424A5D" stroke-width="0.6" stroke-linecap="round" stroke-linejoin="round"/>
<path d="M155.67 134.062V133.063" stroke="#424A5D" stroke-width="0.6" stroke-linecap="round" stroke-linejoin="round"/>
<path d="M155.67 135.274V134.877" stroke="#424A5D" stroke-width="0.6" stroke-linecap="round" stroke-linejoin="round"/>
<path d="M158.85 135.953V133.745" stroke="#424A5D" stroke-width="0.6" stroke-linecap="round" stroke-linejoin="round"/>
<path d="M163.098 134.766V133.972" stroke="#424A5D" stroke-width="0.6" stroke-linecap="round" stroke-linejoin="round"/>
<path d="M163.098 136.292V135.671" stroke="#424A5D" stroke-width="0.6" stroke-linecap="round" stroke-linejoin="round"/>
<path d="M200.689 131.656C198.416 128.546 191.874 125.97 184.027 125.411C176.7 124.888 170.286 126.277 167.319 128.709L165.769 128.571L165.576 131.656C165.32 135.812 173.164 139.755 183.095 140.462C193.027 141.169 201.287 138.373 201.543 134.214L201.696 131.743L200.685 131.652L200.689 131.656Z" fill="white" stroke="#424A5D" stroke-width="0.6" stroke-linecap="round" stroke-linejoin="round"/>
<path d="M201.696 131.771C201.989 127.617 194.177 123.665 184.246 122.943C174.315 122.221 166.026 125.003 165.733 129.156C165.439 133.31 173.252 137.262 183.183 137.984C193.114 138.706 201.402 135.924 201.696 131.771Z" fill="white" stroke="#424A5D" stroke-width="0.6" stroke-linecap="round" stroke-linejoin="round"/>
<path d="M199.091 131.581C199.342 128.028 192.661 124.647 184.169 124.029C175.676 123.412 168.588 125.792 168.337 129.345C168.085 132.899 174.766 136.28 183.259 136.897C191.752 137.515 198.84 135.135 199.091 131.581Z" fill="white" stroke="#424A5D" stroke-width="0.6" stroke-linecap="round" stroke-linejoin="round"/>
<path d="M182.697 126.118L182.736 125.498L185.298 125.682L185.258 126.302C187.467 126.652 188.563 127.446 188.492 128.579L188.474 128.842L185.515 128.633L185.536 128.286C185.572 127.691 185.017 127.424 184.021 127.352C183.025 127.28 182.441 127.468 182.402 128.063C182.295 129.78 188.414 130.296 188.264 132.681C188.193 133.813 186.984 134.455 184.75 134.488L184.711 135.094L182.15 134.91L182.189 134.304C179.951 133.954 178.859 133.146 178.927 132.013L178.962 131.44L181.922 131.649L181.883 132.305C181.847 132.901 182.459 133.16 183.455 133.233C184.451 133.305 185.091 133.135 185.127 132.536C185.234 130.819 179.115 130.303 179.265 127.919C179.332 126.8 180.488 126.162 182.694 126.115L182.697 126.118Z" fill="white" stroke="#424A5D" stroke-width="0.6" stroke-linecap="round" stroke-linejoin="round"/>
<path d="M182.726 125.671L182.765 125.05L185.326 125.234L185.287 125.855C187.496 126.205 188.591 126.998 188.52 128.131L188.502 128.395L185.543 128.185L185.564 127.839C185.6 127.244 185.045 126.977 184.049 126.905C183.053 126.832 182.47 127.02 182.43 127.615C182.324 129.333 188.442 129.848 188.293 132.233C188.221 133.366 187.012 134.008 184.778 134.04L184.739 134.647L182.178 134.463L182.217 133.856C179.98 133.507 178.888 132.698 178.955 131.566L178.991 130.992L181.95 131.201L181.911 131.858C181.876 132.453 182.487 132.713 183.483 132.785C184.479 132.857 185.12 132.688 185.155 132.089C185.262 130.372 179.144 129.856 179.293 127.471C179.361 126.353 180.517 125.714 182.722 125.667L182.726 125.671Z" fill="white" stroke="#424A5D" stroke-width="0.6" stroke-linecap="round" stroke-linejoin="round"/>
<path d="M166.569 134.394L166.705 132.183" stroke="#424A5D" stroke-width="0.6" stroke-linecap="round" stroke-linejoin="round"/>
<path d="M167.899 135.512L168.025 133.478" stroke="#424A5D" stroke-width="0.6" stroke-linecap="round" stroke-linejoin="round"/>
<path d="M169.344 136.577L169.482 134.362" stroke="#424A5D" stroke-width="0.6" stroke-linecap="round" stroke-linejoin="round"/>
<path d="M171.347 137.677L171.496 135.285" stroke="#424A5D" stroke-width="0.6" stroke-linecap="round" stroke-linejoin="round"/>
<path d="M173.829 137.352L173.898 136.299" stroke="#424A5D" stroke-width="0.6" stroke-linecap="round" stroke-linejoin="round"/>
<path d="M173.751 138.629L173.776 138.211" stroke="#424A5D" stroke-width="0.6" stroke-linecap="round" stroke-linejoin="round"/>
<path d="M176.885 139.575L177.027 137.24" stroke="#424A5D" stroke-width="0.6" stroke-linecap="round" stroke-linejoin="round"/>
<path d="M181.196 138.618L181.25 137.781" stroke="#424A5D" stroke-width="0.6" stroke-linecap="round" stroke-linejoin="round"/>
<path d="M181.097 140.235L181.136 139.574" stroke="#424A5D" stroke-width="0.6" stroke-linecap="round" stroke-linejoin="round"/>
</svg>
