<svg width="87" height="103" viewBox="0 0 87 103" fill="none" xmlns="http://www.w3.org/2000/svg">
<g style="mix-blend-mode:multiply">
<path d="M82.3131 82.55C81.2043 82.0162 80.0849 81.5033 78.9552 81.0009C78.6936 80.8962 78.3903 80.7706 78.0137 80.6136C76.204 79.8914 74.3942 79.1692 72.5845 78.4366C67.4169 76.3328 62.2701 74.1871 57.2489 71.7588C49.2568 67.8861 41.6727 63.2913 34.0049 58.8324C22.2992 52.0186 11.3991 44.3465 0.509314 36.4756C0.613922 37.1664 0.770826 37.8572 0.990504 38.5271C0.592992 39.7098 0.383789 40.9449 0.383789 42.2113C0.383789 42.787 0.425627 43.3627 0.509314 43.9279L0.436081 48.8786C0.404698 49.2345 0.383789 49.6008 0.383789 49.9567C0.383789 50.9196 0.509326 51.8721 0.749925 52.7932C0.519786 53.7142 0.383789 54.6562 0.383789 55.6296C0.383789 56.2053 0.425627 56.781 0.509314 57.3462L0.436081 62.2969C0.404698 62.6528 0.383789 63.0191 0.383789 63.375C0.383789 64.5054 0.551154 65.6044 0.864979 66.672C1.3148 68.2001 2.07845 69.6445 3.10361 70.9843C3.17684 71.0889 3.26053 71.1831 3.33375 71.2878C4.71459 73.0043 6.52431 74.5325 8.65832 75.799C8.86754 75.9246 9.07674 76.0397 9.29642 76.1653C13.3343 78.3947 18.4497 79.724 24.0148 79.724C29.58 79.724 34.2455 78.5098 38.1997 76.4479C38.137 76.9398 38.0951 77.4318 38.0951 77.9446C38.0951 78.5203 38.137 79.096 38.2206 79.6612L38.1474 84.6119C38.1161 84.9678 38.0951 85.3341 38.0951 85.69C38.0951 87.6682 38.5972 89.5627 39.5282 91.3106C39.6642 91.5618 39.8003 91.813 39.9467 92.0537C40.2501 92.5457 40.5743 93.0167 40.9405 93.4877C41.1183 93.7179 41.3066 93.9482 41.5054 94.168C42.1016 94.8379 42.7606 95.4868 43.4824 96.0939C43.723 96.2927 43.9741 96.4916 44.2252 96.6905C48.5455 99.977 54.7802 102.049 61.7157 102.049C68.6513 102.049 74.5721 100.082 78.8715 96.9312C79.2376 96.6591 79.6037 96.3869 79.9385 96.0939C80.6603 95.4868 81.3193 94.8483 81.9156 94.168C82.2294 93.8121 82.5119 93.4458 82.7838 93.0795C83.0349 92.7445 83.265 92.3991 83.4743 92.0537C83.6207 91.813 83.7672 91.5618 83.8927 91.3106C84.8237 89.5522 85.3258 87.6682 85.3258 85.69V83.6908C84.2902 83.3664 83.2755 82.9896 82.3027 82.529L82.3131 82.55Z" fill="#D6D6D6"/>
</g>
<path d="M45.4494 51.7674C41.4638 46.6492 33.6391 43.1638 24.6428 43.1638C15.6464 43.1638 7.82171 46.6492 3.83613 51.7674H1.16863L1.06401 58.8115C1.05355 59.0523 1.01172 59.2825 1.01172 59.5232C1.01172 68.556 11.5876 75.8827 24.6428 75.8827C37.6979 75.8827 48.2738 68.556 48.2738 59.5232V51.7674H45.4494Z" fill="#FFD336"/>
<path d="M24.6428 75.8722C37.6938 75.8722 48.2738 68.5478 48.2738 59.5128C48.2738 50.4777 37.6938 43.1533 24.6428 43.1533C11.5917 43.1533 1.01172 50.4777 1.01172 59.5128C1.01172 68.5478 11.5917 75.8722 24.6428 75.8722Z" fill="white"/>
<path d="M45.4494 51.7674C41.4638 46.6492 33.6391 43.1638 24.6428 43.1638C15.6464 43.1638 7.82171 46.6492 3.83613 51.7674H1.16863L1.06401 58.8115C1.05355 59.0523 1.01172 59.2825 1.01172 59.5232C1.01172 68.556 11.5876 75.8827 24.6428 75.8827C37.6979 75.8827 48.2738 68.556 48.2738 59.5232V51.7674H45.4494Z" stroke="#424A5D" stroke-width="0.75" stroke-linejoin="round"/>
<path d="M24.6428 75.8722C37.6938 75.8722 48.2738 68.5478 48.2738 59.5128C48.2738 50.4777 37.6938 43.1533 24.6428 43.1533C11.5917 43.1533 1.01172 50.4777 1.01172 59.5128C1.01172 68.5478 11.5917 75.8722 24.6428 75.8722Z" stroke="#424A5D" stroke-width="0.75" stroke-linejoin="round"/>
<path d="M24.6428 68.1268C37.6938 68.1268 48.2738 60.8025 48.2738 51.7674C48.2738 42.7323 37.6938 35.408 24.6428 35.408C11.5917 35.408 1.01172 42.7323 1.01172 51.7674C1.01172 60.8025 11.5917 68.1268 24.6428 68.1268Z" fill="white"/>
<path d="M24.6428 68.1268C37.6938 68.1268 48.2738 60.8025 48.2738 51.7674C48.2738 42.7323 37.6938 35.408 24.6428 35.408C11.5917 35.408 1.01172 42.7323 1.01172 51.7674C1.01172 60.8025 11.5917 68.1268 24.6428 68.1268Z" stroke="#424A5D" stroke-width="0.75" stroke-linejoin="round"/>
<path d="M24.7783 75.8406C24.7783 75.6522 24.7783 75.4638 24.7992 75.2754V68.1895" stroke="#424A5D" stroke-width="0.75" stroke-linejoin="round"/>
<path d="M29.915 75.3174V67.7605" stroke="#424A5D" stroke-width="0.75" stroke-linejoin="round"/>
<path d="M34.7891 74.2288V66.6719" stroke="#424A5D" stroke-width="0.75" stroke-linejoin="round"/>
<path d="M39.2871 72.4076V64.8088" stroke="#424A5D" stroke-width="0.75" stroke-linejoin="round"/>
<path d="M43.1162 69.8538V62.2131" stroke="#424A5D" stroke-width="0.75" stroke-linejoin="round"/>
<path d="M46.6104 65.552V57.9531" stroke="#424A5D" stroke-width="0.75" stroke-linejoin="round"/>
<path d="M19.5479 75.3174V67.7605" stroke="#424A5D" stroke-width="0.75" stroke-linejoin="round"/>
<path d="M14.6631 74.2288V66.6719" stroke="#424A5D" stroke-width="0.75" stroke-linejoin="round"/>
<path d="M10.1748 72.4076V64.8088" stroke="#424A5D" stroke-width="0.75" stroke-linejoin="round"/>
<path d="M6.33594 69.8538V62.2131" stroke="#424A5D" stroke-width="0.75" stroke-linejoin="round"/>
<path d="M2.85254 65.552V57.9531" stroke="#424A5D" stroke-width="0.75" stroke-linejoin="round"/>
<path d="M24.6426 64.411C34.7298 64.411 42.9072 58.7502 42.9072 51.7673C42.9072 44.7843 34.7298 39.1235 24.6426 39.1235C14.5553 39.1235 6.37793 44.7843 6.37793 51.7673C6.37793 58.7502 14.5553 64.411 24.6426 64.411Z" fill="white"/>
<path d="M24.6426 64.411C34.7298 64.411 42.9072 58.7502 42.9072 51.7673C42.9072 44.7843 34.7298 39.1235 24.6426 39.1235C14.5553 39.1235 6.37793 44.7843 6.37793 51.7673C6.37793 58.7502 14.5553 64.411 24.6426 64.411Z" stroke="#424A5D" stroke-width="0.75" stroke-linejoin="round"/>
<path d="M25.9505 47.1097L21.1908 49.0669L20.3539 48.6064C19.4647 48.1145 18.8266 47.8109 18.4396 47.7063C18.0525 47.6016 17.6864 47.6225 17.3203 47.7691C17.0274 47.8842 16.9332 48.0412 17.0274 48.2401C17.1215 48.4389 17.4039 48.6587 17.8747 48.9204C18.6697 49.36 19.3706 49.6112 19.9878 49.6635C20.5945 49.7159 22.0695 49.7054 24.4022 49.6321C26.3898 49.5589 27.802 49.5589 28.6598 49.6007C29.5071 49.6531 30.4695 49.8205 31.5261 50.1136C32.5826 50.4067 33.6705 50.8672 34.8003 51.4952C36.5996 52.4895 37.6038 53.442 37.813 54.3526C38.0223 55.2632 37.4365 56.111 36.0452 56.917L37.949 57.9741L35.7627 58.8742L33.7961 57.7857C32.3943 58.2358 30.7624 58.4032 28.9109 58.2986C27.0593 58.1834 25.009 57.5031 22.7494 56.2576L21.7661 55.7133L26.5258 53.756L27.7602 54.4468C29.1201 55.2004 30.0093 55.6505 30.4382 55.7866C30.8671 55.9331 31.2646 55.9226 31.6412 55.7656C31.9654 55.6296 32.091 55.4726 32.0177 55.2737C31.9445 55.0853 31.683 54.8655 31.2332 54.6143C30.1034 53.9863 29.2142 53.5676 28.5761 53.3583C27.938 53.1489 26.9024 53.0652 25.4483 53.1071C23.0319 53.1699 21.3268 53.1803 20.3539 53.1489C19.381 53.1175 18.2826 52.9396 17.0796 52.6465C15.8767 52.343 14.7469 51.9034 13.7113 51.3277C12.2049 50.4904 11.4203 49.6635 11.368 48.8576C11.3157 48.0517 11.9957 47.2562 13.3974 46.4817L11.7865 45.5815L13.9728 44.6814L15.5838 45.5815C17.247 45.0896 18.8685 44.9221 20.448 45.0896C22.0276 45.2571 23.5549 45.7595 25.0508 46.5863C25.26 46.7015 25.5634 46.8794 25.9505 47.1306V47.1097Z" fill="white"/>
<path d="M25.9505 47.1097L21.1908 49.0669L20.3539 48.6064C19.4647 48.1145 18.8266 47.8109 18.4396 47.7063C18.0525 47.6016 17.6864 47.6225 17.3203 47.7691C17.0274 47.8842 16.9332 48.0412 17.0274 48.2401C17.1215 48.4389 17.4039 48.6587 17.8747 48.9204C18.6697 49.36 19.3706 49.6112 19.9878 49.6635C20.5945 49.7159 22.0695 49.7054 24.4022 49.6321C26.3898 49.5589 27.802 49.5589 28.6598 49.6007C29.5071 49.6531 30.4695 49.8205 31.5261 50.1136C32.5826 50.4067 33.6705 50.8672 34.8003 51.4952C36.5996 52.4895 37.6038 53.442 37.813 54.3526C38.0223 55.2632 37.4365 56.111 36.0452 56.917L37.949 57.9741L35.7627 58.8742L33.7961 57.7857C32.3943 58.2358 30.7624 58.4032 28.9109 58.2986C27.0593 58.1834 25.009 57.5031 22.7494 56.2576L21.7661 55.7133L26.5258 53.756L27.7602 54.4468C29.1201 55.2004 30.0093 55.6505 30.4382 55.7866C30.8671 55.9331 31.2646 55.9226 31.6412 55.7656C31.9654 55.6296 32.091 55.4726 32.0177 55.2737C31.9445 55.0853 31.683 54.8655 31.2332 54.6143C30.1034 53.9863 29.2142 53.5676 28.5761 53.3583C27.938 53.1489 26.9024 53.0652 25.4483 53.1071C23.0319 53.1699 21.3268 53.1803 20.3539 53.1489C19.381 53.1175 18.2826 52.9396 17.0796 52.6465C15.8767 52.343 14.7469 51.9034 13.7113 51.3277C12.2049 50.4904 11.4203 49.6635 11.368 48.8576C11.3157 48.0517 11.9957 47.2562 13.3974 46.4817L11.7865 45.5815L13.9728 44.6814L15.5838 45.5815C17.247 45.0896 18.8685 44.9221 20.448 45.0896C22.0276 45.2571 23.5549 45.7595 25.0508 46.5863C25.26 46.7015 25.5634 46.8794 25.9505 47.1306V47.1097Z" stroke="#424A5D" stroke-width="0.75" stroke-linejoin="round"/>
<path d="M45.4494 38.3387C41.4638 33.2205 33.6391 29.7351 24.6428 29.7351C15.6464 29.7351 7.82171 33.2205 3.83613 38.3387H1.16863L1.06401 45.3828C1.05355 45.6235 1.01172 45.8538 1.01172 46.0945C1.01172 55.1273 11.5876 62.454 24.6428 62.454C37.6979 62.454 48.2738 55.1273 48.2738 46.0945V38.3387H45.4494Z" fill="#FFD336"/>
<path d="M24.6428 62.454C37.6938 62.454 48.2738 55.1296 48.2738 46.0945C48.2738 37.0595 37.6938 29.7351 24.6428 29.7351C11.5917 29.7351 1.01172 37.0595 1.01172 46.0945C1.01172 55.1296 11.5917 62.454 24.6428 62.454Z" fill="white"/>
<path d="M45.4494 38.3387C41.4638 33.2205 33.6391 29.7351 24.6428 29.7351C15.6464 29.7351 7.82171 33.2205 3.83613 38.3387H1.16863L1.06401 45.3828C1.05355 45.6235 1.01172 45.8538 1.01172 46.0945C1.01172 55.1273 11.5876 62.454 24.6428 62.454C37.6979 62.454 48.2738 55.1273 48.2738 46.0945V38.3387H45.4494Z" stroke="#424A5D" stroke-width="0.75" stroke-linejoin="round"/>
<path d="M24.6428 62.454C37.6938 62.454 48.2738 55.1296 48.2738 46.0945C48.2738 37.0595 37.6938 29.7351 24.6428 29.7351C11.5917 29.7351 1.01172 37.0595 1.01172 46.0945C1.01172 55.1296 11.5917 62.454 24.6428 62.454Z" stroke="#424A5D" stroke-width="0.75" stroke-linejoin="round"/>
<path d="M24.6428 54.6981C37.6938 54.6981 48.2738 47.3738 48.2738 38.3387C48.2738 29.3036 37.6938 21.9792 24.6428 21.9792C11.5917 21.9792 1.01172 29.3036 1.01172 38.3387C1.01172 47.3738 11.5917 54.6981 24.6428 54.6981Z" fill="white"/>
<path d="M24.6428 54.6981C37.6938 54.6981 48.2738 47.3738 48.2738 38.3387C48.2738 29.3036 37.6938 21.9792 24.6428 21.9792C11.5917 21.9792 1.01172 29.3036 1.01172 38.3387C1.01172 47.3738 11.5917 54.6981 24.6428 54.6981Z" stroke="#424A5D" stroke-width="0.75" stroke-linejoin="round"/>
<path d="M24.7783 62.4224C24.7783 62.234 24.7783 62.0456 24.7992 61.8572V54.7712" stroke="#424A5D" stroke-width="0.75" stroke-linejoin="round"/>
<path d="M29.915 61.8887V54.3318" stroke="#424A5D" stroke-width="0.75" stroke-linejoin="round"/>
<path d="M34.7891 60.8001V53.2432" stroke="#424A5D" stroke-width="0.75" stroke-linejoin="round"/>
<path d="M39.2871 58.979V51.3906" stroke="#424A5D" stroke-width="0.75" stroke-linejoin="round"/>
<path d="M43.1162 56.4251V48.7844" stroke="#424A5D" stroke-width="0.75" stroke-linejoin="round"/>
<path d="M46.6104 52.1232V44.5244" stroke="#424A5D" stroke-width="0.75" stroke-linejoin="round"/>
<path d="M19.5479 61.8887V54.3318" stroke="#424A5D" stroke-width="0.75" stroke-linejoin="round"/>
<path d="M14.6631 60.8001V53.2432" stroke="#424A5D" stroke-width="0.75" stroke-linejoin="round"/>
<path d="M10.1748 58.979V51.3906" stroke="#424A5D" stroke-width="0.75" stroke-linejoin="round"/>
<path d="M6.33594 56.4251V48.7844" stroke="#424A5D" stroke-width="0.75" stroke-linejoin="round"/>
<path d="M2.85254 52.1232V44.5244" stroke="#424A5D" stroke-width="0.75" stroke-linejoin="round"/>
<path d="M24.6426 50.9823C34.7298 50.9823 42.9072 45.3215 42.9072 38.3386C42.9072 31.3556 34.7298 25.6948 24.6426 25.6948C14.5553 25.6948 6.37793 31.3556 6.37793 38.3386C6.37793 45.3215 14.5553 50.9823 24.6426 50.9823Z" fill="white"/>
<path d="M24.6426 50.9823C34.7298 50.9823 42.9072 45.3215 42.9072 38.3386C42.9072 31.3556 34.7298 25.6948 24.6426 25.6948C14.5553 25.6948 6.37793 31.3556 6.37793 38.3386C6.37793 45.3215 14.5553 50.9823 24.6426 50.9823Z" stroke="#424A5D" stroke-width="0.75" stroke-linejoin="round"/>
<path d="M25.9505 33.6809L21.1908 35.6382L20.3539 35.1777C19.4647 34.6858 18.8266 34.3822 18.4396 34.2776C18.0525 34.1729 17.6864 34.1938 17.3203 34.3404C17.0274 34.4555 16.9332 34.6125 17.0274 34.8114C17.1215 35.0102 17.4039 35.23 17.8747 35.4917C18.6697 35.9313 19.3706 36.1825 19.9878 36.2348C20.5945 36.2872 22.0695 36.2767 24.4022 36.2034C26.3898 36.1302 27.802 36.1302 28.6598 36.172C29.5071 36.2244 30.4695 36.3918 31.5261 36.6849C32.5826 36.978 33.6705 37.4385 34.8003 38.0665C36.5996 39.0608 37.6038 40.0133 37.813 40.9239C38.0223 41.8345 37.4365 42.6823 36.0452 43.4882L37.949 44.5454L35.7627 45.4455L33.7961 44.357C32.3943 44.8071 30.7624 44.9745 28.9109 44.8698C27.0593 44.7547 25.009 44.0744 22.7494 42.8288L21.7661 42.2846L26.5258 40.3273L27.7602 41.0181C29.1201 41.7717 30.0093 42.2218 30.4382 42.3578C30.8671 42.5044 31.2646 42.4939 31.6412 42.3369C31.9654 42.2008 32.091 42.0438 32.0177 41.845C31.9445 41.6566 31.683 41.4368 31.2332 41.1856C30.1034 40.5576 29.2142 40.1389 28.5761 39.9296C27.938 39.7202 26.9024 39.6365 25.4483 39.6784C23.0319 39.7412 21.3268 39.7516 20.3539 39.7202C19.381 39.6888 18.2826 39.5109 17.0796 39.2178C15.8767 38.9143 14.7469 38.4747 13.7113 37.899C12.2049 37.0617 11.4203 36.2348 11.368 35.4289C11.3157 34.6229 11.9957 33.8275 13.3974 33.053L11.7865 32.1528L13.9728 31.2527L15.5838 32.1528C17.247 31.6609 18.8685 31.4934 20.448 31.6609C22.0276 31.8284 23.5549 32.3307 25.0508 33.1576C25.26 33.2727 25.5634 33.4507 25.9505 33.7019V33.6809Z" fill="white"/>
<path d="M25.9505 33.6809L21.1908 35.6382L20.3539 35.1777C19.4647 34.6858 18.8266 34.3822 18.4396 34.2776C18.0525 34.1729 17.6864 34.1938 17.3203 34.3404C17.0274 34.4555 16.9332 34.6125 17.0274 34.8114C17.1215 35.0102 17.4039 35.23 17.8747 35.4917C18.6697 35.9313 19.3706 36.1825 19.9878 36.2348C20.5945 36.2872 22.0695 36.2767 24.4022 36.2034C26.3898 36.1302 27.802 36.1302 28.6598 36.172C29.5071 36.2244 30.4695 36.3918 31.5261 36.6849C32.5826 36.978 33.6705 37.4385 34.8003 38.0665C36.5996 39.0608 37.6038 40.0133 37.813 40.9239C38.0223 41.8345 37.4365 42.6823 36.0452 43.4883L37.949 44.5454L35.7627 45.4455L33.7961 44.357C32.3943 44.8071 30.7624 44.9745 28.9109 44.8698C27.0593 44.7547 25.009 44.0744 22.7494 42.8288L21.7661 42.2846L26.5258 40.3273L27.7602 41.0181C29.1201 41.7717 30.0093 42.2218 30.4382 42.3578C30.8671 42.5044 31.2646 42.4939 31.6412 42.3369C31.9654 42.2008 32.091 42.0438 32.0177 41.845C31.9445 41.6566 31.683 41.4368 31.2332 41.1856C30.1034 40.5576 29.2142 40.1389 28.5761 39.9296C27.938 39.7202 26.9024 39.6365 25.4483 39.6784C23.0319 39.7412 21.3268 39.7516 20.3539 39.7202C19.381 39.6888 18.2826 39.5109 17.0796 39.2178C15.8767 38.9143 14.7469 38.4747 13.7113 37.899C12.2049 37.0617 11.4203 36.2348 11.368 35.4289C11.3157 34.6229 11.9957 33.8275 13.3974 33.053L11.7865 32.1528L13.9728 31.2527L15.5838 32.1528C17.247 31.6609 18.8685 31.4934 20.448 31.6609C22.0276 31.8284 23.5549 32.3307 25.0508 33.1576C25.26 33.2727 25.5634 33.4507 25.9505 33.7019V33.6809Z" stroke="#424A5D" stroke-width="0.75" stroke-linejoin="round"/>
<path d="M83.1603 74.0929C79.1747 68.9747 71.35 65.4893 62.3537 65.4893C53.3574 65.4893 45.5327 68.9747 41.5471 74.0929H38.8796L38.7749 81.137C38.7645 81.3777 38.7227 81.608 38.7227 81.8487C38.7227 90.8815 49.2986 98.2081 62.3537 98.2081C75.4088 98.2081 85.9847 90.8815 85.9847 81.8487V74.0929H83.1603Z" fill="#FFD336"/>
<path d="M62.3537 98.1976C75.4048 98.1976 85.9847 90.8733 85.9847 81.8382C85.9847 72.8031 75.4048 65.4788 62.3537 65.4788C49.3026 65.4788 38.7227 72.8031 38.7227 81.8382C38.7227 90.8733 49.3026 98.1976 62.3537 98.1976Z" fill="white"/>
<path d="M83.1603 74.0929C79.1747 68.9747 71.35 65.4893 62.3537 65.4893C53.3574 65.4893 45.5327 68.9747 41.5471 74.0929H38.8796L38.7749 81.137C38.7645 81.3777 38.7227 81.608 38.7227 81.8487C38.7227 90.8815 49.2986 98.2081 62.3537 98.2081C75.4088 98.2081 85.9847 90.8815 85.9847 81.8487V74.0929H83.1603Z" stroke="#424A5D" stroke-width="0.75" stroke-linejoin="round"/>
<path d="M62.3537 98.1976C75.4048 98.1976 85.9847 90.8733 85.9847 81.8382C85.9847 72.8031 75.4048 65.4788 62.3537 65.4788C49.3026 65.4788 38.7227 72.8031 38.7227 81.8382C38.7227 90.8733 49.3026 98.1976 62.3537 98.1976Z" stroke="#424A5D" stroke-width="0.75" stroke-linejoin="round"/>
<path d="M62.3537 90.4523C75.4048 90.4523 85.9847 83.1279 85.9847 74.0928C85.9847 65.0578 75.4048 57.7334 62.3537 57.7334C49.3026 57.7334 38.7227 65.0578 38.7227 74.0928C38.7227 83.1279 49.3026 90.4523 62.3537 90.4523Z" fill="white"/>
<path d="M62.3537 90.4523C75.4048 90.4523 85.9847 83.1279 85.9847 74.0928C85.9847 65.0578 75.4048 57.7334 62.3537 57.7334C49.3026 57.7334 38.7227 65.0578 38.7227 74.0928C38.7227 83.1279 49.3026 90.4523 62.3537 90.4523Z" stroke="#424A5D" stroke-width="0.75" stroke-linejoin="round"/>
<path d="M62.4795 98.166C62.4795 97.9776 62.4795 97.7892 62.5004 97.6008V90.5149" stroke="#424A5D" stroke-width="0.75" stroke-linejoin="round"/>
<path d="M67.6162 97.6429V90.0859" stroke="#424A5D" stroke-width="0.75" stroke-linejoin="round"/>
<path d="M72.501 96.5543V88.9973" stroke="#424A5D" stroke-width="0.75" stroke-linejoin="round"/>
<path d="M76.9883 94.7331V87.1343" stroke="#424A5D" stroke-width="0.75" stroke-linejoin="round"/>
<path d="M80.8281 92.1792V84.5386" stroke="#424A5D" stroke-width="0.75" stroke-linejoin="round"/>
<path d="M84.3115 87.8774V80.2786" stroke="#424A5D" stroke-width="0.75" stroke-linejoin="round"/>
<path d="M57.249 97.6429V90.0859" stroke="#424A5D" stroke-width="0.75" stroke-linejoin="round"/>
<path d="M52.374 96.5543V88.9973" stroke="#424A5D" stroke-width="0.75" stroke-linejoin="round"/>
<path d="M47.876 94.7331V87.1343" stroke="#424A5D" stroke-width="0.75" stroke-linejoin="round"/>
<path d="M44.0479 92.1792V84.5386" stroke="#424A5D" stroke-width="0.75" stroke-linejoin="round"/>
<path d="M40.5537 87.8774V80.2786" stroke="#424A5D" stroke-width="0.75" stroke-linejoin="round"/>
<path d="M62.3535 86.7365C72.4408 86.7365 80.6181 81.0757 80.6181 74.0927C80.6181 67.1098 72.4408 61.449 62.3535 61.449C52.2662 61.449 44.0889 67.1098 44.0889 74.0927C44.0889 81.0757 52.2662 86.7365 62.3535 86.7365Z" fill="white"/>
<path d="M62.3535 86.7365C72.4408 86.7365 80.6181 81.0757 80.6181 74.0927C80.6181 67.1098 72.4408 61.449 62.3535 61.449C52.2662 61.449 44.0889 67.1098 44.0889 74.0927C44.0889 81.0757 52.2662 86.7365 62.3535 86.7365Z" stroke="#424A5D" stroke-width="0.75" stroke-linejoin="round"/>
<path d="M63.6506 69.4351L58.8909 71.3924L58.0541 70.9318C57.1649 70.4399 56.5268 70.1364 56.1397 70.0317C55.7527 69.927 55.3866 69.948 55.0205 70.0945C54.7276 70.2096 54.6334 70.3666 54.7275 70.5655C54.8217 70.7644 55.1041 70.9842 55.5749 71.2458C56.3699 71.6854 57.0708 71.9366 57.688 71.989C58.2947 72.0413 59.7697 72.0308 62.1024 71.9576C64.09 71.8843 65.5022 71.8843 66.36 71.9262C67.2073 71.9785 68.1697 72.146 69.2263 72.439C70.2828 72.7321 71.3707 73.1926 72.5005 73.8206C74.2998 74.815 75.304 75.7674 75.5132 76.678C75.7225 77.5887 75.1367 78.4364 73.7454 79.2424L75.6492 80.2995L73.4629 81.1997L71.4963 80.1111C70.0945 80.5612 68.4626 80.7287 66.6111 80.624C64.7595 80.5089 62.7091 79.8285 60.4496 78.583L59.4663 78.0387L64.226 76.0815L65.4604 76.7722C66.8203 77.5258 67.7094 77.9759 68.1383 78.112C68.5672 78.2585 68.9647 78.2481 69.3413 78.0911C69.6656 77.955 69.7912 77.798 69.7179 77.5991C69.6447 77.4107 69.3832 77.1909 68.9334 76.9397C67.8036 76.3117 66.9144 75.8931 66.2763 75.6837C65.6382 75.4744 64.6026 75.3906 63.1485 75.4325C60.7321 75.4953 59.027 75.5058 58.0541 75.4744C57.0812 75.443 55.9828 75.2651 54.7798 74.972C53.5768 74.6685 52.4471 74.2288 51.4115 73.6532C49.9051 72.8158 49.1205 71.989 49.0682 71.183C49.0159 70.3771 49.6959 69.5816 51.0976 68.8071L49.4867 67.907L51.673 67.0068L53.284 67.907C54.9472 67.415 56.5686 67.2476 58.1482 67.415C59.7278 67.5825 61.2551 68.0849 62.751 68.9118C62.9602 69.0269 63.2636 69.2048 63.6506 69.456V69.4351Z" fill="white"/>
<path d="M63.6506 69.4351L58.8909 71.3924L58.0541 70.9318C57.1649 70.4399 56.5268 70.1364 56.1397 70.0317C55.7527 69.927 55.3866 69.948 55.0205 70.0945C54.7276 70.2096 54.6334 70.3666 54.7275 70.5655C54.8217 70.7644 55.1041 70.9842 55.5749 71.2458C56.3699 71.6854 57.0708 71.9366 57.688 71.989C58.2947 72.0413 59.7697 72.0308 62.1024 71.9576C64.09 71.8843 65.5022 71.8843 66.36 71.9262C67.2073 71.9785 68.1697 72.146 69.2263 72.439C70.2828 72.7321 71.3707 73.1926 72.5005 73.8206C74.2998 74.815 75.304 75.7674 75.5132 76.678C75.7225 77.5887 75.1366 78.4364 73.7454 79.2424L75.6492 80.2995L73.4629 81.1997L71.4963 80.1111C70.0945 80.5612 68.4626 80.7287 66.6111 80.624C64.7595 80.5089 62.7091 79.8285 60.4496 78.583L59.4663 78.0387L64.226 76.0815L65.4604 76.7722C66.8203 77.5258 67.7094 77.9759 68.1383 78.112C68.5672 78.2585 68.9647 78.2481 69.3413 78.0911C69.6656 77.955 69.7912 77.798 69.7179 77.5991C69.6447 77.4107 69.3832 77.1909 68.9334 76.9397C67.8036 76.3117 66.9144 75.893 66.2763 75.6837C65.6382 75.4744 64.6026 75.3906 63.1485 75.4325C60.7321 75.4953 59.027 75.5058 58.0541 75.4744C57.0812 75.443 55.9828 75.2651 54.7798 74.972C53.5768 74.6685 52.4471 74.2288 51.4115 73.6532C49.9051 72.8158 49.1205 71.989 49.0682 71.183C49.0159 70.3771 49.6959 69.5816 51.0976 68.8071L49.4867 67.907L51.673 67.0068L53.284 67.907C54.9472 67.415 56.5686 67.2476 58.1482 67.415C59.7278 67.5825 61.2551 68.0849 62.751 68.9118C62.9602 69.0269 63.2636 69.2048 63.6506 69.456V69.4351Z" stroke="#424A5D" stroke-width="0.75" stroke-linejoin="round"/>
<path d="M83.1603 60.6642C79.1747 55.5459 71.35 52.0605 62.3537 52.0605C53.3574 52.0605 45.5327 55.5459 41.5471 60.6642H38.8796L38.7749 67.7082C38.7645 67.949 38.7227 68.1792 38.7227 68.42C38.7227 77.4527 49.2986 84.7794 62.3537 84.7794C75.4088 84.7794 85.9847 77.4527 85.9847 68.42V60.6642H83.1603Z" fill="#FFD336"/>
<path d="M62.3537 84.7794C75.4048 84.7794 85.9847 77.455 85.9847 68.42C85.9847 59.3849 75.4048 52.0605 62.3537 52.0605C49.3026 52.0605 38.7227 59.3849 38.7227 68.42C38.7227 77.455 49.3026 84.7794 62.3537 84.7794Z" fill="white"/>
<path d="M83.1603 60.6642C79.1747 55.5459 71.35 52.0605 62.3537 52.0605C53.3574 52.0605 45.5327 55.5459 41.5471 60.6642H38.8796L38.7749 67.7082C38.7645 67.949 38.7227 68.1792 38.7227 68.42C38.7227 77.4527 49.2986 84.7794 62.3537 84.7794C75.4088 84.7794 85.9847 77.4527 85.9847 68.42V60.6642H83.1603Z" stroke="#424A5D" stroke-width="0.75" stroke-linejoin="round"/>
<path d="M62.3537 84.7794C75.4048 84.7794 85.9847 77.455 85.9847 68.42C85.9847 59.3849 75.4048 52.0605 62.3537 52.0605C49.3026 52.0605 38.7227 59.3849 38.7227 68.42C38.7227 77.455 49.3026 84.7794 62.3537 84.7794Z" stroke="#424A5D" stroke-width="0.75" stroke-linejoin="round"/>
<path d="M62.3537 77.0236C75.4048 77.0236 85.9847 69.6992 85.9847 60.6641C85.9847 51.629 75.4048 44.3047 62.3537 44.3047C49.3026 44.3047 38.7227 51.629 38.7227 60.6641C38.7227 69.6992 49.3026 77.0236 62.3537 77.0236Z" fill="white"/>
<path d="M62.3537 77.0236C75.4048 77.0236 85.9847 69.6992 85.9847 60.6641C85.9847 51.629 75.4048 44.3047 62.3537 44.3047C49.3026 44.3047 38.7227 51.629 38.7227 60.6641C38.7227 69.6992 49.3026 77.0236 62.3537 77.0236Z" stroke="#424A5D" stroke-width="0.75" stroke-linejoin="round"/>
<path d="M62.4795 84.7478C62.4795 84.5594 62.4795 84.371 62.5004 84.1826V77.0967" stroke="#424A5D" stroke-width="0.75" stroke-linejoin="round"/>
<path d="M67.6162 84.2142V76.6572" stroke="#424A5D" stroke-width="0.75" stroke-linejoin="round"/>
<path d="M72.501 83.1256V75.5686" stroke="#424A5D" stroke-width="0.75" stroke-linejoin="round"/>
<path d="M76.9883 81.3044V73.7161" stroke="#424A5D" stroke-width="0.75" stroke-linejoin="round"/>
<path d="M80.8281 78.7506V71.1099" stroke="#424A5D" stroke-width="0.75" stroke-linejoin="round"/>
<path d="M84.3115 74.4487V66.8499" stroke="#424A5D" stroke-width="0.75" stroke-linejoin="round"/>
<path d="M57.249 84.2142V76.6572" stroke="#424A5D" stroke-width="0.75" stroke-linejoin="round"/>
<path d="M52.374 83.1256V75.5686" stroke="#424A5D" stroke-width="0.75" stroke-linejoin="round"/>
<path d="M47.876 81.3044V73.7161" stroke="#424A5D" stroke-width="0.75" stroke-linejoin="round"/>
<path d="M44.0479 78.7506V71.1099" stroke="#424A5D" stroke-width="0.75" stroke-linejoin="round"/>
<path d="M40.5537 74.4487V66.8499" stroke="#424A5D" stroke-width="0.75" stroke-linejoin="round"/>
<path d="M62.3535 73.3078C72.4408 73.3078 80.6181 67.647 80.6181 60.664C80.6181 53.6811 72.4408 48.0203 62.3535 48.0203C52.2662 48.0203 44.0889 53.6811 44.0889 60.664C44.0889 67.647 52.2662 73.3078 62.3535 73.3078Z" fill="white"/>
<path d="M62.3535 73.3078C72.4408 73.3078 80.6181 67.647 80.6181 60.664C80.6181 53.6811 72.4408 48.0203 62.3535 48.0203C52.2662 48.0203 44.0889 53.6811 44.0889 60.664C44.0889 67.647 52.2662 73.3078 62.3535 73.3078Z" stroke="#424A5D" stroke-width="0.75" stroke-linejoin="round"/>
<path d="M63.6506 56.0064L58.8909 57.9637L58.0541 57.5031C57.1649 57.0112 56.5268 56.7077 56.1397 56.603C55.7527 56.4983 55.3866 56.5193 55.0205 56.6658C54.7276 56.7809 54.6334 56.9379 54.7275 57.1368C54.8217 57.3357 55.1041 57.5555 55.5749 57.8171C56.3699 58.2567 57.0708 58.5079 57.688 58.5603C58.2947 58.6126 59.7697 58.6021 62.1024 58.5289C64.09 58.4556 65.5022 58.4556 66.36 58.4975C67.2073 58.5498 68.1697 58.7173 69.2263 59.0103C70.2828 59.3034 71.3707 59.7639 72.5005 60.3919C74.2998 61.3863 75.304 62.3387 75.5132 63.2493C75.7225 64.1599 75.1367 65.0078 73.7454 65.8137L75.6492 66.8708L73.4629 67.771L71.4963 66.6824C70.0945 67.1325 68.4626 67.3 66.6111 67.1953C64.7595 67.0802 62.7091 66.3998 60.4496 65.1543L59.4663 64.61L64.226 62.6527L65.4604 63.3435C66.8203 64.0972 67.7094 64.5472 68.1383 64.6833C68.5672 64.8298 68.9647 64.8193 69.3413 64.6623C69.6656 64.5263 69.7912 64.3693 69.7179 64.1704C69.6447 63.982 69.3832 63.7622 68.9334 63.511C67.8036 62.883 66.9144 62.4643 66.2763 62.255C65.6382 62.0457 64.6026 61.9619 63.1485 62.0038C60.7321 62.0666 59.027 62.0771 58.0541 62.0457C57.0812 62.0143 55.9828 61.8363 54.7798 61.5433C53.5768 61.2397 52.4471 60.8001 51.4115 60.2245C49.9051 59.3871 49.1205 58.5603 49.0682 57.7543C49.0159 56.9484 49.6959 56.1529 51.0976 55.3784L49.4867 54.4783L51.673 53.5781L53.284 54.4783C54.9472 53.9863 56.5686 53.8189 58.1482 53.9863C59.7278 54.1538 61.2551 54.6562 62.751 55.4831C62.9602 55.5982 63.2636 55.7761 63.6506 56.0273V56.0064Z" fill="white"/>
<path d="M63.6506 56.0064L58.8909 57.9637L58.0541 57.5031C57.1649 57.0112 56.5268 56.7077 56.1397 56.603C55.7527 56.4983 55.3866 56.5193 55.0205 56.6658C54.7276 56.7809 54.6334 56.9379 54.7275 57.1368C54.8217 57.3357 55.1041 57.5555 55.5749 57.8171C56.3699 58.2567 57.0708 58.5079 57.688 58.5603C58.2947 58.6126 59.7697 58.6021 62.1024 58.5289C64.09 58.4556 65.5022 58.4556 66.36 58.4975C67.2073 58.5498 68.1697 58.7173 69.2263 59.0103C70.2828 59.3034 71.3707 59.7639 72.5005 60.3919C74.2998 61.3863 75.304 62.3387 75.5132 63.2493C75.7225 64.1599 75.1366 65.0078 73.7454 65.8137L75.6492 66.8708L73.4629 67.771L71.4963 66.6824C70.0945 67.1325 68.4626 67.3 66.6111 67.1953C64.7595 67.0802 62.7091 66.3998 60.4496 65.1543L59.4663 64.61L64.226 62.6527L65.4604 63.3435C66.8203 64.0972 67.7094 64.5472 68.1383 64.6833C68.5672 64.8298 68.9647 64.8193 69.3413 64.6623C69.6656 64.5263 69.7912 64.3693 69.7179 64.1704C69.6447 63.982 69.3832 63.7622 68.9334 63.511C67.8036 62.883 66.9144 62.4643 66.2763 62.255C65.6382 62.0457 64.6026 61.9619 63.1485 62.0038C60.7321 62.0666 59.027 62.0771 58.0541 62.0457C57.0812 62.0143 55.9828 61.8363 54.7798 61.5433C53.5768 61.2397 52.4471 60.8001 51.4115 60.2245C49.9051 59.3871 49.1205 58.5603 49.0682 57.7543C49.0159 56.9484 49.6959 56.1529 51.0976 55.3784L49.4867 54.4783L51.673 53.5781L53.284 54.4783C54.9472 53.9863 56.5686 53.8189 58.1482 53.9863C59.7278 54.1538 61.2551 54.6562 62.751 55.4831C62.9602 55.5982 63.2636 55.7761 63.6506 56.0273V56.0064Z" stroke="#424A5D" stroke-width="0.75" stroke-linejoin="round"/>
<path d="M81.6023 29.1594C74.6876 20.2837 61.1304 14.2444 45.5437 14.2444C29.9571 14.2444 16.3998 20.2837 9.47477 29.1594H4.85106L4.67325 41.3636C4.65232 41.7718 4.5791 42.18 4.5791 42.5986C4.5791 58.2568 22.917 70.9424 45.5333 70.9424C68.1496 70.9424 86.4875 58.2463 86.4875 42.5986V29.1594H81.6023Z" fill="#FFD336"/>
<path d="M45.544 70.9425C68.1624 70.9425 86.4983 58.2525 86.4983 42.5987C86.4983 26.9448 68.1624 14.2549 45.544 14.2549C22.9257 14.2549 4.58984 26.9448 4.58984 42.5987C4.58984 58.2525 22.9257 70.9425 45.544 70.9425Z" fill="#FFD336"/>
<path d="M81.6023 29.1594C74.6876 20.2837 61.1304 14.2444 45.5437 14.2444C29.9571 14.2444 16.3998 20.2837 9.47477 29.1594H4.85106L4.67325 41.3636C4.65232 41.7718 4.5791 42.18 4.5791 42.5986C4.5791 58.2568 22.917 70.9424 45.5333 70.9424C68.1496 70.9424 86.4875 58.2464 86.4875 42.5986V29.1594H81.6023Z" stroke="#424A5D" stroke-width="0.75" stroke-linejoin="round"/>
<path d="M45.544 70.9425C68.1624 70.9425 86.4983 58.2525 86.4983 42.5987C86.4983 26.9448 68.1624 14.2549 45.544 14.2549C22.9257 14.2549 4.58984 26.9448 4.58984 42.5987C4.58984 58.2525 22.9257 70.9425 45.544 70.9425Z" stroke="#424A5D" stroke-width="0.75" stroke-linejoin="round"/>
<path d="M45.544 57.5033C68.1624 57.5033 86.4983 44.8133 86.4983 29.1595C86.4983 13.5056 68.1624 0.815674 45.544 0.815674C22.9257 0.815674 4.58984 13.5056 4.58984 29.1595C4.58984 44.8133 22.9257 57.5033 45.544 57.5033Z" fill="white"/>
<path d="M45.544 57.5033C68.1624 57.5033 86.4983 44.8133 86.4983 29.1595C86.4983 13.5056 68.1624 0.815674 45.544 0.815674C22.9257 0.815674 4.58984 13.5056 4.58984 29.1595C4.58984 44.8133 22.9257 57.5033 45.544 57.5033Z" stroke="#424A5D" stroke-width="0.75" stroke-linejoin="round"/>
<path d="M45.5441 51.0663C63.0264 51.0663 77.1987 41.2583 77.1987 29.1595C77.1987 17.0607 63.0264 7.25269 45.5441 7.25269C28.0618 7.25269 13.8896 17.0607 13.8896 29.1595C13.8896 41.2583 28.0618 51.0663 45.5441 51.0663Z" fill="white"/>
<path d="M49.2054 29.1594C49.2054 30.5619 47.5631 31.6923 45.5441 31.6923C43.5252 31.6923 41.8828 30.5619 41.8828 29.1594C41.8828 27.7569 43.5252 26.6265 45.5441 26.6265C47.5631 26.6265 49.2054 27.7569 49.2054 29.1594Z" fill="#424A5D"/>
<path d="M67.7212 18.0018C68.5127 18.0018 69.1543 17.5567 69.1543 17.0075C69.1543 16.4584 68.5127 16.0132 67.7212 16.0132C66.9297 16.0132 66.2881 16.4584 66.2881 17.0075C66.2881 17.5567 66.9297 18.0018 67.7212 18.0018Z" fill="#424A5D"/>
<path d="M66.0684 42.829C66.0684 43.3733 65.4198 43.8234 64.6353 43.8234C63.8507 43.8234 63.2021 43.3733 63.2021 42.829C63.2021 42.2848 63.8507 41.8347 64.6353 41.8347C65.4198 41.8347 66.0684 42.2848 66.0684 42.829Z" fill="#424A5D"/>
<path d="M25.732 42.494C26.5235 42.494 27.1651 42.0489 27.1651 41.4997C27.1651 40.9505 26.5235 40.5054 25.732 40.5054C24.9405 40.5054 24.2988 40.9505 24.2988 41.4997C24.2988 42.0489 24.9405 42.494 25.732 42.494Z" fill="#424A5D"/>
<path d="M26.9766 15.7412C26.9766 16.2854 26.328 16.7355 25.5435 16.7355C24.7589 16.7355 24.1104 16.2854 24.1104 15.7412C24.1104 15.1969 24.7589 14.7468 25.5435 14.7468C26.328 14.7468 26.9766 15.1969 26.9766 15.7412Z" fill="#424A5D"/>
<path d="M45.5441 51.0663C63.0264 51.0663 77.1987 41.2583 77.1987 29.1595C77.1987 17.0607 63.0264 7.25269 45.5441 7.25269C28.0618 7.25269 13.8896 17.0607 13.8896 29.1595C13.8896 41.2583 28.0618 51.0663 45.5441 51.0663Z" stroke="#424A5D" stroke-width="0.75" stroke-linejoin="round"/>
<path d="M45.8057 28.8455L59.5617 21.2676" stroke="#424A5D" stroke-width="0.75" stroke-linecap="round" stroke-linejoin="round"/>
<path d="M27.5723 17.667L44.5188 28.657" stroke="#424A5D" stroke-width="0.75" stroke-linecap="round" stroke-linejoin="round"/>
</svg>
