<svg width="326" height="364" viewBox="0 0 326 364" fill="none" xmlns="http://www.w3.org/2000/svg">
<g clip-path="url(#clip0_1_550)">
<g filter="url(#filter0_d_1_550)">
<rect width="326" height="480" fill="#99772C"/>
</g>
<mask id="mask0_1_550" style="mask-type:luminance" maskUnits="userSpaceOnUse" x="243" y="206" width="83" height="83">
<path d="M243.813 288.022H325.16V206.674H243.813V288.022Z" fill="white"/>
</mask>
<g mask="url(#mask0_1_550)">
<path d="M353.049 206.064C353.049 221.951 340.17 234.829 324.284 234.829C308.397 234.829 295.519 221.951 295.519 206.064C295.519 190.178 308.397 177.299 324.284 177.299C340.17 177.299 353.049 190.178 353.049 206.064Z" fill="#EEBD4B" stroke="#EEBD4B"/>
<path d="M324.284 252.9C350.151 252.9 371.12 231.931 371.12 206.064C371.12 180.197 350.151 159.228 324.284 159.228C298.417 159.228 277.448 180.197 277.448 206.064C277.448 231.931 298.417 252.9 324.284 252.9Z" stroke="#EEBD4B" stroke-width="3.47" stroke-miterlimit="10"/>
</g>
<path d="M243.794 126.014C243.794 81.1053 280.251 44.667 325.141 44.667V126.014H243.794Z" fill="#EEBD4B"/>
<path d="M325.141 288.022H243.794V206.674C243.794 251.602 280.213 288.022 325.141 288.022Z" fill="#EEBD4B"/>
<path d="M162.314 206.465C162.314 161.575 198.771 125.117 243.661 125.117C243.661 170.007 207.203 206.465 162.314 206.465Z" fill="#F5D68A"/>
<path d="M297.136 155.298H273.48V178.955H297.136V155.298Z" fill="#F5D68A"/>
<path d="M258.045 139.846H312.607V194.408H258.045V139.846ZM266.858 185.594H303.774V148.678H266.858V185.594Z" fill="#F5D68A"/>
<path d="M326 126.453V207.8H244.653V126.453H326ZM251.406 201.047H319.208V133.245H251.406V201.047Z" fill="#F5D68A"/>
<path d="M162.294 288.308V369.655L243.641 288.308H162.294Z" fill="#99772C"/>
<path d="M162.294 369.655H243.641L162.294 288.308V369.655Z" fill="#F5D68A"/>
<path d="M284.467 288.136C307.036 288.136 325.313 306.432 325.313 328.981C325.313 351.531 307.017 369.827 284.467 369.827C261.917 369.827 243.622 351.531 243.622 328.981C243.622 306.432 261.917 288.136 284.467 288.136ZM284.467 352.008C297.192 352.008 307.494 341.706 307.494 328.981C307.494 316.257 297.192 305.955 284.467 305.955C271.742 305.955 261.44 316.257 261.44 328.981C261.44 341.706 271.742 352.008 284.467 352.008Z" fill="#F5D68A"/>
<path d="M243.91 288.518V207.151H162.562L243.91 288.518Z" fill="#EEBD4B"/>
<path d="M81.633 287.392C81.633 242.502 118.09 206.045 162.98 206.045V287.392H81.633Z" fill="#F5D68A"/>
<path d="M0.13389 369.617C0.13389 324.727 36.5913 288.27 81.4811 288.27C81.4811 333.159 45.0236 369.617 0.13389 369.617Z" fill="#EEBD4B"/>
<path d="M133.563 317.039H109.907V340.695H133.563V317.039Z" fill="#EEBD4B"/>
<path d="M94.4532 301.586H149.015V356.148H94.4532V301.586ZM103.286 347.315H140.201V310.4H103.286V347.315Z" fill="#EEBD4B"/>
<path d="M162.409 288.193V369.54H81.0614V288.193H162.409ZM87.834 362.768H155.636V294.966H87.834V362.768Z" fill="#EEBD4B"/>
</g>
<defs>
<filter id="filter0_d_1_550" x="-40" y="-10" width="406" height="560" filterUnits="userSpaceOnUse" color-interpolation-filters="sRGB">
<feFlood flood-opacity="0" result="BackgroundImageFix"/>
<feColorMatrix in="SourceAlpha" type="matrix" values="0 0 0 0 0 0 0 0 0 0 0 0 0 0 0 0 0 0 127 0" result="hardAlpha"/>
<feOffset dy="30"/>
<feGaussianBlur stdDeviation="20"/>
<feComposite in2="hardAlpha" operator="out"/>
<feColorMatrix type="matrix" values="0 0 0 0 0.176471 0 0 0 0 0.211765 0 0 0 0 0.27451 0 0 0 0.06 0"/>
<feBlend mode="normal" in2="BackgroundImageFix" result="effect1_dropShadow_1_550"/>
<feBlend mode="normal" in="SourceGraphic" in2="effect1_dropShadow_1_550" result="shape"/>
</filter>
<clipPath id="clip0_1_550">
<rect width="326" height="364" fill="white"/>
</clipPath>
</defs>
</svg>
