<svg width="326" height="363" viewBox="0 0 326 363" fill="none" xmlns="http://www.w3.org/2000/svg">
<g clip-path="url(#clip0_1_589)">
<g filter="url(#filter0_d_1_589)">
<rect y="0.25" width="326" height="480" fill="white"/>
<rect y="0.25" width="326" height="480" fill="white"/>
</g>
<g filter="url(#filter1_d_1_589)">
<path d="M0 128H326V476C326 478.209 324.209 480 322 480H3.99999C1.79085 480 0 478.209 0 476V128Z" fill="#FF4713"/>
</g>
<g clip-path="url(#clip1_1_589)">
<path d="M217.257 236.797H108.628V345.387H217.257V236.797Z" fill="#E13200"/>
<path d="M108.628 345.387H0V453.977H108.628V345.387Z" fill="#E13200"/>
<path d="M325.908 345.387H217.28V453.977H325.908V345.387Z" fill="#FF9263"/>
<path d="M108.628 128.184H65.1678C29.1806 128.184 0 157.354 0 193.352V236.59H43.4605C79.4707 236.59 108.651 207.42 108.651 171.422V128.184" fill="#E13200"/>
<path d="M108.628 128.184H89.5195C73.6759 128.184 60.8447 141.011 60.8447 156.849V175.859H79.9536C95.7741 175.859 108.628 163.032 108.628 147.194V128.184Z" fill="#FF9263"/>
<path d="M217.28 345.295H198.171C182.327 345.295 169.496 332.468 169.496 316.63V297.62H188.605C204.425 297.62 217.28 310.447 217.28 326.285V345.295Z" fill="#FF9263"/>
<path d="M217.372 345.571H260.832C296.842 345.571 326.023 374.741 326.023 410.739V453.977H282.562C246.552 453.977 217.372 424.807 217.372 388.809V345.571Z" fill="#E13200"/>
<path d="M217.372 345.571H236.48C252.324 345.571 265.155 358.398 265.155 374.236V393.246H246.046C230.226 393.246 217.372 380.419 217.372 364.581V345.571Z" fill="white"/>
<path d="M108.628 236.59C168.622 236.59 217.257 187.973 217.257 128C157.263 128 108.628 176.617 108.628 236.59Z" fill="#FF9263"/>
<path d="M108.628 236.59C108.628 296.563 59.9939 345.18 0 345.18C0 285.207 48.6344 236.59 108.628 236.59Z" fill="#FF9263"/>
<path d="M325.931 236.613C325.931 176.64 277.297 128 217.28 128V236.82L325.931 236.613Z" fill="#FF9263"/>
<path d="M108.628 236.59C108.628 272.335 79.6547 301.298 43.8975 301.298C43.8975 265.553 72.8712 236.59 108.628 236.59Z" fill="#E13200"/>
<path d="M217.464 345.387C217.464 405.36 168.829 453.977 108.835 453.977C108.835 394.004 157.47 345.387 217.464 345.387Z" fill="#FF9263"/>
<path d="M217.464 345.387C217.464 381.132 188.49 410.095 152.733 410.095C152.733 374.35 181.706 345.387 217.464 345.387Z" fill="#E13200"/>
<path d="M221.097 128.092H217.28V131.908C219.257 188.938 265.201 234.774 322.275 236.613H325.839V233.05C323.999 175.997 278.147 130.069 221.097 128.092Z" fill="#E13200"/>
<path d="M321.705 311.848C333.17 284.179 320.026 252.459 292.348 240.998C264.67 229.537 232.938 242.677 221.473 270.345C210.008 298.014 223.152 329.734 250.83 341.195C278.509 352.656 310.241 339.516 321.705 311.848Z" fill="#E13200"/>
<path d="M271.594 345.203C271.594 315.251 247.311 290.977 217.349 290.977V345.41L271.594 345.226V345.203Z" fill="#FF663B"/>
<path d="M271.594 345.203H268.214C239.815 343.479 217.326 319.917 217.326 291.092C217.326 291.046 217.326 291 217.326 290.954C247.288 290.954 271.571 315.228 271.571 345.18L271.594 345.203Z" fill="#FF9263"/>
<path d="M54.3142 453.954C84.2729 453.954 108.559 429.676 108.559 399.728C108.559 369.78 84.2729 345.502 54.3142 345.502C24.3554 345.502 0.0689697 369.78 0.0689697 399.728C0.0689697 429.676 24.3554 453.954 54.3142 453.954Z" fill="#FF663B"/>
<path d="M54.3142 345.617C54.3142 375.569 78.5969 399.843 108.559 399.843V345.41L54.3142 345.594V345.617Z" fill="#FF9263"/>
<path d="M54.3142 345.617H57.6945C86.0933 347.341 108.582 370.902 108.582 399.728C108.582 399.774 108.582 399.82 108.582 399.866C78.6199 399.866 54.3372 375.592 54.3372 345.64L54.3142 345.617Z" fill="white"/>
</g>
</g>
<defs>
<filter id="filter0_d_1_589" x="-40" y="-9.75" width="406" height="560" filterUnits="userSpaceOnUse" color-interpolation-filters="sRGB">
<feFlood flood-opacity="0" result="BackgroundImageFix"/>
<feColorMatrix in="SourceAlpha" type="matrix" values="0 0 0 0 0 0 0 0 0 0 0 0 0 0 0 0 0 0 127 0" result="hardAlpha"/>
<feOffset dy="30"/>
<feGaussianBlur stdDeviation="20"/>
<feComposite in2="hardAlpha" operator="out"/>
<feColorMatrix type="matrix" values="0 0 0 0 0.176471 0 0 0 0 0.211765 0 0 0 0 0.27451 0 0 0 0.06 0"/>
<feBlend mode="normal" in2="BackgroundImageFix" result="effect1_dropShadow_1_589"/>
<feBlend mode="normal" in="SourceGraphic" in2="effect1_dropShadow_1_589" result="shape"/>
</filter>
<filter id="filter1_d_1_589" x="-40" y="118" width="406" height="432" filterUnits="userSpaceOnUse" color-interpolation-filters="sRGB">
<feFlood flood-opacity="0" result="BackgroundImageFix"/>
<feColorMatrix in="SourceAlpha" type="matrix" values="0 0 0 0 0 0 0 0 0 0 0 0 0 0 0 0 0 0 127 0" result="hardAlpha"/>
<feOffset dy="30"/>
<feGaussianBlur stdDeviation="20"/>
<feComposite in2="hardAlpha" operator="out"/>
<feColorMatrix type="matrix" values="0 0 0 0 0.176471 0 0 0 0 0.211765 0 0 0 0 0.27451 0 0 0 0.06 0"/>
<feBlend mode="normal" in2="BackgroundImageFix" result="effect1_dropShadow_1_589"/>
<feBlend mode="normal" in="SourceGraphic" in2="effect1_dropShadow_1_589" result="shape"/>
</filter>
<clipPath id="clip0_1_589">
<rect width="326" height="363" fill="white"/>
</clipPath>
<clipPath id="clip1_1_589">
<path d="M0 128H326V450C326 452.209 324.209 454 322 454H3.99999C1.79085 454 0 452.209 0 450V128Z" fill="white"/>
</clipPath>
</defs>
</svg>
